%TF.GenerationSoftware,KiCad,Pcbnew,7.0.7*%
%TF.CreationDate,2023-11-18T21:36:43+01:00*%
%TF.ProjectId,Mod2Arinc,4d6f6432-4172-4696-9e63-2e6b69636164,rev?*%
%TF.SameCoordinates,Original*%
%TF.FileFunction,Drillmap*%
%TF.FilePolarity,Positive*%
%FSLAX45Y45*%
G04 Gerber Fmt 4.5, Leading zero omitted, Abs format (unit mm)*
G04 Created by KiCad (PCBNEW 7.0.7) date 2023-11-18 21:36:43*
%MOMM*%
%LPD*%
G01*
G04 APERTURE LIST*
%ADD10C,0.100000*%
%ADD11C,0.200000*%
%ADD12C,0.080000*%
%ADD13C,0.090000*%
%ADD14C,0.110000*%
%ADD15C,0.120000*%
%ADD16C,0.130000*%
%ADD17C,0.160000*%
%ADD18C,0.320000*%
G04 APERTURE END LIST*
D10*
X15000000Y-14500000D02*
G75*
G03*
X15500000Y-15000000I500000J0D01*
G01*
X15500000Y-5000000D02*
G75*
G03*
X15000000Y-5500000I0J-500000D01*
G01*
X15500000Y-5000000D02*
X24500000Y-5000000D01*
X24500000Y-15000000D02*
X15500000Y-15000000D01*
X15000000Y-14500000D02*
X15000000Y-5500000D01*
X24500000Y-15000000D02*
G75*
G03*
X25000000Y-14500000I0J500000D01*
G01*
X25000000Y-5500000D02*
G75*
G03*
X24500000Y-5000000I-500000J0D01*
G01*
X25000000Y-5500000D02*
X25000000Y-14500000D01*
D11*
D12*
X16150000Y-11738000D02*
X16230000Y-11818000D01*
X16230000Y-11738000D02*
X16150000Y-11818000D01*
X16150000Y-11992000D02*
X16230000Y-12072000D01*
X16230000Y-11992000D02*
X16150000Y-12072000D01*
X16150000Y-12246000D02*
X16230000Y-12326000D01*
X16230000Y-12246000D02*
X16150000Y-12326000D01*
X16277000Y-8436000D02*
X16357000Y-8516000D01*
X16357000Y-8436000D02*
X16277000Y-8516000D01*
X16277000Y-9452000D02*
X16357000Y-9532000D01*
X16357000Y-9452000D02*
X16277000Y-9532000D01*
X16277000Y-9960000D02*
X16357000Y-10040000D01*
X16357000Y-9960000D02*
X16277000Y-10040000D01*
X16277000Y-10976000D02*
X16357000Y-11056000D01*
X16357000Y-10976000D02*
X16277000Y-11056000D01*
X16404000Y-6412000D02*
X16484000Y-6492000D01*
X16484000Y-6412000D02*
X16404000Y-6492000D01*
X16404000Y-6912000D02*
X16484000Y-6992000D01*
X16484000Y-6912000D02*
X16404000Y-6992000D01*
X16658000Y-8436000D02*
X16738000Y-8516000D01*
X16738000Y-8436000D02*
X16658000Y-8516000D01*
X16658000Y-9452000D02*
X16738000Y-9532000D01*
X16738000Y-9452000D02*
X16658000Y-9532000D01*
X16658000Y-9960000D02*
X16738000Y-10040000D01*
X16738000Y-9960000D02*
X16658000Y-10040000D01*
X16658000Y-10976000D02*
X16738000Y-11056000D01*
X16738000Y-10976000D02*
X16658000Y-11056000D01*
X16658000Y-11737000D02*
X16738000Y-11817000D01*
X16738000Y-11737000D02*
X16658000Y-11817000D01*
X16658000Y-11991000D02*
X16738000Y-12071000D01*
X16738000Y-11991000D02*
X16658000Y-12071000D01*
X16658000Y-12245000D02*
X16738000Y-12325000D01*
X16738000Y-12245000D02*
X16658000Y-12325000D01*
X16785000Y-7420000D02*
X16865000Y-7500000D01*
X16865000Y-7420000D02*
X16785000Y-7500000D01*
X16785000Y-7800000D02*
X16865000Y-7880000D01*
X16865000Y-7800000D02*
X16785000Y-7880000D01*
X17039000Y-8436000D02*
X17119000Y-8516000D01*
X17119000Y-8436000D02*
X17039000Y-8516000D01*
X17039000Y-9452000D02*
X17119000Y-9532000D01*
X17119000Y-9452000D02*
X17039000Y-9532000D01*
X17039000Y-9960000D02*
X17119000Y-10040000D01*
X17119000Y-9960000D02*
X17039000Y-10040000D01*
X17039000Y-10976000D02*
X17119000Y-11056000D01*
X17119000Y-10976000D02*
X17039000Y-11056000D01*
X17166000Y-11738000D02*
X17246000Y-11818000D01*
X17246000Y-11738000D02*
X17166000Y-11818000D01*
X17166000Y-11992000D02*
X17246000Y-12072000D01*
X17246000Y-11992000D02*
X17166000Y-12072000D01*
X17166000Y-12246000D02*
X17246000Y-12326000D01*
X17246000Y-12246000D02*
X17166000Y-12326000D01*
X17420000Y-7420000D02*
X17500000Y-7500000D01*
X17500000Y-7420000D02*
X17420000Y-7500000D01*
X17420000Y-7670000D02*
X17500000Y-7750000D01*
X17500000Y-7670000D02*
X17420000Y-7750000D01*
X17420000Y-8436000D02*
X17500000Y-8516000D01*
X17500000Y-8436000D02*
X17420000Y-8516000D01*
X17420000Y-9452000D02*
X17500000Y-9532000D01*
X17500000Y-9452000D02*
X17420000Y-9532000D01*
X17420000Y-9960000D02*
X17500000Y-10040000D01*
X17500000Y-9960000D02*
X17420000Y-10040000D01*
X17420000Y-10976000D02*
X17500000Y-11056000D01*
X17500000Y-10976000D02*
X17420000Y-11056000D01*
X17674000Y-11738000D02*
X17754000Y-11818000D01*
X17754000Y-11738000D02*
X17674000Y-11818000D01*
X17674000Y-11992000D02*
X17754000Y-12072000D01*
X17754000Y-11992000D02*
X17674000Y-12072000D01*
X17674000Y-12246000D02*
X17754000Y-12326000D01*
X17754000Y-12246000D02*
X17674000Y-12326000D01*
X17801000Y-8436000D02*
X17881000Y-8516000D01*
X17881000Y-8436000D02*
X17801000Y-8516000D01*
X17801000Y-9452000D02*
X17881000Y-9532000D01*
X17881000Y-9452000D02*
X17801000Y-9532000D01*
X17801000Y-9960000D02*
X17881000Y-10040000D01*
X17881000Y-9960000D02*
X17801000Y-10040000D01*
X17801000Y-10976000D02*
X17881000Y-11056000D01*
X17881000Y-10976000D02*
X17801000Y-11056000D01*
X18055000Y-7421000D02*
X18135000Y-7501000D01*
X18135000Y-7421000D02*
X18055000Y-7501000D01*
X18055000Y-7801000D02*
X18135000Y-7881000D01*
X18135000Y-7801000D02*
X18055000Y-7881000D01*
X18182000Y-8436000D02*
X18262000Y-8516000D01*
X18262000Y-8436000D02*
X18182000Y-8516000D01*
X18182000Y-9452000D02*
X18262000Y-9532000D01*
X18262000Y-9452000D02*
X18182000Y-9532000D01*
X18182000Y-9960000D02*
X18262000Y-10040000D01*
X18262000Y-9960000D02*
X18182000Y-10040000D01*
X18182000Y-10976000D02*
X18262000Y-11056000D01*
X18262000Y-10976000D02*
X18182000Y-11056000D01*
X18182000Y-11738000D02*
X18262000Y-11818000D01*
X18262000Y-11738000D02*
X18182000Y-11818000D01*
X18182000Y-11992000D02*
X18262000Y-12072000D01*
X18262000Y-11992000D02*
X18182000Y-12072000D01*
X18182000Y-12246000D02*
X18262000Y-12326000D01*
X18262000Y-12246000D02*
X18182000Y-12326000D01*
X18436000Y-12627000D02*
X18516000Y-12707000D01*
X18516000Y-12627000D02*
X18436000Y-12707000D01*
X18436000Y-13643000D02*
X18516000Y-13723000D01*
X18516000Y-13643000D02*
X18436000Y-13723000D01*
X18563000Y-8436000D02*
X18643000Y-8516000D01*
X18643000Y-8436000D02*
X18563000Y-8516000D01*
X18563000Y-9452000D02*
X18643000Y-9532000D01*
X18643000Y-9452000D02*
X18563000Y-9532000D01*
X18563000Y-9960000D02*
X18643000Y-10040000D01*
X18643000Y-9960000D02*
X18563000Y-10040000D01*
X18563000Y-10976000D02*
X18643000Y-11056000D01*
X18643000Y-10976000D02*
X18563000Y-11056000D01*
X18690000Y-7420000D02*
X18770000Y-7500000D01*
X18770000Y-7420000D02*
X18690000Y-7500000D01*
X18690000Y-7670000D02*
X18770000Y-7750000D01*
X18770000Y-7670000D02*
X18690000Y-7750000D01*
X18690000Y-11738000D02*
X18770000Y-11818000D01*
X18770000Y-11738000D02*
X18690000Y-11818000D01*
X18690000Y-11992000D02*
X18770000Y-12072000D01*
X18770000Y-11992000D02*
X18690000Y-12072000D01*
X18690000Y-12246000D02*
X18770000Y-12326000D01*
X18770000Y-12246000D02*
X18690000Y-12326000D01*
X18772000Y-12626000D02*
X18852000Y-12706000D01*
X18852000Y-12626000D02*
X18772000Y-12706000D01*
X18772000Y-12880000D02*
X18852000Y-12960000D01*
X18852000Y-12880000D02*
X18772000Y-12960000D01*
X18772000Y-13134000D02*
X18852000Y-13214000D01*
X18852000Y-13134000D02*
X18772000Y-13214000D01*
X18944000Y-8436000D02*
X19024000Y-8516000D01*
X19024000Y-8436000D02*
X18944000Y-8516000D01*
X18944000Y-9452000D02*
X19024000Y-9532000D01*
X19024000Y-9452000D02*
X18944000Y-9532000D01*
X18944000Y-9960000D02*
X19024000Y-10040000D01*
X19024000Y-9960000D02*
X18944000Y-10040000D01*
X18944000Y-10976000D02*
X19024000Y-11056000D01*
X19024000Y-10976000D02*
X18944000Y-11056000D01*
X19198000Y-11738000D02*
X19278000Y-11818000D01*
X19278000Y-11738000D02*
X19198000Y-11818000D01*
X19198000Y-11992000D02*
X19278000Y-12072000D01*
X19278000Y-11992000D02*
X19198000Y-12072000D01*
X19198000Y-12246000D02*
X19278000Y-12326000D01*
X19278000Y-12246000D02*
X19198000Y-12326000D01*
X19198000Y-12627000D02*
X19278000Y-12707000D01*
X19278000Y-12627000D02*
X19198000Y-12707000D01*
X19198000Y-13643000D02*
X19278000Y-13723000D01*
X19278000Y-13643000D02*
X19198000Y-13723000D01*
X19325000Y-6277000D02*
X19405000Y-6357000D01*
X19405000Y-6277000D02*
X19325000Y-6357000D01*
X19325000Y-7293000D02*
X19405000Y-7373000D01*
X19405000Y-7293000D02*
X19325000Y-7373000D01*
X19579000Y-7674000D02*
X19659000Y-7754000D01*
X19659000Y-7674000D02*
X19579000Y-7754000D01*
X19579000Y-7928000D02*
X19659000Y-8008000D01*
X19659000Y-7928000D02*
X19579000Y-8008000D01*
X19579000Y-8182000D02*
X19659000Y-8262000D01*
X19659000Y-8182000D02*
X19579000Y-8262000D01*
X19579000Y-8563000D02*
X19659000Y-8643000D01*
X19659000Y-8563000D02*
X19579000Y-8643000D01*
X19579000Y-8817000D02*
X19659000Y-8897000D01*
X19659000Y-8817000D02*
X19579000Y-8897000D01*
X19579000Y-9071000D02*
X19659000Y-9151000D01*
X19659000Y-9071000D02*
X19579000Y-9151000D01*
X19579000Y-12627000D02*
X19659000Y-12707000D01*
X19659000Y-12627000D02*
X19579000Y-12707000D01*
X19579000Y-13643000D02*
X19659000Y-13723000D01*
X19659000Y-13643000D02*
X19579000Y-13723000D01*
X19706000Y-6277000D02*
X19786000Y-6357000D01*
X19786000Y-6277000D02*
X19706000Y-6357000D01*
X19706000Y-7293000D02*
X19786000Y-7373000D01*
X19786000Y-7293000D02*
X19706000Y-7373000D01*
X19706000Y-9452000D02*
X19786000Y-9532000D01*
X19786000Y-9452000D02*
X19706000Y-9532000D01*
X19706000Y-10468000D02*
X19786000Y-10548000D01*
X19786000Y-10468000D02*
X19706000Y-10548000D01*
X19833000Y-11230000D02*
X19913000Y-11310000D01*
X19913000Y-11230000D02*
X19833000Y-11310000D01*
X19833000Y-11992000D02*
X19913000Y-12072000D01*
X19913000Y-11992000D02*
X19833000Y-12072000D01*
X19960000Y-12627000D02*
X20040000Y-12707000D01*
X20040000Y-12627000D02*
X19960000Y-12707000D01*
X19960000Y-13643000D02*
X20040000Y-13723000D01*
X20040000Y-13643000D02*
X19960000Y-13723000D01*
X20087000Y-6277000D02*
X20167000Y-6357000D01*
X20167000Y-6277000D02*
X20087000Y-6357000D01*
X20087000Y-7293000D02*
X20167000Y-7373000D01*
X20167000Y-7293000D02*
X20087000Y-7373000D01*
X20087000Y-7674000D02*
X20167000Y-7754000D01*
X20167000Y-7674000D02*
X20087000Y-7754000D01*
X20087000Y-7928000D02*
X20167000Y-8008000D01*
X20167000Y-7928000D02*
X20087000Y-8008000D01*
X20087000Y-8182000D02*
X20167000Y-8262000D01*
X20167000Y-8182000D02*
X20087000Y-8262000D01*
X20087000Y-8563000D02*
X20167000Y-8643000D01*
X20167000Y-8563000D02*
X20087000Y-8643000D01*
X20087000Y-8817000D02*
X20167000Y-8897000D01*
X20167000Y-8817000D02*
X20087000Y-8897000D01*
X20087000Y-9071000D02*
X20167000Y-9151000D01*
X20167000Y-9071000D02*
X20087000Y-9151000D01*
X20087000Y-9452000D02*
X20167000Y-9532000D01*
X20167000Y-9452000D02*
X20087000Y-9532000D01*
X20087000Y-10468000D02*
X20167000Y-10548000D01*
X20167000Y-10468000D02*
X20087000Y-10548000D01*
X20087000Y-11230000D02*
X20167000Y-11310000D01*
X20167000Y-11230000D02*
X20087000Y-11310000D01*
X20087000Y-11992000D02*
X20167000Y-12072000D01*
X20167000Y-11992000D02*
X20087000Y-12072000D01*
X20341000Y-11230000D02*
X20421000Y-11310000D01*
X20421000Y-11230000D02*
X20341000Y-11310000D01*
X20341000Y-11992000D02*
X20421000Y-12072000D01*
X20421000Y-11992000D02*
X20341000Y-12072000D01*
X20341000Y-12627000D02*
X20421000Y-12707000D01*
X20421000Y-12627000D02*
X20341000Y-12707000D01*
X20341000Y-13643000D02*
X20421000Y-13723000D01*
X20421000Y-13643000D02*
X20341000Y-13723000D01*
X20468000Y-6277000D02*
X20548000Y-6357000D01*
X20548000Y-6277000D02*
X20468000Y-6357000D01*
X20468000Y-7293000D02*
X20548000Y-7373000D01*
X20548000Y-7293000D02*
X20468000Y-7373000D01*
X20468000Y-9452000D02*
X20548000Y-9532000D01*
X20548000Y-9452000D02*
X20468000Y-9532000D01*
X20468000Y-10468000D02*
X20548000Y-10548000D01*
X20548000Y-10468000D02*
X20468000Y-10548000D01*
X20595000Y-7682000D02*
X20675000Y-7762000D01*
X20675000Y-7682000D02*
X20595000Y-7762000D01*
X20595000Y-8182000D02*
X20675000Y-8262000D01*
X20675000Y-8182000D02*
X20595000Y-8262000D01*
X20595000Y-8563000D02*
X20675000Y-8643000D01*
X20675000Y-8563000D02*
X20595000Y-8643000D01*
X20595000Y-9063000D02*
X20675000Y-9143000D01*
X20675000Y-9063000D02*
X20595000Y-9143000D01*
X20595000Y-11230000D02*
X20675000Y-11310000D01*
X20675000Y-11230000D02*
X20595000Y-11310000D01*
X20595000Y-11992000D02*
X20675000Y-12072000D01*
X20675000Y-11992000D02*
X20595000Y-12072000D01*
X20722000Y-5261000D02*
X20802000Y-5341000D01*
X20802000Y-5261000D02*
X20722000Y-5341000D01*
X20722000Y-5761000D02*
X20802000Y-5841000D01*
X20802000Y-5761000D02*
X20722000Y-5841000D01*
X20722000Y-12631000D02*
X20802000Y-12711000D01*
X20802000Y-12631000D02*
X20722000Y-12711000D01*
X20722000Y-12881000D02*
X20802000Y-12961000D01*
X20802000Y-12881000D02*
X20722000Y-12961000D01*
X20849000Y-6277000D02*
X20929000Y-6357000D01*
X20929000Y-6277000D02*
X20849000Y-6357000D01*
X20849000Y-7293000D02*
X20929000Y-7373000D01*
X20929000Y-7293000D02*
X20849000Y-7373000D01*
X20849000Y-9452000D02*
X20929000Y-9532000D01*
X20929000Y-9452000D02*
X20849000Y-9532000D01*
X20849000Y-10468000D02*
X20929000Y-10548000D01*
X20929000Y-10468000D02*
X20849000Y-10548000D01*
X20849000Y-11230000D02*
X20929000Y-11310000D01*
X20929000Y-11230000D02*
X20849000Y-11310000D01*
X20849000Y-11992000D02*
X20929000Y-12072000D01*
X20929000Y-11992000D02*
X20849000Y-12072000D01*
X20980000Y-13389000D02*
X21060000Y-13469000D01*
X21060000Y-13389000D02*
X20980000Y-13469000D01*
X21103000Y-7928000D02*
X21183000Y-8008000D01*
X21183000Y-7928000D02*
X21103000Y-8008000D01*
X21103000Y-8178000D02*
X21183000Y-8258000D01*
X21183000Y-8178000D02*
X21103000Y-8258000D01*
X21103000Y-11230000D02*
X21183000Y-11310000D01*
X21183000Y-11230000D02*
X21103000Y-11310000D01*
X21103000Y-11992000D02*
X21183000Y-12072000D01*
X21183000Y-11992000D02*
X21103000Y-12072000D01*
X21103000Y-12631000D02*
X21183000Y-12711000D01*
X21183000Y-12631000D02*
X21103000Y-12711000D01*
X21103000Y-12881000D02*
X21183000Y-12961000D01*
X21183000Y-12881000D02*
X21103000Y-12961000D01*
X21230000Y-6277000D02*
X21310000Y-6357000D01*
X21310000Y-6277000D02*
X21230000Y-6357000D01*
X21230000Y-7293000D02*
X21310000Y-7373000D01*
X21310000Y-7293000D02*
X21230000Y-7373000D01*
X21230000Y-9452000D02*
X21310000Y-9532000D01*
X21310000Y-9452000D02*
X21230000Y-9532000D01*
X21230000Y-10468000D02*
X21310000Y-10548000D01*
X21310000Y-10468000D02*
X21230000Y-10548000D01*
X21357000Y-11230000D02*
X21437000Y-11310000D01*
X21437000Y-11230000D02*
X21357000Y-11310000D01*
X21357000Y-11992000D02*
X21437000Y-12072000D01*
X21437000Y-11992000D02*
X21357000Y-12072000D01*
X21480000Y-13389000D02*
X21560000Y-13469000D01*
X21560000Y-13389000D02*
X21480000Y-13469000D01*
X21484000Y-7928000D02*
X21564000Y-8008000D01*
X21564000Y-7928000D02*
X21484000Y-8008000D01*
X21484000Y-8690000D02*
X21564000Y-8770000D01*
X21564000Y-8690000D02*
X21484000Y-8770000D01*
X21484000Y-13008000D02*
X21564000Y-13088000D01*
X21564000Y-13008000D02*
X21484000Y-13088000D01*
X21611000Y-6793000D02*
X21691000Y-6873000D01*
X21691000Y-6793000D02*
X21611000Y-6873000D01*
X21611000Y-7293000D02*
X21691000Y-7373000D01*
X21691000Y-7293000D02*
X21611000Y-7373000D01*
X21611000Y-9452000D02*
X21691000Y-9532000D01*
X21691000Y-9452000D02*
X21611000Y-9532000D01*
X21611000Y-9952000D02*
X21691000Y-10032000D01*
X21691000Y-9952000D02*
X21611000Y-10032000D01*
X21611000Y-10214000D02*
X21691000Y-10294000D01*
X21691000Y-10214000D02*
X21611000Y-10294000D01*
X21611000Y-10464000D02*
X21691000Y-10544000D01*
X21691000Y-10464000D02*
X21611000Y-10544000D01*
X21611000Y-11230000D02*
X21691000Y-11310000D01*
X21691000Y-11230000D02*
X21611000Y-11310000D01*
X21611000Y-11992000D02*
X21691000Y-12072000D01*
X21691000Y-11992000D02*
X21611000Y-12072000D01*
X21738000Y-7928000D02*
X21818000Y-8008000D01*
X21818000Y-7928000D02*
X21738000Y-8008000D01*
X21738000Y-8690000D02*
X21818000Y-8770000D01*
X21818000Y-8690000D02*
X21738000Y-8770000D01*
X21747000Y-12500000D02*
X21827000Y-12580000D01*
X21827000Y-12500000D02*
X21747000Y-12580000D01*
X21865000Y-11230000D02*
X21945000Y-11310000D01*
X21945000Y-11230000D02*
X21865000Y-11310000D01*
X21865000Y-11992000D02*
X21945000Y-12072000D01*
X21945000Y-11992000D02*
X21865000Y-12072000D01*
X21992000Y-5261000D02*
X22072000Y-5341000D01*
X22072000Y-5261000D02*
X21992000Y-5341000D01*
X21992000Y-5761000D02*
X22072000Y-5841000D01*
X22072000Y-5761000D02*
X21992000Y-5841000D01*
X21992000Y-6277000D02*
X22072000Y-6357000D01*
X22072000Y-6277000D02*
X21992000Y-6357000D01*
X21992000Y-7293000D02*
X22072000Y-7373000D01*
X22072000Y-7293000D02*
X21992000Y-7373000D01*
X21992000Y-7928000D02*
X22072000Y-8008000D01*
X22072000Y-7928000D02*
X21992000Y-8008000D01*
X21992000Y-8690000D02*
X22072000Y-8770000D01*
X22072000Y-8690000D02*
X21992000Y-8770000D01*
X21992000Y-9452000D02*
X22072000Y-9532000D01*
X22072000Y-9452000D02*
X21992000Y-9532000D01*
X21992000Y-10468000D02*
X22072000Y-10548000D01*
X22072000Y-10468000D02*
X21992000Y-10548000D01*
X21996000Y-13389000D02*
X22076000Y-13469000D01*
X22076000Y-13389000D02*
X21996000Y-13469000D01*
X22119000Y-11230000D02*
X22199000Y-11310000D01*
X22199000Y-11230000D02*
X22119000Y-11310000D01*
X22119000Y-11992000D02*
X22199000Y-12072000D01*
X22199000Y-11992000D02*
X22119000Y-12072000D01*
X22237000Y-12500000D02*
X22317000Y-12580000D01*
X22317000Y-12500000D02*
X22237000Y-12580000D01*
X22246000Y-7928000D02*
X22326000Y-8008000D01*
X22326000Y-7928000D02*
X22246000Y-8008000D01*
X22246000Y-8690000D02*
X22326000Y-8770000D01*
X22326000Y-8690000D02*
X22246000Y-8770000D01*
X22373000Y-6277000D02*
X22453000Y-6357000D01*
X22453000Y-6277000D02*
X22373000Y-6357000D01*
X22373000Y-7293000D02*
X22453000Y-7373000D01*
X22453000Y-7293000D02*
X22373000Y-7373000D01*
X22373000Y-9452000D02*
X22453000Y-9532000D01*
X22453000Y-9452000D02*
X22373000Y-9532000D01*
X22373000Y-10468000D02*
X22453000Y-10548000D01*
X22453000Y-10468000D02*
X22373000Y-10548000D01*
X22373000Y-11230000D02*
X22453000Y-11310000D01*
X22453000Y-11230000D02*
X22373000Y-11310000D01*
X22373000Y-11992000D02*
X22453000Y-12072000D01*
X22453000Y-11992000D02*
X22373000Y-12072000D01*
X22496000Y-13389000D02*
X22576000Y-13469000D01*
X22576000Y-13389000D02*
X22496000Y-13469000D01*
X22500000Y-13008000D02*
X22580000Y-13088000D01*
X22580000Y-13008000D02*
X22500000Y-13088000D01*
X22627000Y-7674000D02*
X22707000Y-7754000D01*
X22707000Y-7674000D02*
X22627000Y-7754000D01*
X22627000Y-8174000D02*
X22707000Y-8254000D01*
X22707000Y-8174000D02*
X22627000Y-8254000D01*
X22627000Y-8436000D02*
X22707000Y-8516000D01*
X22707000Y-8436000D02*
X22627000Y-8516000D01*
X22627000Y-8686000D02*
X22707000Y-8766000D01*
X22707000Y-8686000D02*
X22627000Y-8766000D01*
X22627000Y-11230000D02*
X22707000Y-11310000D01*
X22707000Y-11230000D02*
X22627000Y-11310000D01*
X22627000Y-11992000D02*
X22707000Y-12072000D01*
X22707000Y-11992000D02*
X22627000Y-12072000D01*
X22754000Y-6277000D02*
X22834000Y-6357000D01*
X22834000Y-6277000D02*
X22754000Y-6357000D01*
X22754000Y-7293000D02*
X22834000Y-7373000D01*
X22834000Y-7293000D02*
X22754000Y-7373000D01*
X22754000Y-9452000D02*
X22834000Y-9532000D01*
X22834000Y-9452000D02*
X22754000Y-9532000D01*
X22754000Y-10468000D02*
X22834000Y-10548000D01*
X22834000Y-10468000D02*
X22754000Y-10548000D01*
X22881000Y-11230000D02*
X22961000Y-11310000D01*
X22961000Y-11230000D02*
X22881000Y-11310000D01*
X22881000Y-11992000D02*
X22961000Y-12072000D01*
X22961000Y-11992000D02*
X22881000Y-12072000D01*
X23135000Y-6277000D02*
X23215000Y-6357000D01*
X23215000Y-6277000D02*
X23135000Y-6357000D01*
X23135000Y-7293000D02*
X23215000Y-7373000D01*
X23215000Y-7293000D02*
X23135000Y-7373000D01*
X23135000Y-9452000D02*
X23215000Y-9532000D01*
X23215000Y-9452000D02*
X23135000Y-9532000D01*
X23135000Y-10468000D02*
X23215000Y-10548000D01*
X23215000Y-10468000D02*
X23135000Y-10548000D01*
X23135000Y-11230000D02*
X23215000Y-11310000D01*
X23215000Y-11230000D02*
X23135000Y-11310000D01*
X23135000Y-11992000D02*
X23215000Y-12072000D01*
X23215000Y-11992000D02*
X23135000Y-12072000D01*
X23262000Y-13770000D02*
X23342000Y-13850000D01*
X23342000Y-13770000D02*
X23262000Y-13850000D01*
X23262000Y-14020000D02*
X23342000Y-14100000D01*
X23342000Y-14020000D02*
X23262000Y-14100000D01*
X23262000Y-14282000D02*
X23342000Y-14362000D01*
X23342000Y-14282000D02*
X23262000Y-14362000D01*
X23262000Y-14532000D02*
X23342000Y-14612000D01*
X23342000Y-14532000D02*
X23262000Y-14612000D01*
X23516000Y-6277000D02*
X23596000Y-6357000D01*
X23596000Y-6277000D02*
X23516000Y-6357000D01*
X23516000Y-7293000D02*
X23596000Y-7373000D01*
X23596000Y-7293000D02*
X23516000Y-7373000D01*
X23516000Y-9452000D02*
X23596000Y-9532000D01*
X23596000Y-9452000D02*
X23516000Y-9532000D01*
X23516000Y-10468000D02*
X23596000Y-10548000D01*
X23596000Y-10468000D02*
X23516000Y-10548000D01*
X23516000Y-11103000D02*
X23596000Y-11183000D01*
X23596000Y-11103000D02*
X23516000Y-11183000D01*
X23516000Y-12119000D02*
X23596000Y-12199000D01*
X23596000Y-12119000D02*
X23516000Y-12199000D01*
X23770000Y-5261000D02*
X23850000Y-5341000D01*
X23850000Y-5261000D02*
X23770000Y-5341000D01*
X23770000Y-5761000D02*
X23850000Y-5841000D01*
X23850000Y-5761000D02*
X23770000Y-5841000D01*
X23897000Y-11103000D02*
X23977000Y-11183000D01*
X23977000Y-11103000D02*
X23897000Y-11183000D01*
X23897000Y-12119000D02*
X23977000Y-12199000D01*
X23977000Y-12119000D02*
X23897000Y-12199000D01*
D13*
X23474000Y-7841000D02*
G75*
G03*
X23474000Y-7841000I-45000J0D01*
G01*
X23474000Y-8095000D02*
G75*
G03*
X23474000Y-8095000I-45000J0D01*
G01*
X23474000Y-8603000D02*
G75*
G03*
X23474000Y-8603000I-45000J0D01*
G01*
X23474000Y-8857000D02*
G75*
G03*
X23474000Y-8857000I-45000J0D01*
G01*
D10*
X16952000Y-6394000D02*
X16952000Y-6494000D01*
X16902000Y-6444000D02*
X17002000Y-6444000D01*
X17206000Y-6394000D02*
X17206000Y-6494000D01*
X17156000Y-6444000D02*
X17256000Y-6444000D01*
X17460000Y-6394000D02*
X17460000Y-6494000D01*
X17410000Y-6444000D02*
X17510000Y-6444000D01*
X17968000Y-6394000D02*
X17968000Y-6494000D01*
X17918000Y-6444000D02*
X18018000Y-6444000D01*
X18222000Y-6394000D02*
X18222000Y-6494000D01*
X18172000Y-6444000D02*
X18272000Y-6444000D01*
X18476000Y-6394000D02*
X18476000Y-6494000D01*
X18426000Y-6444000D02*
X18526000Y-6444000D01*
X18730000Y-6394000D02*
X18730000Y-6494000D01*
X18680000Y-6444000D02*
X18780000Y-6444000D01*
X19365000Y-14649000D02*
X19365000Y-14749000D01*
X19315000Y-14699000D02*
X19415000Y-14699000D01*
X19619000Y-14649000D02*
X19619000Y-14749000D01*
X19569000Y-14699000D02*
X19669000Y-14699000D01*
X19873000Y-14649000D02*
X19873000Y-14749000D01*
X19823000Y-14699000D02*
X19923000Y-14699000D01*
X20127000Y-14649000D02*
X20127000Y-14749000D01*
X20077000Y-14699000D02*
X20177000Y-14699000D01*
X20381000Y-14649000D02*
X20381000Y-14749000D01*
X20331000Y-14699000D02*
X20431000Y-14699000D01*
X20635000Y-14649000D02*
X20635000Y-14749000D01*
X20585000Y-14699000D02*
X20685000Y-14699000D01*
X24445000Y-11093000D02*
X24445000Y-11193000D01*
X24395000Y-11143000D02*
X24495000Y-11143000D01*
X24445000Y-11347000D02*
X24445000Y-11447000D01*
X24395000Y-11397000D02*
X24495000Y-11397000D01*
X24445000Y-11601000D02*
X24445000Y-11701000D01*
X24395000Y-11651000D02*
X24495000Y-11651000D01*
X24445000Y-11855000D02*
X24445000Y-11955000D01*
X24395000Y-11905000D02*
X24495000Y-11905000D01*
X24445000Y-12109000D02*
X24445000Y-12209000D01*
X24395000Y-12159000D02*
X24495000Y-12159000D01*
X24699000Y-11093000D02*
X24699000Y-11193000D01*
X24649000Y-11143000D02*
X24749000Y-11143000D01*
X24699000Y-11347000D02*
X24699000Y-11447000D01*
X24649000Y-11397000D02*
X24749000Y-11397000D01*
X24699000Y-11601000D02*
X24699000Y-11701000D01*
X24649000Y-11651000D02*
X24749000Y-11651000D01*
X24699000Y-11855000D02*
X24699000Y-11955000D01*
X24649000Y-11905000D02*
X24749000Y-11905000D01*
X24699000Y-12109000D02*
X24699000Y-12209000D01*
X24649000Y-12159000D02*
X24749000Y-12159000D01*
D14*
X22959891Y-14102891D02*
X22959891Y-14025109D01*
X22882109Y-14025109D01*
X22882109Y-14102891D01*
X22959891Y-14102891D01*
X22959891Y-14356891D02*
X22959891Y-14279109D01*
X22882109Y-14279109D01*
X22882109Y-14356891D01*
X22959891Y-14356891D01*
X22959891Y-14610891D02*
X22959891Y-14533109D01*
X22882109Y-14533109D01*
X22882109Y-14610891D01*
X22959891Y-14610891D01*
D15*
X15555000Y-6885000D02*
X15615000Y-6825000D01*
X15555000Y-6765000D01*
X15495000Y-6825000D01*
X15555000Y-6885000D01*
X15555000Y-7266000D02*
X15615000Y-7206000D01*
X15555000Y-7146000D01*
X15495000Y-7206000D01*
X15555000Y-7266000D01*
X15555000Y-7647000D02*
X15615000Y-7587000D01*
X15555000Y-7527000D01*
X15495000Y-7587000D01*
X15555000Y-7647000D01*
X15555000Y-8028000D02*
X15615000Y-7968000D01*
X15555000Y-7908000D01*
X15495000Y-7968000D01*
X15555000Y-8028000D01*
X15555000Y-8409000D02*
X15615000Y-8349000D01*
X15555000Y-8289000D01*
X15495000Y-8349000D01*
X15555000Y-8409000D01*
X15555000Y-8790000D02*
X15615000Y-8730000D01*
X15555000Y-8670000D01*
X15495000Y-8730000D01*
X15555000Y-8790000D01*
X15555000Y-11330000D02*
X15615000Y-11270000D01*
X15555000Y-11210000D01*
X15495000Y-11270000D01*
X15555000Y-11330000D01*
X15555000Y-11711000D02*
X15615000Y-11651000D01*
X15555000Y-11591000D01*
X15495000Y-11651000D01*
X15555000Y-11711000D01*
X15555000Y-12092000D02*
X15615000Y-12032000D01*
X15555000Y-11972000D01*
X15495000Y-12032000D01*
X15555000Y-12092000D01*
X15555000Y-12473000D02*
X15615000Y-12413000D01*
X15555000Y-12353000D01*
X15495000Y-12413000D01*
X15555000Y-12473000D01*
X15555000Y-12854000D02*
X15615000Y-12794000D01*
X15555000Y-12734000D01*
X15495000Y-12794000D01*
X15555000Y-12854000D01*
X15555000Y-13235000D02*
X15615000Y-13175000D01*
X15555000Y-13115000D01*
X15495000Y-13175000D01*
X15555000Y-13235000D01*
X22667000Y-5361000D02*
X22727000Y-5301000D01*
X22667000Y-5241000D01*
X22607000Y-5301000D01*
X22667000Y-5361000D01*
X22921000Y-5361000D02*
X22981000Y-5301000D01*
X22921000Y-5241000D01*
X22861000Y-5301000D01*
X22921000Y-5361000D01*
X23175000Y-5361000D02*
X23235000Y-5301000D01*
X23175000Y-5241000D01*
X23115000Y-5301000D01*
X23175000Y-5361000D01*
X24445000Y-6885000D02*
X24505000Y-6825000D01*
X24445000Y-6765000D01*
X24385000Y-6825000D01*
X24445000Y-6885000D01*
X24445000Y-7266000D02*
X24505000Y-7206000D01*
X24445000Y-7146000D01*
X24385000Y-7206000D01*
X24445000Y-7266000D01*
X24445000Y-7647000D02*
X24505000Y-7587000D01*
X24445000Y-7527000D01*
X24385000Y-7587000D01*
X24445000Y-7647000D01*
X24445000Y-8028000D02*
X24505000Y-7968000D01*
X24445000Y-7908000D01*
X24385000Y-7968000D01*
X24445000Y-8028000D01*
X24445000Y-8409000D02*
X24505000Y-8349000D01*
X24445000Y-8289000D01*
X24385000Y-8349000D01*
X24445000Y-8409000D01*
X24445000Y-8790000D02*
X24505000Y-8730000D01*
X24445000Y-8670000D01*
X24385000Y-8730000D01*
X24445000Y-8790000D01*
D16*
X16252000Y-5490000D02*
X16382000Y-5620000D01*
X16382000Y-5490000D02*
X16252000Y-5620000D01*
X16382000Y-5555000D02*
G75*
G03*
X16382000Y-5555000I-65000J0D01*
G01*
X16252000Y-12729000D02*
X16382000Y-12859000D01*
X16382000Y-12729000D02*
X16252000Y-12859000D01*
X16382000Y-12794000D02*
G75*
G03*
X16382000Y-12794000I-65000J0D01*
G01*
X16252000Y-14380000D02*
X16382000Y-14510000D01*
X16382000Y-14380000D02*
X16252000Y-14510000D01*
X16382000Y-14445000D02*
G75*
G03*
X16382000Y-14445000I-65000J0D01*
G01*
X17014000Y-12729000D02*
X17144000Y-12859000D01*
X17144000Y-12729000D02*
X17014000Y-12859000D01*
X17144000Y-12794000D02*
G75*
G03*
X17144000Y-12794000I-65000J0D01*
G01*
X18030000Y-12729000D02*
X18160000Y-12859000D01*
X18160000Y-12729000D02*
X18030000Y-12859000D01*
X18160000Y-12794000D02*
G75*
G03*
X18160000Y-12794000I-65000J0D01*
G01*
X18030000Y-13491000D02*
X18160000Y-13621000D01*
X18160000Y-13491000D02*
X18030000Y-13621000D01*
X18160000Y-13556000D02*
G75*
G03*
X18160000Y-13556000I-65000J0D01*
G01*
X18502000Y-5490000D02*
X18632000Y-5620000D01*
X18632000Y-5490000D02*
X18502000Y-5620000D01*
X18632000Y-5555000D02*
G75*
G03*
X18632000Y-5555000I-65000J0D01*
G01*
X18502000Y-14380000D02*
X18632000Y-14510000D01*
X18632000Y-14380000D02*
X18502000Y-14510000D01*
X18632000Y-14445000D02*
G75*
G03*
X18632000Y-14445000I-65000J0D01*
G01*
X21142584Y-5490771D02*
X21272584Y-5620771D01*
X21272584Y-5490771D02*
X21142584Y-5620771D01*
X21272584Y-5555771D02*
G75*
G03*
X21272584Y-5555771I-65000J0D01*
G01*
X21492584Y-5490771D02*
X21622584Y-5620771D01*
X21622584Y-5490771D02*
X21492584Y-5620771D01*
X21622584Y-5555771D02*
G75*
G03*
X21622584Y-5555771I-65000J0D01*
G01*
D17*
X18904000Y-5475000D02*
X19064000Y-5635000D01*
X19064000Y-5475000D02*
X18904000Y-5635000D01*
X18984000Y-5475000D02*
X18984000Y-5635000D01*
X18904000Y-5555000D02*
X19064000Y-5555000D01*
X20174000Y-5475000D02*
X20334000Y-5635000D01*
X20334000Y-5475000D02*
X20174000Y-5635000D01*
X20254000Y-5475000D02*
X20254000Y-5635000D01*
X20174000Y-5555000D02*
X20334000Y-5555000D01*
D18*
X15340000Y-5340000D02*
X15660000Y-5660000D01*
X15660000Y-5340000D02*
X15340000Y-5660000D01*
X15613138Y-5613138D02*
X15613138Y-5386862D01*
X15386862Y-5386862D01*
X15386862Y-5613138D01*
X15613138Y-5613138D01*
X15340000Y-9840000D02*
X15660000Y-10160000D01*
X15660000Y-9840000D02*
X15340000Y-10160000D01*
X15613138Y-10113138D02*
X15613138Y-9886862D01*
X15386862Y-9886862D01*
X15386862Y-10113138D01*
X15613138Y-10113138D01*
X15340000Y-14340000D02*
X15660000Y-14660000D01*
X15660000Y-14340000D02*
X15340000Y-14660000D01*
X15613138Y-14613138D02*
X15613138Y-14386862D01*
X15386862Y-14386862D01*
X15386862Y-14613138D01*
X15613138Y-14613138D01*
X24340000Y-5340000D02*
X24660000Y-5660000D01*
X24660000Y-5340000D02*
X24340000Y-5660000D01*
X24613138Y-5613138D02*
X24613138Y-5386862D01*
X24386862Y-5386862D01*
X24386862Y-5613138D01*
X24613138Y-5613138D01*
X24340000Y-9840000D02*
X24660000Y-10160000D01*
X24660000Y-9840000D02*
X24340000Y-10160000D01*
X24613138Y-10113138D02*
X24613138Y-9886862D01*
X24386862Y-9886862D01*
X24386862Y-10113138D01*
X24613138Y-10113138D01*
X24340000Y-14340000D02*
X24660000Y-14660000D01*
X24660000Y-14340000D02*
X24340000Y-14660000D01*
X24613138Y-14613138D02*
X24613138Y-14386862D01*
X24386862Y-14386862D01*
X24386862Y-14613138D01*
X24613138Y-14613138D01*
D11*
X15255777Y-15316484D02*
X15255777Y-15116484D01*
X15255777Y-15116484D02*
X15303396Y-15116484D01*
X15303396Y-15116484D02*
X15331967Y-15126008D01*
X15331967Y-15126008D02*
X15351015Y-15145055D01*
X15351015Y-15145055D02*
X15360539Y-15164103D01*
X15360539Y-15164103D02*
X15370062Y-15202198D01*
X15370062Y-15202198D02*
X15370062Y-15230769D01*
X15370062Y-15230769D02*
X15360539Y-15268865D01*
X15360539Y-15268865D02*
X15351015Y-15287912D01*
X15351015Y-15287912D02*
X15331967Y-15306960D01*
X15331967Y-15306960D02*
X15303396Y-15316484D01*
X15303396Y-15316484D02*
X15255777Y-15316484D01*
X15455777Y-15316484D02*
X15455777Y-15183150D01*
X15455777Y-15221246D02*
X15465301Y-15202198D01*
X15465301Y-15202198D02*
X15474824Y-15192674D01*
X15474824Y-15192674D02*
X15493872Y-15183150D01*
X15493872Y-15183150D02*
X15512920Y-15183150D01*
X15579586Y-15316484D02*
X15579586Y-15183150D01*
X15579586Y-15116484D02*
X15570062Y-15126008D01*
X15570062Y-15126008D02*
X15579586Y-15135531D01*
X15579586Y-15135531D02*
X15589110Y-15126008D01*
X15589110Y-15126008D02*
X15579586Y-15116484D01*
X15579586Y-15116484D02*
X15579586Y-15135531D01*
X15703396Y-15316484D02*
X15684348Y-15306960D01*
X15684348Y-15306960D02*
X15674824Y-15287912D01*
X15674824Y-15287912D02*
X15674824Y-15116484D01*
X15808158Y-15316484D02*
X15789110Y-15306960D01*
X15789110Y-15306960D02*
X15779586Y-15287912D01*
X15779586Y-15287912D02*
X15779586Y-15116484D01*
X16036729Y-15316484D02*
X16036729Y-15116484D01*
X16036729Y-15116484D02*
X16103396Y-15259341D01*
X16103396Y-15259341D02*
X16170062Y-15116484D01*
X16170062Y-15116484D02*
X16170062Y-15316484D01*
X16351015Y-15316484D02*
X16351015Y-15211722D01*
X16351015Y-15211722D02*
X16341491Y-15192674D01*
X16341491Y-15192674D02*
X16322443Y-15183150D01*
X16322443Y-15183150D02*
X16284348Y-15183150D01*
X16284348Y-15183150D02*
X16265301Y-15192674D01*
X16351015Y-15306960D02*
X16331967Y-15316484D01*
X16331967Y-15316484D02*
X16284348Y-15316484D01*
X16284348Y-15316484D02*
X16265301Y-15306960D01*
X16265301Y-15306960D02*
X16255777Y-15287912D01*
X16255777Y-15287912D02*
X16255777Y-15268865D01*
X16255777Y-15268865D02*
X16265301Y-15249817D01*
X16265301Y-15249817D02*
X16284348Y-15240293D01*
X16284348Y-15240293D02*
X16331967Y-15240293D01*
X16331967Y-15240293D02*
X16351015Y-15230769D01*
X16446253Y-15183150D02*
X16446253Y-15383150D01*
X16446253Y-15192674D02*
X16465301Y-15183150D01*
X16465301Y-15183150D02*
X16503396Y-15183150D01*
X16503396Y-15183150D02*
X16522443Y-15192674D01*
X16522443Y-15192674D02*
X16531967Y-15202198D01*
X16531967Y-15202198D02*
X16541491Y-15221246D01*
X16541491Y-15221246D02*
X16541491Y-15278388D01*
X16541491Y-15278388D02*
X16531967Y-15297436D01*
X16531967Y-15297436D02*
X16522443Y-15306960D01*
X16522443Y-15306960D02*
X16503396Y-15316484D01*
X16503396Y-15316484D02*
X16465301Y-15316484D01*
X16465301Y-15316484D02*
X16446253Y-15306960D01*
X16627205Y-15297436D02*
X16636729Y-15306960D01*
X16636729Y-15306960D02*
X16627205Y-15316484D01*
X16627205Y-15316484D02*
X16617682Y-15306960D01*
X16617682Y-15306960D02*
X16627205Y-15297436D01*
X16627205Y-15297436D02*
X16627205Y-15316484D01*
X16627205Y-15192674D02*
X16636729Y-15202198D01*
X16636729Y-15202198D02*
X16627205Y-15211722D01*
X16627205Y-15211722D02*
X16617682Y-15202198D01*
X16617682Y-15202198D02*
X16627205Y-15192674D01*
X16627205Y-15192674D02*
X16627205Y-15211722D01*
D12*
X14915000Y-15605000D02*
X14995000Y-15685000D01*
X14995000Y-15605000D02*
X14915000Y-15685000D01*
D11*
X15293872Y-15536484D02*
X15312920Y-15536484D01*
X15312920Y-15536484D02*
X15331967Y-15546008D01*
X15331967Y-15546008D02*
X15341491Y-15555531D01*
X15341491Y-15555531D02*
X15351015Y-15574579D01*
X15351015Y-15574579D02*
X15360539Y-15612674D01*
X15360539Y-15612674D02*
X15360539Y-15660293D01*
X15360539Y-15660293D02*
X15351015Y-15698388D01*
X15351015Y-15698388D02*
X15341491Y-15717436D01*
X15341491Y-15717436D02*
X15331967Y-15726960D01*
X15331967Y-15726960D02*
X15312920Y-15736484D01*
X15312920Y-15736484D02*
X15293872Y-15736484D01*
X15293872Y-15736484D02*
X15274824Y-15726960D01*
X15274824Y-15726960D02*
X15265301Y-15717436D01*
X15265301Y-15717436D02*
X15255777Y-15698388D01*
X15255777Y-15698388D02*
X15246253Y-15660293D01*
X15246253Y-15660293D02*
X15246253Y-15612674D01*
X15246253Y-15612674D02*
X15255777Y-15574579D01*
X15255777Y-15574579D02*
X15265301Y-15555531D01*
X15265301Y-15555531D02*
X15274824Y-15546008D01*
X15274824Y-15546008D02*
X15293872Y-15536484D01*
X15446253Y-15717436D02*
X15455777Y-15726960D01*
X15455777Y-15726960D02*
X15446253Y-15736484D01*
X15446253Y-15736484D02*
X15436729Y-15726960D01*
X15436729Y-15726960D02*
X15446253Y-15717436D01*
X15446253Y-15717436D02*
X15446253Y-15736484D01*
X15570062Y-15622198D02*
X15551015Y-15612674D01*
X15551015Y-15612674D02*
X15541491Y-15603150D01*
X15541491Y-15603150D02*
X15531967Y-15584103D01*
X15531967Y-15584103D02*
X15531967Y-15574579D01*
X15531967Y-15574579D02*
X15541491Y-15555531D01*
X15541491Y-15555531D02*
X15551015Y-15546008D01*
X15551015Y-15546008D02*
X15570062Y-15536484D01*
X15570062Y-15536484D02*
X15608158Y-15536484D01*
X15608158Y-15536484D02*
X15627205Y-15546008D01*
X15627205Y-15546008D02*
X15636729Y-15555531D01*
X15636729Y-15555531D02*
X15646253Y-15574579D01*
X15646253Y-15574579D02*
X15646253Y-15584103D01*
X15646253Y-15584103D02*
X15636729Y-15603150D01*
X15636729Y-15603150D02*
X15627205Y-15612674D01*
X15627205Y-15612674D02*
X15608158Y-15622198D01*
X15608158Y-15622198D02*
X15570062Y-15622198D01*
X15570062Y-15622198D02*
X15551015Y-15631722D01*
X15551015Y-15631722D02*
X15541491Y-15641246D01*
X15541491Y-15641246D02*
X15531967Y-15660293D01*
X15531967Y-15660293D02*
X15531967Y-15698388D01*
X15531967Y-15698388D02*
X15541491Y-15717436D01*
X15541491Y-15717436D02*
X15551015Y-15726960D01*
X15551015Y-15726960D02*
X15570062Y-15736484D01*
X15570062Y-15736484D02*
X15608158Y-15736484D01*
X15608158Y-15736484D02*
X15627205Y-15726960D01*
X15627205Y-15726960D02*
X15636729Y-15717436D01*
X15636729Y-15717436D02*
X15646253Y-15698388D01*
X15646253Y-15698388D02*
X15646253Y-15660293D01*
X15646253Y-15660293D02*
X15636729Y-15641246D01*
X15636729Y-15641246D02*
X15627205Y-15631722D01*
X15627205Y-15631722D02*
X15608158Y-15622198D01*
X15770062Y-15536484D02*
X15789110Y-15536484D01*
X15789110Y-15536484D02*
X15808158Y-15546008D01*
X15808158Y-15546008D02*
X15817682Y-15555531D01*
X15817682Y-15555531D02*
X15827205Y-15574579D01*
X15827205Y-15574579D02*
X15836729Y-15612674D01*
X15836729Y-15612674D02*
X15836729Y-15660293D01*
X15836729Y-15660293D02*
X15827205Y-15698388D01*
X15827205Y-15698388D02*
X15817682Y-15717436D01*
X15817682Y-15717436D02*
X15808158Y-15726960D01*
X15808158Y-15726960D02*
X15789110Y-15736484D01*
X15789110Y-15736484D02*
X15770062Y-15736484D01*
X15770062Y-15736484D02*
X15751015Y-15726960D01*
X15751015Y-15726960D02*
X15741491Y-15717436D01*
X15741491Y-15717436D02*
X15731967Y-15698388D01*
X15731967Y-15698388D02*
X15722443Y-15660293D01*
X15722443Y-15660293D02*
X15722443Y-15612674D01*
X15722443Y-15612674D02*
X15731967Y-15574579D01*
X15731967Y-15574579D02*
X15741491Y-15555531D01*
X15741491Y-15555531D02*
X15751015Y-15546008D01*
X15751015Y-15546008D02*
X15770062Y-15536484D01*
X15960539Y-15536484D02*
X15979586Y-15536484D01*
X15979586Y-15536484D02*
X15998634Y-15546008D01*
X15998634Y-15546008D02*
X16008158Y-15555531D01*
X16008158Y-15555531D02*
X16017682Y-15574579D01*
X16017682Y-15574579D02*
X16027205Y-15612674D01*
X16027205Y-15612674D02*
X16027205Y-15660293D01*
X16027205Y-15660293D02*
X16017682Y-15698388D01*
X16017682Y-15698388D02*
X16008158Y-15717436D01*
X16008158Y-15717436D02*
X15998634Y-15726960D01*
X15998634Y-15726960D02*
X15979586Y-15736484D01*
X15979586Y-15736484D02*
X15960539Y-15736484D01*
X15960539Y-15736484D02*
X15941491Y-15726960D01*
X15941491Y-15726960D02*
X15931967Y-15717436D01*
X15931967Y-15717436D02*
X15922443Y-15698388D01*
X15922443Y-15698388D02*
X15912920Y-15660293D01*
X15912920Y-15660293D02*
X15912920Y-15612674D01*
X15912920Y-15612674D02*
X15922443Y-15574579D01*
X15922443Y-15574579D02*
X15931967Y-15555531D01*
X15931967Y-15555531D02*
X15941491Y-15546008D01*
X15941491Y-15546008D02*
X15960539Y-15536484D01*
X16112920Y-15736484D02*
X16112920Y-15603150D01*
X16112920Y-15622198D02*
X16122443Y-15612674D01*
X16122443Y-15612674D02*
X16141491Y-15603150D01*
X16141491Y-15603150D02*
X16170063Y-15603150D01*
X16170063Y-15603150D02*
X16189110Y-15612674D01*
X16189110Y-15612674D02*
X16198634Y-15631722D01*
X16198634Y-15631722D02*
X16198634Y-15736484D01*
X16198634Y-15631722D02*
X16208158Y-15612674D01*
X16208158Y-15612674D02*
X16227205Y-15603150D01*
X16227205Y-15603150D02*
X16255777Y-15603150D01*
X16255777Y-15603150D02*
X16274824Y-15612674D01*
X16274824Y-15612674D02*
X16284348Y-15631722D01*
X16284348Y-15631722D02*
X16284348Y-15736484D01*
X16379586Y-15736484D02*
X16379586Y-15603150D01*
X16379586Y-15622198D02*
X16389110Y-15612674D01*
X16389110Y-15612674D02*
X16408158Y-15603150D01*
X16408158Y-15603150D02*
X16436729Y-15603150D01*
X16436729Y-15603150D02*
X16455777Y-15612674D01*
X16455777Y-15612674D02*
X16465301Y-15631722D01*
X16465301Y-15631722D02*
X16465301Y-15736484D01*
X16465301Y-15631722D02*
X16474824Y-15612674D01*
X16474824Y-15612674D02*
X16493872Y-15603150D01*
X16493872Y-15603150D02*
X16522443Y-15603150D01*
X16522443Y-15603150D02*
X16541491Y-15612674D01*
X16541491Y-15612674D02*
X16551015Y-15631722D01*
X16551015Y-15631722D02*
X16551015Y-15736484D01*
X16941491Y-15526960D02*
X16770063Y-15784103D01*
X17198634Y-15536484D02*
X17217682Y-15536484D01*
X17217682Y-15536484D02*
X17236729Y-15546008D01*
X17236729Y-15546008D02*
X17246253Y-15555531D01*
X17246253Y-15555531D02*
X17255777Y-15574579D01*
X17255777Y-15574579D02*
X17265301Y-15612674D01*
X17265301Y-15612674D02*
X17265301Y-15660293D01*
X17265301Y-15660293D02*
X17255777Y-15698388D01*
X17255777Y-15698388D02*
X17246253Y-15717436D01*
X17246253Y-15717436D02*
X17236729Y-15726960D01*
X17236729Y-15726960D02*
X17217682Y-15736484D01*
X17217682Y-15736484D02*
X17198634Y-15736484D01*
X17198634Y-15736484D02*
X17179587Y-15726960D01*
X17179587Y-15726960D02*
X17170063Y-15717436D01*
X17170063Y-15717436D02*
X17160539Y-15698388D01*
X17160539Y-15698388D02*
X17151015Y-15660293D01*
X17151015Y-15660293D02*
X17151015Y-15612674D01*
X17151015Y-15612674D02*
X17160539Y-15574579D01*
X17160539Y-15574579D02*
X17170063Y-15555531D01*
X17170063Y-15555531D02*
X17179587Y-15546008D01*
X17179587Y-15546008D02*
X17198634Y-15536484D01*
X17351015Y-15717436D02*
X17360539Y-15726960D01*
X17360539Y-15726960D02*
X17351015Y-15736484D01*
X17351015Y-15736484D02*
X17341491Y-15726960D01*
X17341491Y-15726960D02*
X17351015Y-15717436D01*
X17351015Y-15717436D02*
X17351015Y-15736484D01*
X17484348Y-15536484D02*
X17503396Y-15536484D01*
X17503396Y-15536484D02*
X17522444Y-15546008D01*
X17522444Y-15546008D02*
X17531968Y-15555531D01*
X17531968Y-15555531D02*
X17541491Y-15574579D01*
X17541491Y-15574579D02*
X17551015Y-15612674D01*
X17551015Y-15612674D02*
X17551015Y-15660293D01*
X17551015Y-15660293D02*
X17541491Y-15698388D01*
X17541491Y-15698388D02*
X17531968Y-15717436D01*
X17531968Y-15717436D02*
X17522444Y-15726960D01*
X17522444Y-15726960D02*
X17503396Y-15736484D01*
X17503396Y-15736484D02*
X17484348Y-15736484D01*
X17484348Y-15736484D02*
X17465301Y-15726960D01*
X17465301Y-15726960D02*
X17455777Y-15717436D01*
X17455777Y-15717436D02*
X17446253Y-15698388D01*
X17446253Y-15698388D02*
X17436729Y-15660293D01*
X17436729Y-15660293D02*
X17436729Y-15612674D01*
X17436729Y-15612674D02*
X17446253Y-15574579D01*
X17446253Y-15574579D02*
X17455777Y-15555531D01*
X17455777Y-15555531D02*
X17465301Y-15546008D01*
X17465301Y-15546008D02*
X17484348Y-15536484D01*
X17617682Y-15536484D02*
X17741491Y-15536484D01*
X17741491Y-15536484D02*
X17674825Y-15612674D01*
X17674825Y-15612674D02*
X17703396Y-15612674D01*
X17703396Y-15612674D02*
X17722444Y-15622198D01*
X17722444Y-15622198D02*
X17731968Y-15631722D01*
X17731968Y-15631722D02*
X17741491Y-15650769D01*
X17741491Y-15650769D02*
X17741491Y-15698388D01*
X17741491Y-15698388D02*
X17731968Y-15717436D01*
X17731968Y-15717436D02*
X17722444Y-15726960D01*
X17722444Y-15726960D02*
X17703396Y-15736484D01*
X17703396Y-15736484D02*
X17646253Y-15736484D01*
X17646253Y-15736484D02*
X17627206Y-15726960D01*
X17627206Y-15726960D02*
X17617682Y-15717436D01*
X17931968Y-15736484D02*
X17817682Y-15736484D01*
X17874825Y-15736484D02*
X17874825Y-15536484D01*
X17874825Y-15536484D02*
X17855777Y-15565055D01*
X17855777Y-15565055D02*
X17836729Y-15584103D01*
X17836729Y-15584103D02*
X17817682Y-15593627D01*
X18112920Y-15536484D02*
X18017682Y-15536484D01*
X18017682Y-15536484D02*
X18008158Y-15631722D01*
X18008158Y-15631722D02*
X18017682Y-15622198D01*
X18017682Y-15622198D02*
X18036729Y-15612674D01*
X18036729Y-15612674D02*
X18084349Y-15612674D01*
X18084349Y-15612674D02*
X18103396Y-15622198D01*
X18103396Y-15622198D02*
X18112920Y-15631722D01*
X18112920Y-15631722D02*
X18122444Y-15650769D01*
X18122444Y-15650769D02*
X18122444Y-15698388D01*
X18122444Y-15698388D02*
X18112920Y-15717436D01*
X18112920Y-15717436D02*
X18103396Y-15726960D01*
X18103396Y-15726960D02*
X18084349Y-15736484D01*
X18084349Y-15736484D02*
X18036729Y-15736484D01*
X18036729Y-15736484D02*
X18017682Y-15726960D01*
X18017682Y-15726960D02*
X18008158Y-15717436D01*
X18198634Y-15536484D02*
X18198634Y-15574579D01*
X18274825Y-15536484D02*
X18274825Y-15574579D01*
X18570063Y-15812674D02*
X18560539Y-15803150D01*
X18560539Y-15803150D02*
X18541491Y-15774579D01*
X18541491Y-15774579D02*
X18531968Y-15755531D01*
X18531968Y-15755531D02*
X18522444Y-15726960D01*
X18522444Y-15726960D02*
X18512920Y-15679341D01*
X18512920Y-15679341D02*
X18512920Y-15641246D01*
X18512920Y-15641246D02*
X18522444Y-15593627D01*
X18522444Y-15593627D02*
X18531968Y-15565055D01*
X18531968Y-15565055D02*
X18541491Y-15546008D01*
X18541491Y-15546008D02*
X18560539Y-15517436D01*
X18560539Y-15517436D02*
X18570063Y-15507912D01*
X18636730Y-15555531D02*
X18646253Y-15546008D01*
X18646253Y-15546008D02*
X18665301Y-15536484D01*
X18665301Y-15536484D02*
X18712920Y-15536484D01*
X18712920Y-15536484D02*
X18731968Y-15546008D01*
X18731968Y-15546008D02*
X18741491Y-15555531D01*
X18741491Y-15555531D02*
X18751015Y-15574579D01*
X18751015Y-15574579D02*
X18751015Y-15593627D01*
X18751015Y-15593627D02*
X18741491Y-15622198D01*
X18741491Y-15622198D02*
X18627206Y-15736484D01*
X18627206Y-15736484D02*
X18751015Y-15736484D01*
X18874825Y-15536484D02*
X18893872Y-15536484D01*
X18893872Y-15536484D02*
X18912920Y-15546008D01*
X18912920Y-15546008D02*
X18922444Y-15555531D01*
X18922444Y-15555531D02*
X18931968Y-15574579D01*
X18931968Y-15574579D02*
X18941491Y-15612674D01*
X18941491Y-15612674D02*
X18941491Y-15660293D01*
X18941491Y-15660293D02*
X18931968Y-15698388D01*
X18931968Y-15698388D02*
X18922444Y-15717436D01*
X18922444Y-15717436D02*
X18912920Y-15726960D01*
X18912920Y-15726960D02*
X18893872Y-15736484D01*
X18893872Y-15736484D02*
X18874825Y-15736484D01*
X18874825Y-15736484D02*
X18855777Y-15726960D01*
X18855777Y-15726960D02*
X18846253Y-15717436D01*
X18846253Y-15717436D02*
X18836730Y-15698388D01*
X18836730Y-15698388D02*
X18827206Y-15660293D01*
X18827206Y-15660293D02*
X18827206Y-15612674D01*
X18827206Y-15612674D02*
X18836730Y-15574579D01*
X18836730Y-15574579D02*
X18846253Y-15555531D01*
X18846253Y-15555531D02*
X18855777Y-15546008D01*
X18855777Y-15546008D02*
X18874825Y-15536484D01*
X19055777Y-15622198D02*
X19036730Y-15612674D01*
X19036730Y-15612674D02*
X19027206Y-15603150D01*
X19027206Y-15603150D02*
X19017682Y-15584103D01*
X19017682Y-15584103D02*
X19017682Y-15574579D01*
X19017682Y-15574579D02*
X19027206Y-15555531D01*
X19027206Y-15555531D02*
X19036730Y-15546008D01*
X19036730Y-15546008D02*
X19055777Y-15536484D01*
X19055777Y-15536484D02*
X19093872Y-15536484D01*
X19093872Y-15536484D02*
X19112920Y-15546008D01*
X19112920Y-15546008D02*
X19122444Y-15555531D01*
X19122444Y-15555531D02*
X19131968Y-15574579D01*
X19131968Y-15574579D02*
X19131968Y-15584103D01*
X19131968Y-15584103D02*
X19122444Y-15603150D01*
X19122444Y-15603150D02*
X19112920Y-15612674D01*
X19112920Y-15612674D02*
X19093872Y-15622198D01*
X19093872Y-15622198D02*
X19055777Y-15622198D01*
X19055777Y-15622198D02*
X19036730Y-15631722D01*
X19036730Y-15631722D02*
X19027206Y-15641246D01*
X19027206Y-15641246D02*
X19017682Y-15660293D01*
X19017682Y-15660293D02*
X19017682Y-15698388D01*
X19017682Y-15698388D02*
X19027206Y-15717436D01*
X19027206Y-15717436D02*
X19036730Y-15726960D01*
X19036730Y-15726960D02*
X19055777Y-15736484D01*
X19055777Y-15736484D02*
X19093872Y-15736484D01*
X19093872Y-15736484D02*
X19112920Y-15726960D01*
X19112920Y-15726960D02*
X19122444Y-15717436D01*
X19122444Y-15717436D02*
X19131968Y-15698388D01*
X19131968Y-15698388D02*
X19131968Y-15660293D01*
X19131968Y-15660293D02*
X19122444Y-15641246D01*
X19122444Y-15641246D02*
X19112920Y-15631722D01*
X19112920Y-15631722D02*
X19093872Y-15622198D01*
X19370063Y-15736484D02*
X19370063Y-15536484D01*
X19455777Y-15736484D02*
X19455777Y-15631722D01*
X19455777Y-15631722D02*
X19446253Y-15612674D01*
X19446253Y-15612674D02*
X19427206Y-15603150D01*
X19427206Y-15603150D02*
X19398634Y-15603150D01*
X19398634Y-15603150D02*
X19379587Y-15612674D01*
X19379587Y-15612674D02*
X19370063Y-15622198D01*
X19579587Y-15736484D02*
X19560539Y-15726960D01*
X19560539Y-15726960D02*
X19551015Y-15717436D01*
X19551015Y-15717436D02*
X19541492Y-15698388D01*
X19541492Y-15698388D02*
X19541492Y-15641246D01*
X19541492Y-15641246D02*
X19551015Y-15622198D01*
X19551015Y-15622198D02*
X19560539Y-15612674D01*
X19560539Y-15612674D02*
X19579587Y-15603150D01*
X19579587Y-15603150D02*
X19608158Y-15603150D01*
X19608158Y-15603150D02*
X19627206Y-15612674D01*
X19627206Y-15612674D02*
X19636730Y-15622198D01*
X19636730Y-15622198D02*
X19646253Y-15641246D01*
X19646253Y-15641246D02*
X19646253Y-15698388D01*
X19646253Y-15698388D02*
X19636730Y-15717436D01*
X19636730Y-15717436D02*
X19627206Y-15726960D01*
X19627206Y-15726960D02*
X19608158Y-15736484D01*
X19608158Y-15736484D02*
X19579587Y-15736484D01*
X19760539Y-15736484D02*
X19741492Y-15726960D01*
X19741492Y-15726960D02*
X19731968Y-15707912D01*
X19731968Y-15707912D02*
X19731968Y-15536484D01*
X19912920Y-15726960D02*
X19893873Y-15736484D01*
X19893873Y-15736484D02*
X19855777Y-15736484D01*
X19855777Y-15736484D02*
X19836730Y-15726960D01*
X19836730Y-15726960D02*
X19827206Y-15707912D01*
X19827206Y-15707912D02*
X19827206Y-15631722D01*
X19827206Y-15631722D02*
X19836730Y-15612674D01*
X19836730Y-15612674D02*
X19855777Y-15603150D01*
X19855777Y-15603150D02*
X19893873Y-15603150D01*
X19893873Y-15603150D02*
X19912920Y-15612674D01*
X19912920Y-15612674D02*
X19922444Y-15631722D01*
X19922444Y-15631722D02*
X19922444Y-15650769D01*
X19922444Y-15650769D02*
X19827206Y-15669817D01*
X19998634Y-15726960D02*
X20017682Y-15736484D01*
X20017682Y-15736484D02*
X20055777Y-15736484D01*
X20055777Y-15736484D02*
X20074825Y-15726960D01*
X20074825Y-15726960D02*
X20084349Y-15707912D01*
X20084349Y-15707912D02*
X20084349Y-15698388D01*
X20084349Y-15698388D02*
X20074825Y-15679341D01*
X20074825Y-15679341D02*
X20055777Y-15669817D01*
X20055777Y-15669817D02*
X20027206Y-15669817D01*
X20027206Y-15669817D02*
X20008158Y-15660293D01*
X20008158Y-15660293D02*
X19998634Y-15641246D01*
X19998634Y-15641246D02*
X19998634Y-15631722D01*
X19998634Y-15631722D02*
X20008158Y-15612674D01*
X20008158Y-15612674D02*
X20027206Y-15603150D01*
X20027206Y-15603150D02*
X20055777Y-15603150D01*
X20055777Y-15603150D02*
X20074825Y-15612674D01*
X20151015Y-15812674D02*
X20160539Y-15803150D01*
X20160539Y-15803150D02*
X20179587Y-15774579D01*
X20179587Y-15774579D02*
X20189111Y-15755531D01*
X20189111Y-15755531D02*
X20198634Y-15726960D01*
X20198634Y-15726960D02*
X20208158Y-15679341D01*
X20208158Y-15679341D02*
X20208158Y-15641246D01*
X20208158Y-15641246D02*
X20198634Y-15593627D01*
X20198634Y-15593627D02*
X20189111Y-15565055D01*
X20189111Y-15565055D02*
X20179587Y-15546008D01*
X20179587Y-15546008D02*
X20160539Y-15517436D01*
X20160539Y-15517436D02*
X20151015Y-15507912D01*
D13*
X14995000Y-15909000D02*
G75*
G03*
X14995000Y-15909000I-45000J0D01*
G01*
D11*
X15293872Y-15800484D02*
X15312920Y-15800484D01*
X15312920Y-15800484D02*
X15331967Y-15810008D01*
X15331967Y-15810008D02*
X15341491Y-15819531D01*
X15341491Y-15819531D02*
X15351015Y-15838579D01*
X15351015Y-15838579D02*
X15360539Y-15876674D01*
X15360539Y-15876674D02*
X15360539Y-15924293D01*
X15360539Y-15924293D02*
X15351015Y-15962388D01*
X15351015Y-15962388D02*
X15341491Y-15981436D01*
X15341491Y-15981436D02*
X15331967Y-15990960D01*
X15331967Y-15990960D02*
X15312920Y-16000484D01*
X15312920Y-16000484D02*
X15293872Y-16000484D01*
X15293872Y-16000484D02*
X15274824Y-15990960D01*
X15274824Y-15990960D02*
X15265301Y-15981436D01*
X15265301Y-15981436D02*
X15255777Y-15962388D01*
X15255777Y-15962388D02*
X15246253Y-15924293D01*
X15246253Y-15924293D02*
X15246253Y-15876674D01*
X15246253Y-15876674D02*
X15255777Y-15838579D01*
X15255777Y-15838579D02*
X15265301Y-15819531D01*
X15265301Y-15819531D02*
X15274824Y-15810008D01*
X15274824Y-15810008D02*
X15293872Y-15800484D01*
X15446253Y-15981436D02*
X15455777Y-15990960D01*
X15455777Y-15990960D02*
X15446253Y-16000484D01*
X15446253Y-16000484D02*
X15436729Y-15990960D01*
X15436729Y-15990960D02*
X15446253Y-15981436D01*
X15446253Y-15981436D02*
X15446253Y-16000484D01*
X15551015Y-16000484D02*
X15589110Y-16000484D01*
X15589110Y-16000484D02*
X15608158Y-15990960D01*
X15608158Y-15990960D02*
X15617682Y-15981436D01*
X15617682Y-15981436D02*
X15636729Y-15952865D01*
X15636729Y-15952865D02*
X15646253Y-15914769D01*
X15646253Y-15914769D02*
X15646253Y-15838579D01*
X15646253Y-15838579D02*
X15636729Y-15819531D01*
X15636729Y-15819531D02*
X15627205Y-15810008D01*
X15627205Y-15810008D02*
X15608158Y-15800484D01*
X15608158Y-15800484D02*
X15570062Y-15800484D01*
X15570062Y-15800484D02*
X15551015Y-15810008D01*
X15551015Y-15810008D02*
X15541491Y-15819531D01*
X15541491Y-15819531D02*
X15531967Y-15838579D01*
X15531967Y-15838579D02*
X15531967Y-15886198D01*
X15531967Y-15886198D02*
X15541491Y-15905246D01*
X15541491Y-15905246D02*
X15551015Y-15914769D01*
X15551015Y-15914769D02*
X15570062Y-15924293D01*
X15570062Y-15924293D02*
X15608158Y-15924293D01*
X15608158Y-15924293D02*
X15627205Y-15914769D01*
X15627205Y-15914769D02*
X15636729Y-15905246D01*
X15636729Y-15905246D02*
X15646253Y-15886198D01*
X15770062Y-15800484D02*
X15789110Y-15800484D01*
X15789110Y-15800484D02*
X15808158Y-15810008D01*
X15808158Y-15810008D02*
X15817682Y-15819531D01*
X15817682Y-15819531D02*
X15827205Y-15838579D01*
X15827205Y-15838579D02*
X15836729Y-15876674D01*
X15836729Y-15876674D02*
X15836729Y-15924293D01*
X15836729Y-15924293D02*
X15827205Y-15962388D01*
X15827205Y-15962388D02*
X15817682Y-15981436D01*
X15817682Y-15981436D02*
X15808158Y-15990960D01*
X15808158Y-15990960D02*
X15789110Y-16000484D01*
X15789110Y-16000484D02*
X15770062Y-16000484D01*
X15770062Y-16000484D02*
X15751015Y-15990960D01*
X15751015Y-15990960D02*
X15741491Y-15981436D01*
X15741491Y-15981436D02*
X15731967Y-15962388D01*
X15731967Y-15962388D02*
X15722443Y-15924293D01*
X15722443Y-15924293D02*
X15722443Y-15876674D01*
X15722443Y-15876674D02*
X15731967Y-15838579D01*
X15731967Y-15838579D02*
X15741491Y-15819531D01*
X15741491Y-15819531D02*
X15751015Y-15810008D01*
X15751015Y-15810008D02*
X15770062Y-15800484D01*
X15960539Y-15800484D02*
X15979586Y-15800484D01*
X15979586Y-15800484D02*
X15998634Y-15810008D01*
X15998634Y-15810008D02*
X16008158Y-15819531D01*
X16008158Y-15819531D02*
X16017682Y-15838579D01*
X16017682Y-15838579D02*
X16027205Y-15876674D01*
X16027205Y-15876674D02*
X16027205Y-15924293D01*
X16027205Y-15924293D02*
X16017682Y-15962388D01*
X16017682Y-15962388D02*
X16008158Y-15981436D01*
X16008158Y-15981436D02*
X15998634Y-15990960D01*
X15998634Y-15990960D02*
X15979586Y-16000484D01*
X15979586Y-16000484D02*
X15960539Y-16000484D01*
X15960539Y-16000484D02*
X15941491Y-15990960D01*
X15941491Y-15990960D02*
X15931967Y-15981436D01*
X15931967Y-15981436D02*
X15922443Y-15962388D01*
X15922443Y-15962388D02*
X15912920Y-15924293D01*
X15912920Y-15924293D02*
X15912920Y-15876674D01*
X15912920Y-15876674D02*
X15922443Y-15838579D01*
X15922443Y-15838579D02*
X15931967Y-15819531D01*
X15931967Y-15819531D02*
X15941491Y-15810008D01*
X15941491Y-15810008D02*
X15960539Y-15800484D01*
X16112920Y-16000484D02*
X16112920Y-15867150D01*
X16112920Y-15886198D02*
X16122443Y-15876674D01*
X16122443Y-15876674D02*
X16141491Y-15867150D01*
X16141491Y-15867150D02*
X16170063Y-15867150D01*
X16170063Y-15867150D02*
X16189110Y-15876674D01*
X16189110Y-15876674D02*
X16198634Y-15895722D01*
X16198634Y-15895722D02*
X16198634Y-16000484D01*
X16198634Y-15895722D02*
X16208158Y-15876674D01*
X16208158Y-15876674D02*
X16227205Y-15867150D01*
X16227205Y-15867150D02*
X16255777Y-15867150D01*
X16255777Y-15867150D02*
X16274824Y-15876674D01*
X16274824Y-15876674D02*
X16284348Y-15895722D01*
X16284348Y-15895722D02*
X16284348Y-16000484D01*
X16379586Y-16000484D02*
X16379586Y-15867150D01*
X16379586Y-15886198D02*
X16389110Y-15876674D01*
X16389110Y-15876674D02*
X16408158Y-15867150D01*
X16408158Y-15867150D02*
X16436729Y-15867150D01*
X16436729Y-15867150D02*
X16455777Y-15876674D01*
X16455777Y-15876674D02*
X16465301Y-15895722D01*
X16465301Y-15895722D02*
X16465301Y-16000484D01*
X16465301Y-15895722D02*
X16474824Y-15876674D01*
X16474824Y-15876674D02*
X16493872Y-15867150D01*
X16493872Y-15867150D02*
X16522443Y-15867150D01*
X16522443Y-15867150D02*
X16541491Y-15876674D01*
X16541491Y-15876674D02*
X16551015Y-15895722D01*
X16551015Y-15895722D02*
X16551015Y-16000484D01*
X16941491Y-15790960D02*
X16770063Y-16048103D01*
X17198634Y-15800484D02*
X17217682Y-15800484D01*
X17217682Y-15800484D02*
X17236729Y-15810008D01*
X17236729Y-15810008D02*
X17246253Y-15819531D01*
X17246253Y-15819531D02*
X17255777Y-15838579D01*
X17255777Y-15838579D02*
X17265301Y-15876674D01*
X17265301Y-15876674D02*
X17265301Y-15924293D01*
X17265301Y-15924293D02*
X17255777Y-15962388D01*
X17255777Y-15962388D02*
X17246253Y-15981436D01*
X17246253Y-15981436D02*
X17236729Y-15990960D01*
X17236729Y-15990960D02*
X17217682Y-16000484D01*
X17217682Y-16000484D02*
X17198634Y-16000484D01*
X17198634Y-16000484D02*
X17179587Y-15990960D01*
X17179587Y-15990960D02*
X17170063Y-15981436D01*
X17170063Y-15981436D02*
X17160539Y-15962388D01*
X17160539Y-15962388D02*
X17151015Y-15924293D01*
X17151015Y-15924293D02*
X17151015Y-15876674D01*
X17151015Y-15876674D02*
X17160539Y-15838579D01*
X17160539Y-15838579D02*
X17170063Y-15819531D01*
X17170063Y-15819531D02*
X17179587Y-15810008D01*
X17179587Y-15810008D02*
X17198634Y-15800484D01*
X17351015Y-15981436D02*
X17360539Y-15990960D01*
X17360539Y-15990960D02*
X17351015Y-16000484D01*
X17351015Y-16000484D02*
X17341491Y-15990960D01*
X17341491Y-15990960D02*
X17351015Y-15981436D01*
X17351015Y-15981436D02*
X17351015Y-16000484D01*
X17484348Y-15800484D02*
X17503396Y-15800484D01*
X17503396Y-15800484D02*
X17522444Y-15810008D01*
X17522444Y-15810008D02*
X17531968Y-15819531D01*
X17531968Y-15819531D02*
X17541491Y-15838579D01*
X17541491Y-15838579D02*
X17551015Y-15876674D01*
X17551015Y-15876674D02*
X17551015Y-15924293D01*
X17551015Y-15924293D02*
X17541491Y-15962388D01*
X17541491Y-15962388D02*
X17531968Y-15981436D01*
X17531968Y-15981436D02*
X17522444Y-15990960D01*
X17522444Y-15990960D02*
X17503396Y-16000484D01*
X17503396Y-16000484D02*
X17484348Y-16000484D01*
X17484348Y-16000484D02*
X17465301Y-15990960D01*
X17465301Y-15990960D02*
X17455777Y-15981436D01*
X17455777Y-15981436D02*
X17446253Y-15962388D01*
X17446253Y-15962388D02*
X17436729Y-15924293D01*
X17436729Y-15924293D02*
X17436729Y-15876674D01*
X17436729Y-15876674D02*
X17446253Y-15838579D01*
X17446253Y-15838579D02*
X17455777Y-15819531D01*
X17455777Y-15819531D02*
X17465301Y-15810008D01*
X17465301Y-15810008D02*
X17484348Y-15800484D01*
X17617682Y-15800484D02*
X17741491Y-15800484D01*
X17741491Y-15800484D02*
X17674825Y-15876674D01*
X17674825Y-15876674D02*
X17703396Y-15876674D01*
X17703396Y-15876674D02*
X17722444Y-15886198D01*
X17722444Y-15886198D02*
X17731968Y-15895722D01*
X17731968Y-15895722D02*
X17741491Y-15914769D01*
X17741491Y-15914769D02*
X17741491Y-15962388D01*
X17741491Y-15962388D02*
X17731968Y-15981436D01*
X17731968Y-15981436D02*
X17722444Y-15990960D01*
X17722444Y-15990960D02*
X17703396Y-16000484D01*
X17703396Y-16000484D02*
X17646253Y-16000484D01*
X17646253Y-16000484D02*
X17627206Y-15990960D01*
X17627206Y-15990960D02*
X17617682Y-15981436D01*
X17922444Y-15800484D02*
X17827206Y-15800484D01*
X17827206Y-15800484D02*
X17817682Y-15895722D01*
X17817682Y-15895722D02*
X17827206Y-15886198D01*
X17827206Y-15886198D02*
X17846253Y-15876674D01*
X17846253Y-15876674D02*
X17893872Y-15876674D01*
X17893872Y-15876674D02*
X17912920Y-15886198D01*
X17912920Y-15886198D02*
X17922444Y-15895722D01*
X17922444Y-15895722D02*
X17931968Y-15914769D01*
X17931968Y-15914769D02*
X17931968Y-15962388D01*
X17931968Y-15962388D02*
X17922444Y-15981436D01*
X17922444Y-15981436D02*
X17912920Y-15990960D01*
X17912920Y-15990960D02*
X17893872Y-16000484D01*
X17893872Y-16000484D02*
X17846253Y-16000484D01*
X17846253Y-16000484D02*
X17827206Y-15990960D01*
X17827206Y-15990960D02*
X17817682Y-15981436D01*
X18103396Y-15867150D02*
X18103396Y-16000484D01*
X18055777Y-15790960D02*
X18008158Y-15933817D01*
X18008158Y-15933817D02*
X18131968Y-15933817D01*
X18198634Y-15800484D02*
X18198634Y-15838579D01*
X18274825Y-15800484D02*
X18274825Y-15838579D01*
X18570063Y-16076674D02*
X18560539Y-16067150D01*
X18560539Y-16067150D02*
X18541491Y-16038579D01*
X18541491Y-16038579D02*
X18531968Y-16019531D01*
X18531968Y-16019531D02*
X18522444Y-15990960D01*
X18522444Y-15990960D02*
X18512920Y-15943341D01*
X18512920Y-15943341D02*
X18512920Y-15905246D01*
X18512920Y-15905246D02*
X18522444Y-15857627D01*
X18522444Y-15857627D02*
X18531968Y-15829055D01*
X18531968Y-15829055D02*
X18541491Y-15810008D01*
X18541491Y-15810008D02*
X18560539Y-15781436D01*
X18560539Y-15781436D02*
X18570063Y-15771912D01*
X18731968Y-15867150D02*
X18731968Y-16000484D01*
X18684349Y-15790960D02*
X18636730Y-15933817D01*
X18636730Y-15933817D02*
X18760539Y-15933817D01*
X18989111Y-16000484D02*
X18989111Y-15800484D01*
X19074825Y-16000484D02*
X19074825Y-15895722D01*
X19074825Y-15895722D02*
X19065301Y-15876674D01*
X19065301Y-15876674D02*
X19046253Y-15867150D01*
X19046253Y-15867150D02*
X19017682Y-15867150D01*
X19017682Y-15867150D02*
X18998634Y-15876674D01*
X18998634Y-15876674D02*
X18989111Y-15886198D01*
X19198634Y-16000484D02*
X19179587Y-15990960D01*
X19179587Y-15990960D02*
X19170063Y-15981436D01*
X19170063Y-15981436D02*
X19160539Y-15962388D01*
X19160539Y-15962388D02*
X19160539Y-15905246D01*
X19160539Y-15905246D02*
X19170063Y-15886198D01*
X19170063Y-15886198D02*
X19179587Y-15876674D01*
X19179587Y-15876674D02*
X19198634Y-15867150D01*
X19198634Y-15867150D02*
X19227206Y-15867150D01*
X19227206Y-15867150D02*
X19246253Y-15876674D01*
X19246253Y-15876674D02*
X19255777Y-15886198D01*
X19255777Y-15886198D02*
X19265301Y-15905246D01*
X19265301Y-15905246D02*
X19265301Y-15962388D01*
X19265301Y-15962388D02*
X19255777Y-15981436D01*
X19255777Y-15981436D02*
X19246253Y-15990960D01*
X19246253Y-15990960D02*
X19227206Y-16000484D01*
X19227206Y-16000484D02*
X19198634Y-16000484D01*
X19379587Y-16000484D02*
X19360539Y-15990960D01*
X19360539Y-15990960D02*
X19351015Y-15971912D01*
X19351015Y-15971912D02*
X19351015Y-15800484D01*
X19531968Y-15990960D02*
X19512920Y-16000484D01*
X19512920Y-16000484D02*
X19474825Y-16000484D01*
X19474825Y-16000484D02*
X19455777Y-15990960D01*
X19455777Y-15990960D02*
X19446253Y-15971912D01*
X19446253Y-15971912D02*
X19446253Y-15895722D01*
X19446253Y-15895722D02*
X19455777Y-15876674D01*
X19455777Y-15876674D02*
X19474825Y-15867150D01*
X19474825Y-15867150D02*
X19512920Y-15867150D01*
X19512920Y-15867150D02*
X19531968Y-15876674D01*
X19531968Y-15876674D02*
X19541492Y-15895722D01*
X19541492Y-15895722D02*
X19541492Y-15914769D01*
X19541492Y-15914769D02*
X19446253Y-15933817D01*
X19617682Y-15990960D02*
X19636730Y-16000484D01*
X19636730Y-16000484D02*
X19674825Y-16000484D01*
X19674825Y-16000484D02*
X19693873Y-15990960D01*
X19693873Y-15990960D02*
X19703396Y-15971912D01*
X19703396Y-15971912D02*
X19703396Y-15962388D01*
X19703396Y-15962388D02*
X19693873Y-15943341D01*
X19693873Y-15943341D02*
X19674825Y-15933817D01*
X19674825Y-15933817D02*
X19646253Y-15933817D01*
X19646253Y-15933817D02*
X19627206Y-15924293D01*
X19627206Y-15924293D02*
X19617682Y-15905246D01*
X19617682Y-15905246D02*
X19617682Y-15895722D01*
X19617682Y-15895722D02*
X19627206Y-15876674D01*
X19627206Y-15876674D02*
X19646253Y-15867150D01*
X19646253Y-15867150D02*
X19674825Y-15867150D01*
X19674825Y-15867150D02*
X19693873Y-15876674D01*
X19770063Y-16076674D02*
X19779587Y-16067150D01*
X19779587Y-16067150D02*
X19798634Y-16038579D01*
X19798634Y-16038579D02*
X19808158Y-16019531D01*
X19808158Y-16019531D02*
X19817682Y-15990960D01*
X19817682Y-15990960D02*
X19827206Y-15943341D01*
X19827206Y-15943341D02*
X19827206Y-15905246D01*
X19827206Y-15905246D02*
X19817682Y-15857627D01*
X19817682Y-15857627D02*
X19808158Y-15829055D01*
X19808158Y-15829055D02*
X19798634Y-15810008D01*
X19798634Y-15810008D02*
X19779587Y-15781436D01*
X19779587Y-15781436D02*
X19770063Y-15771912D01*
D10*
X14945000Y-16123000D02*
X14945000Y-16223000D01*
X14895000Y-16173000D02*
X14995000Y-16173000D01*
D11*
X15360539Y-16264484D02*
X15246253Y-16264484D01*
X15303396Y-16264484D02*
X15303396Y-16064484D01*
X15303396Y-16064484D02*
X15284348Y-16093055D01*
X15284348Y-16093055D02*
X15265301Y-16112103D01*
X15265301Y-16112103D02*
X15246253Y-16121627D01*
X15446253Y-16245436D02*
X15455777Y-16254960D01*
X15455777Y-16254960D02*
X15446253Y-16264484D01*
X15446253Y-16264484D02*
X15436729Y-16254960D01*
X15436729Y-16254960D02*
X15446253Y-16245436D01*
X15446253Y-16245436D02*
X15446253Y-16264484D01*
X15579586Y-16064484D02*
X15598634Y-16064484D01*
X15598634Y-16064484D02*
X15617682Y-16074008D01*
X15617682Y-16074008D02*
X15627205Y-16083531D01*
X15627205Y-16083531D02*
X15636729Y-16102579D01*
X15636729Y-16102579D02*
X15646253Y-16140674D01*
X15646253Y-16140674D02*
X15646253Y-16188293D01*
X15646253Y-16188293D02*
X15636729Y-16226388D01*
X15636729Y-16226388D02*
X15627205Y-16245436D01*
X15627205Y-16245436D02*
X15617682Y-16254960D01*
X15617682Y-16254960D02*
X15598634Y-16264484D01*
X15598634Y-16264484D02*
X15579586Y-16264484D01*
X15579586Y-16264484D02*
X15560539Y-16254960D01*
X15560539Y-16254960D02*
X15551015Y-16245436D01*
X15551015Y-16245436D02*
X15541491Y-16226388D01*
X15541491Y-16226388D02*
X15531967Y-16188293D01*
X15531967Y-16188293D02*
X15531967Y-16140674D01*
X15531967Y-16140674D02*
X15541491Y-16102579D01*
X15541491Y-16102579D02*
X15551015Y-16083531D01*
X15551015Y-16083531D02*
X15560539Y-16074008D01*
X15560539Y-16074008D02*
X15579586Y-16064484D01*
X15770062Y-16064484D02*
X15789110Y-16064484D01*
X15789110Y-16064484D02*
X15808158Y-16074008D01*
X15808158Y-16074008D02*
X15817682Y-16083531D01*
X15817682Y-16083531D02*
X15827205Y-16102579D01*
X15827205Y-16102579D02*
X15836729Y-16140674D01*
X15836729Y-16140674D02*
X15836729Y-16188293D01*
X15836729Y-16188293D02*
X15827205Y-16226388D01*
X15827205Y-16226388D02*
X15817682Y-16245436D01*
X15817682Y-16245436D02*
X15808158Y-16254960D01*
X15808158Y-16254960D02*
X15789110Y-16264484D01*
X15789110Y-16264484D02*
X15770062Y-16264484D01*
X15770062Y-16264484D02*
X15751015Y-16254960D01*
X15751015Y-16254960D02*
X15741491Y-16245436D01*
X15741491Y-16245436D02*
X15731967Y-16226388D01*
X15731967Y-16226388D02*
X15722443Y-16188293D01*
X15722443Y-16188293D02*
X15722443Y-16140674D01*
X15722443Y-16140674D02*
X15731967Y-16102579D01*
X15731967Y-16102579D02*
X15741491Y-16083531D01*
X15741491Y-16083531D02*
X15751015Y-16074008D01*
X15751015Y-16074008D02*
X15770062Y-16064484D01*
X15960539Y-16064484D02*
X15979586Y-16064484D01*
X15979586Y-16064484D02*
X15998634Y-16074008D01*
X15998634Y-16074008D02*
X16008158Y-16083531D01*
X16008158Y-16083531D02*
X16017682Y-16102579D01*
X16017682Y-16102579D02*
X16027205Y-16140674D01*
X16027205Y-16140674D02*
X16027205Y-16188293D01*
X16027205Y-16188293D02*
X16017682Y-16226388D01*
X16017682Y-16226388D02*
X16008158Y-16245436D01*
X16008158Y-16245436D02*
X15998634Y-16254960D01*
X15998634Y-16254960D02*
X15979586Y-16264484D01*
X15979586Y-16264484D02*
X15960539Y-16264484D01*
X15960539Y-16264484D02*
X15941491Y-16254960D01*
X15941491Y-16254960D02*
X15931967Y-16245436D01*
X15931967Y-16245436D02*
X15922443Y-16226388D01*
X15922443Y-16226388D02*
X15912920Y-16188293D01*
X15912920Y-16188293D02*
X15912920Y-16140674D01*
X15912920Y-16140674D02*
X15922443Y-16102579D01*
X15922443Y-16102579D02*
X15931967Y-16083531D01*
X15931967Y-16083531D02*
X15941491Y-16074008D01*
X15941491Y-16074008D02*
X15960539Y-16064484D01*
X16112920Y-16264484D02*
X16112920Y-16131150D01*
X16112920Y-16150198D02*
X16122443Y-16140674D01*
X16122443Y-16140674D02*
X16141491Y-16131150D01*
X16141491Y-16131150D02*
X16170063Y-16131150D01*
X16170063Y-16131150D02*
X16189110Y-16140674D01*
X16189110Y-16140674D02*
X16198634Y-16159722D01*
X16198634Y-16159722D02*
X16198634Y-16264484D01*
X16198634Y-16159722D02*
X16208158Y-16140674D01*
X16208158Y-16140674D02*
X16227205Y-16131150D01*
X16227205Y-16131150D02*
X16255777Y-16131150D01*
X16255777Y-16131150D02*
X16274824Y-16140674D01*
X16274824Y-16140674D02*
X16284348Y-16159722D01*
X16284348Y-16159722D02*
X16284348Y-16264484D01*
X16379586Y-16264484D02*
X16379586Y-16131150D01*
X16379586Y-16150198D02*
X16389110Y-16140674D01*
X16389110Y-16140674D02*
X16408158Y-16131150D01*
X16408158Y-16131150D02*
X16436729Y-16131150D01*
X16436729Y-16131150D02*
X16455777Y-16140674D01*
X16455777Y-16140674D02*
X16465301Y-16159722D01*
X16465301Y-16159722D02*
X16465301Y-16264484D01*
X16465301Y-16159722D02*
X16474824Y-16140674D01*
X16474824Y-16140674D02*
X16493872Y-16131150D01*
X16493872Y-16131150D02*
X16522443Y-16131150D01*
X16522443Y-16131150D02*
X16541491Y-16140674D01*
X16541491Y-16140674D02*
X16551015Y-16159722D01*
X16551015Y-16159722D02*
X16551015Y-16264484D01*
X16941491Y-16054960D02*
X16770063Y-16312103D01*
X17198634Y-16064484D02*
X17217682Y-16064484D01*
X17217682Y-16064484D02*
X17236729Y-16074008D01*
X17236729Y-16074008D02*
X17246253Y-16083531D01*
X17246253Y-16083531D02*
X17255777Y-16102579D01*
X17255777Y-16102579D02*
X17265301Y-16140674D01*
X17265301Y-16140674D02*
X17265301Y-16188293D01*
X17265301Y-16188293D02*
X17255777Y-16226388D01*
X17255777Y-16226388D02*
X17246253Y-16245436D01*
X17246253Y-16245436D02*
X17236729Y-16254960D01*
X17236729Y-16254960D02*
X17217682Y-16264484D01*
X17217682Y-16264484D02*
X17198634Y-16264484D01*
X17198634Y-16264484D02*
X17179587Y-16254960D01*
X17179587Y-16254960D02*
X17170063Y-16245436D01*
X17170063Y-16245436D02*
X17160539Y-16226388D01*
X17160539Y-16226388D02*
X17151015Y-16188293D01*
X17151015Y-16188293D02*
X17151015Y-16140674D01*
X17151015Y-16140674D02*
X17160539Y-16102579D01*
X17160539Y-16102579D02*
X17170063Y-16083531D01*
X17170063Y-16083531D02*
X17179587Y-16074008D01*
X17179587Y-16074008D02*
X17198634Y-16064484D01*
X17351015Y-16245436D02*
X17360539Y-16254960D01*
X17360539Y-16254960D02*
X17351015Y-16264484D01*
X17351015Y-16264484D02*
X17341491Y-16254960D01*
X17341491Y-16254960D02*
X17351015Y-16245436D01*
X17351015Y-16245436D02*
X17351015Y-16264484D01*
X17484348Y-16064484D02*
X17503396Y-16064484D01*
X17503396Y-16064484D02*
X17522444Y-16074008D01*
X17522444Y-16074008D02*
X17531968Y-16083531D01*
X17531968Y-16083531D02*
X17541491Y-16102579D01*
X17541491Y-16102579D02*
X17551015Y-16140674D01*
X17551015Y-16140674D02*
X17551015Y-16188293D01*
X17551015Y-16188293D02*
X17541491Y-16226388D01*
X17541491Y-16226388D02*
X17531968Y-16245436D01*
X17531968Y-16245436D02*
X17522444Y-16254960D01*
X17522444Y-16254960D02*
X17503396Y-16264484D01*
X17503396Y-16264484D02*
X17484348Y-16264484D01*
X17484348Y-16264484D02*
X17465301Y-16254960D01*
X17465301Y-16254960D02*
X17455777Y-16245436D01*
X17455777Y-16245436D02*
X17446253Y-16226388D01*
X17446253Y-16226388D02*
X17436729Y-16188293D01*
X17436729Y-16188293D02*
X17436729Y-16140674D01*
X17436729Y-16140674D02*
X17446253Y-16102579D01*
X17446253Y-16102579D02*
X17455777Y-16083531D01*
X17455777Y-16083531D02*
X17465301Y-16074008D01*
X17465301Y-16074008D02*
X17484348Y-16064484D01*
X17617682Y-16064484D02*
X17741491Y-16064484D01*
X17741491Y-16064484D02*
X17674825Y-16140674D01*
X17674825Y-16140674D02*
X17703396Y-16140674D01*
X17703396Y-16140674D02*
X17722444Y-16150198D01*
X17722444Y-16150198D02*
X17731968Y-16159722D01*
X17731968Y-16159722D02*
X17741491Y-16178769D01*
X17741491Y-16178769D02*
X17741491Y-16226388D01*
X17741491Y-16226388D02*
X17731968Y-16245436D01*
X17731968Y-16245436D02*
X17722444Y-16254960D01*
X17722444Y-16254960D02*
X17703396Y-16264484D01*
X17703396Y-16264484D02*
X17646253Y-16264484D01*
X17646253Y-16264484D02*
X17627206Y-16254960D01*
X17627206Y-16254960D02*
X17617682Y-16245436D01*
X17836729Y-16264484D02*
X17874825Y-16264484D01*
X17874825Y-16264484D02*
X17893872Y-16254960D01*
X17893872Y-16254960D02*
X17903396Y-16245436D01*
X17903396Y-16245436D02*
X17922444Y-16216865D01*
X17922444Y-16216865D02*
X17931968Y-16178769D01*
X17931968Y-16178769D02*
X17931968Y-16102579D01*
X17931968Y-16102579D02*
X17922444Y-16083531D01*
X17922444Y-16083531D02*
X17912920Y-16074008D01*
X17912920Y-16074008D02*
X17893872Y-16064484D01*
X17893872Y-16064484D02*
X17855777Y-16064484D01*
X17855777Y-16064484D02*
X17836729Y-16074008D01*
X17836729Y-16074008D02*
X17827206Y-16083531D01*
X17827206Y-16083531D02*
X17817682Y-16102579D01*
X17817682Y-16102579D02*
X17817682Y-16150198D01*
X17817682Y-16150198D02*
X17827206Y-16169246D01*
X17827206Y-16169246D02*
X17836729Y-16178769D01*
X17836729Y-16178769D02*
X17855777Y-16188293D01*
X17855777Y-16188293D02*
X17893872Y-16188293D01*
X17893872Y-16188293D02*
X17912920Y-16178769D01*
X17912920Y-16178769D02*
X17922444Y-16169246D01*
X17922444Y-16169246D02*
X17931968Y-16150198D01*
X18103396Y-16131150D02*
X18103396Y-16264484D01*
X18055777Y-16054960D02*
X18008158Y-16197817D01*
X18008158Y-16197817D02*
X18131968Y-16197817D01*
X18198634Y-16064484D02*
X18198634Y-16102579D01*
X18274825Y-16064484D02*
X18274825Y-16102579D01*
X18570063Y-16340674D02*
X18560539Y-16331150D01*
X18560539Y-16331150D02*
X18541491Y-16302579D01*
X18541491Y-16302579D02*
X18531968Y-16283531D01*
X18531968Y-16283531D02*
X18522444Y-16254960D01*
X18522444Y-16254960D02*
X18512920Y-16207341D01*
X18512920Y-16207341D02*
X18512920Y-16169246D01*
X18512920Y-16169246D02*
X18522444Y-16121627D01*
X18522444Y-16121627D02*
X18531968Y-16093055D01*
X18531968Y-16093055D02*
X18541491Y-16074008D01*
X18541491Y-16074008D02*
X18560539Y-16045436D01*
X18560539Y-16045436D02*
X18570063Y-16035912D01*
X18636730Y-16083531D02*
X18646253Y-16074008D01*
X18646253Y-16074008D02*
X18665301Y-16064484D01*
X18665301Y-16064484D02*
X18712920Y-16064484D01*
X18712920Y-16064484D02*
X18731968Y-16074008D01*
X18731968Y-16074008D02*
X18741491Y-16083531D01*
X18741491Y-16083531D02*
X18751015Y-16102579D01*
X18751015Y-16102579D02*
X18751015Y-16121627D01*
X18751015Y-16121627D02*
X18741491Y-16150198D01*
X18741491Y-16150198D02*
X18627206Y-16264484D01*
X18627206Y-16264484D02*
X18751015Y-16264484D01*
X18817682Y-16064484D02*
X18941491Y-16064484D01*
X18941491Y-16064484D02*
X18874825Y-16140674D01*
X18874825Y-16140674D02*
X18903396Y-16140674D01*
X18903396Y-16140674D02*
X18922444Y-16150198D01*
X18922444Y-16150198D02*
X18931968Y-16159722D01*
X18931968Y-16159722D02*
X18941491Y-16178769D01*
X18941491Y-16178769D02*
X18941491Y-16226388D01*
X18941491Y-16226388D02*
X18931968Y-16245436D01*
X18931968Y-16245436D02*
X18922444Y-16254960D01*
X18922444Y-16254960D02*
X18903396Y-16264484D01*
X18903396Y-16264484D02*
X18846253Y-16264484D01*
X18846253Y-16264484D02*
X18827206Y-16254960D01*
X18827206Y-16254960D02*
X18817682Y-16245436D01*
X19179587Y-16264484D02*
X19179587Y-16064484D01*
X19265301Y-16264484D02*
X19265301Y-16159722D01*
X19265301Y-16159722D02*
X19255777Y-16140674D01*
X19255777Y-16140674D02*
X19236730Y-16131150D01*
X19236730Y-16131150D02*
X19208158Y-16131150D01*
X19208158Y-16131150D02*
X19189111Y-16140674D01*
X19189111Y-16140674D02*
X19179587Y-16150198D01*
X19389111Y-16264484D02*
X19370063Y-16254960D01*
X19370063Y-16254960D02*
X19360539Y-16245436D01*
X19360539Y-16245436D02*
X19351015Y-16226388D01*
X19351015Y-16226388D02*
X19351015Y-16169246D01*
X19351015Y-16169246D02*
X19360539Y-16150198D01*
X19360539Y-16150198D02*
X19370063Y-16140674D01*
X19370063Y-16140674D02*
X19389111Y-16131150D01*
X19389111Y-16131150D02*
X19417682Y-16131150D01*
X19417682Y-16131150D02*
X19436730Y-16140674D01*
X19436730Y-16140674D02*
X19446253Y-16150198D01*
X19446253Y-16150198D02*
X19455777Y-16169246D01*
X19455777Y-16169246D02*
X19455777Y-16226388D01*
X19455777Y-16226388D02*
X19446253Y-16245436D01*
X19446253Y-16245436D02*
X19436730Y-16254960D01*
X19436730Y-16254960D02*
X19417682Y-16264484D01*
X19417682Y-16264484D02*
X19389111Y-16264484D01*
X19570063Y-16264484D02*
X19551015Y-16254960D01*
X19551015Y-16254960D02*
X19541492Y-16235912D01*
X19541492Y-16235912D02*
X19541492Y-16064484D01*
X19722444Y-16254960D02*
X19703396Y-16264484D01*
X19703396Y-16264484D02*
X19665301Y-16264484D01*
X19665301Y-16264484D02*
X19646253Y-16254960D01*
X19646253Y-16254960D02*
X19636730Y-16235912D01*
X19636730Y-16235912D02*
X19636730Y-16159722D01*
X19636730Y-16159722D02*
X19646253Y-16140674D01*
X19646253Y-16140674D02*
X19665301Y-16131150D01*
X19665301Y-16131150D02*
X19703396Y-16131150D01*
X19703396Y-16131150D02*
X19722444Y-16140674D01*
X19722444Y-16140674D02*
X19731968Y-16159722D01*
X19731968Y-16159722D02*
X19731968Y-16178769D01*
X19731968Y-16178769D02*
X19636730Y-16197817D01*
X19808158Y-16254960D02*
X19827206Y-16264484D01*
X19827206Y-16264484D02*
X19865301Y-16264484D01*
X19865301Y-16264484D02*
X19884349Y-16254960D01*
X19884349Y-16254960D02*
X19893873Y-16235912D01*
X19893873Y-16235912D02*
X19893873Y-16226388D01*
X19893873Y-16226388D02*
X19884349Y-16207341D01*
X19884349Y-16207341D02*
X19865301Y-16197817D01*
X19865301Y-16197817D02*
X19836730Y-16197817D01*
X19836730Y-16197817D02*
X19817682Y-16188293D01*
X19817682Y-16188293D02*
X19808158Y-16169246D01*
X19808158Y-16169246D02*
X19808158Y-16159722D01*
X19808158Y-16159722D02*
X19817682Y-16140674D01*
X19817682Y-16140674D02*
X19836730Y-16131150D01*
X19836730Y-16131150D02*
X19865301Y-16131150D01*
X19865301Y-16131150D02*
X19884349Y-16140674D01*
X19960539Y-16340674D02*
X19970063Y-16331150D01*
X19970063Y-16331150D02*
X19989111Y-16302579D01*
X19989111Y-16302579D02*
X19998634Y-16283531D01*
X19998634Y-16283531D02*
X20008158Y-16254960D01*
X20008158Y-16254960D02*
X20017682Y-16207341D01*
X20017682Y-16207341D02*
X20017682Y-16169246D01*
X20017682Y-16169246D02*
X20008158Y-16121627D01*
X20008158Y-16121627D02*
X19998634Y-16093055D01*
X19998634Y-16093055D02*
X19989111Y-16074008D01*
X19989111Y-16074008D02*
X19970063Y-16045436D01*
X19970063Y-16045436D02*
X19960539Y-16035912D01*
D14*
X14978891Y-16475891D02*
X14978891Y-16398109D01*
X14901109Y-16398109D01*
X14901109Y-16475891D01*
X14978891Y-16475891D01*
D11*
X15360539Y-16528484D02*
X15246253Y-16528484D01*
X15303396Y-16528484D02*
X15303396Y-16328484D01*
X15303396Y-16328484D02*
X15284348Y-16357055D01*
X15284348Y-16357055D02*
X15265301Y-16376103D01*
X15265301Y-16376103D02*
X15246253Y-16385627D01*
X15446253Y-16509436D02*
X15455777Y-16518960D01*
X15455777Y-16518960D02*
X15446253Y-16528484D01*
X15446253Y-16528484D02*
X15436729Y-16518960D01*
X15436729Y-16518960D02*
X15446253Y-16509436D01*
X15446253Y-16509436D02*
X15446253Y-16528484D01*
X15646253Y-16528484D02*
X15531967Y-16528484D01*
X15589110Y-16528484D02*
X15589110Y-16328484D01*
X15589110Y-16328484D02*
X15570062Y-16357055D01*
X15570062Y-16357055D02*
X15551015Y-16376103D01*
X15551015Y-16376103D02*
X15531967Y-16385627D01*
X15770062Y-16328484D02*
X15789110Y-16328484D01*
X15789110Y-16328484D02*
X15808158Y-16338008D01*
X15808158Y-16338008D02*
X15817682Y-16347531D01*
X15817682Y-16347531D02*
X15827205Y-16366579D01*
X15827205Y-16366579D02*
X15836729Y-16404674D01*
X15836729Y-16404674D02*
X15836729Y-16452293D01*
X15836729Y-16452293D02*
X15827205Y-16490388D01*
X15827205Y-16490388D02*
X15817682Y-16509436D01*
X15817682Y-16509436D02*
X15808158Y-16518960D01*
X15808158Y-16518960D02*
X15789110Y-16528484D01*
X15789110Y-16528484D02*
X15770062Y-16528484D01*
X15770062Y-16528484D02*
X15751015Y-16518960D01*
X15751015Y-16518960D02*
X15741491Y-16509436D01*
X15741491Y-16509436D02*
X15731967Y-16490388D01*
X15731967Y-16490388D02*
X15722443Y-16452293D01*
X15722443Y-16452293D02*
X15722443Y-16404674D01*
X15722443Y-16404674D02*
X15731967Y-16366579D01*
X15731967Y-16366579D02*
X15741491Y-16347531D01*
X15741491Y-16347531D02*
X15751015Y-16338008D01*
X15751015Y-16338008D02*
X15770062Y-16328484D01*
X15960539Y-16328484D02*
X15979586Y-16328484D01*
X15979586Y-16328484D02*
X15998634Y-16338008D01*
X15998634Y-16338008D02*
X16008158Y-16347531D01*
X16008158Y-16347531D02*
X16017682Y-16366579D01*
X16017682Y-16366579D02*
X16027205Y-16404674D01*
X16027205Y-16404674D02*
X16027205Y-16452293D01*
X16027205Y-16452293D02*
X16017682Y-16490388D01*
X16017682Y-16490388D02*
X16008158Y-16509436D01*
X16008158Y-16509436D02*
X15998634Y-16518960D01*
X15998634Y-16518960D02*
X15979586Y-16528484D01*
X15979586Y-16528484D02*
X15960539Y-16528484D01*
X15960539Y-16528484D02*
X15941491Y-16518960D01*
X15941491Y-16518960D02*
X15931967Y-16509436D01*
X15931967Y-16509436D02*
X15922443Y-16490388D01*
X15922443Y-16490388D02*
X15912920Y-16452293D01*
X15912920Y-16452293D02*
X15912920Y-16404674D01*
X15912920Y-16404674D02*
X15922443Y-16366579D01*
X15922443Y-16366579D02*
X15931967Y-16347531D01*
X15931967Y-16347531D02*
X15941491Y-16338008D01*
X15941491Y-16338008D02*
X15960539Y-16328484D01*
X16112920Y-16528484D02*
X16112920Y-16395150D01*
X16112920Y-16414198D02*
X16122443Y-16404674D01*
X16122443Y-16404674D02*
X16141491Y-16395150D01*
X16141491Y-16395150D02*
X16170063Y-16395150D01*
X16170063Y-16395150D02*
X16189110Y-16404674D01*
X16189110Y-16404674D02*
X16198634Y-16423722D01*
X16198634Y-16423722D02*
X16198634Y-16528484D01*
X16198634Y-16423722D02*
X16208158Y-16404674D01*
X16208158Y-16404674D02*
X16227205Y-16395150D01*
X16227205Y-16395150D02*
X16255777Y-16395150D01*
X16255777Y-16395150D02*
X16274824Y-16404674D01*
X16274824Y-16404674D02*
X16284348Y-16423722D01*
X16284348Y-16423722D02*
X16284348Y-16528484D01*
X16379586Y-16528484D02*
X16379586Y-16395150D01*
X16379586Y-16414198D02*
X16389110Y-16404674D01*
X16389110Y-16404674D02*
X16408158Y-16395150D01*
X16408158Y-16395150D02*
X16436729Y-16395150D01*
X16436729Y-16395150D02*
X16455777Y-16404674D01*
X16455777Y-16404674D02*
X16465301Y-16423722D01*
X16465301Y-16423722D02*
X16465301Y-16528484D01*
X16465301Y-16423722D02*
X16474824Y-16404674D01*
X16474824Y-16404674D02*
X16493872Y-16395150D01*
X16493872Y-16395150D02*
X16522443Y-16395150D01*
X16522443Y-16395150D02*
X16541491Y-16404674D01*
X16541491Y-16404674D02*
X16551015Y-16423722D01*
X16551015Y-16423722D02*
X16551015Y-16528484D01*
X16941491Y-16318960D02*
X16770063Y-16576103D01*
X17198634Y-16328484D02*
X17217682Y-16328484D01*
X17217682Y-16328484D02*
X17236729Y-16338008D01*
X17236729Y-16338008D02*
X17246253Y-16347531D01*
X17246253Y-16347531D02*
X17255777Y-16366579D01*
X17255777Y-16366579D02*
X17265301Y-16404674D01*
X17265301Y-16404674D02*
X17265301Y-16452293D01*
X17265301Y-16452293D02*
X17255777Y-16490388D01*
X17255777Y-16490388D02*
X17246253Y-16509436D01*
X17246253Y-16509436D02*
X17236729Y-16518960D01*
X17236729Y-16518960D02*
X17217682Y-16528484D01*
X17217682Y-16528484D02*
X17198634Y-16528484D01*
X17198634Y-16528484D02*
X17179587Y-16518960D01*
X17179587Y-16518960D02*
X17170063Y-16509436D01*
X17170063Y-16509436D02*
X17160539Y-16490388D01*
X17160539Y-16490388D02*
X17151015Y-16452293D01*
X17151015Y-16452293D02*
X17151015Y-16404674D01*
X17151015Y-16404674D02*
X17160539Y-16366579D01*
X17160539Y-16366579D02*
X17170063Y-16347531D01*
X17170063Y-16347531D02*
X17179587Y-16338008D01*
X17179587Y-16338008D02*
X17198634Y-16328484D01*
X17351015Y-16509436D02*
X17360539Y-16518960D01*
X17360539Y-16518960D02*
X17351015Y-16528484D01*
X17351015Y-16528484D02*
X17341491Y-16518960D01*
X17341491Y-16518960D02*
X17351015Y-16509436D01*
X17351015Y-16509436D02*
X17351015Y-16528484D01*
X17484348Y-16328484D02*
X17503396Y-16328484D01*
X17503396Y-16328484D02*
X17522444Y-16338008D01*
X17522444Y-16338008D02*
X17531968Y-16347531D01*
X17531968Y-16347531D02*
X17541491Y-16366579D01*
X17541491Y-16366579D02*
X17551015Y-16404674D01*
X17551015Y-16404674D02*
X17551015Y-16452293D01*
X17551015Y-16452293D02*
X17541491Y-16490388D01*
X17541491Y-16490388D02*
X17531968Y-16509436D01*
X17531968Y-16509436D02*
X17522444Y-16518960D01*
X17522444Y-16518960D02*
X17503396Y-16528484D01*
X17503396Y-16528484D02*
X17484348Y-16528484D01*
X17484348Y-16528484D02*
X17465301Y-16518960D01*
X17465301Y-16518960D02*
X17455777Y-16509436D01*
X17455777Y-16509436D02*
X17446253Y-16490388D01*
X17446253Y-16490388D02*
X17436729Y-16452293D01*
X17436729Y-16452293D02*
X17436729Y-16404674D01*
X17436729Y-16404674D02*
X17446253Y-16366579D01*
X17446253Y-16366579D02*
X17455777Y-16347531D01*
X17455777Y-16347531D02*
X17465301Y-16338008D01*
X17465301Y-16338008D02*
X17484348Y-16328484D01*
X17722444Y-16395150D02*
X17722444Y-16528484D01*
X17674825Y-16318960D02*
X17627206Y-16461817D01*
X17627206Y-16461817D02*
X17751015Y-16461817D01*
X17808158Y-16328484D02*
X17931968Y-16328484D01*
X17931968Y-16328484D02*
X17865301Y-16404674D01*
X17865301Y-16404674D02*
X17893872Y-16404674D01*
X17893872Y-16404674D02*
X17912920Y-16414198D01*
X17912920Y-16414198D02*
X17922444Y-16423722D01*
X17922444Y-16423722D02*
X17931968Y-16442769D01*
X17931968Y-16442769D02*
X17931968Y-16490388D01*
X17931968Y-16490388D02*
X17922444Y-16509436D01*
X17922444Y-16509436D02*
X17912920Y-16518960D01*
X17912920Y-16518960D02*
X17893872Y-16528484D01*
X17893872Y-16528484D02*
X17836729Y-16528484D01*
X17836729Y-16528484D02*
X17817682Y-16518960D01*
X17817682Y-16518960D02*
X17808158Y-16509436D01*
X17998634Y-16328484D02*
X18122444Y-16328484D01*
X18122444Y-16328484D02*
X18055777Y-16404674D01*
X18055777Y-16404674D02*
X18084349Y-16404674D01*
X18084349Y-16404674D02*
X18103396Y-16414198D01*
X18103396Y-16414198D02*
X18112920Y-16423722D01*
X18112920Y-16423722D02*
X18122444Y-16442769D01*
X18122444Y-16442769D02*
X18122444Y-16490388D01*
X18122444Y-16490388D02*
X18112920Y-16509436D01*
X18112920Y-16509436D02*
X18103396Y-16518960D01*
X18103396Y-16518960D02*
X18084349Y-16528484D01*
X18084349Y-16528484D02*
X18027206Y-16528484D01*
X18027206Y-16528484D02*
X18008158Y-16518960D01*
X18008158Y-16518960D02*
X17998634Y-16509436D01*
X18198634Y-16328484D02*
X18198634Y-16366579D01*
X18274825Y-16328484D02*
X18274825Y-16366579D01*
X18570063Y-16604674D02*
X18560539Y-16595150D01*
X18560539Y-16595150D02*
X18541491Y-16566579D01*
X18541491Y-16566579D02*
X18531968Y-16547531D01*
X18531968Y-16547531D02*
X18522444Y-16518960D01*
X18522444Y-16518960D02*
X18512920Y-16471341D01*
X18512920Y-16471341D02*
X18512920Y-16433246D01*
X18512920Y-16433246D02*
X18522444Y-16385627D01*
X18522444Y-16385627D02*
X18531968Y-16357055D01*
X18531968Y-16357055D02*
X18541491Y-16338008D01*
X18541491Y-16338008D02*
X18560539Y-16309436D01*
X18560539Y-16309436D02*
X18570063Y-16299912D01*
X18627206Y-16328484D02*
X18751015Y-16328484D01*
X18751015Y-16328484D02*
X18684349Y-16404674D01*
X18684349Y-16404674D02*
X18712920Y-16404674D01*
X18712920Y-16404674D02*
X18731968Y-16414198D01*
X18731968Y-16414198D02*
X18741491Y-16423722D01*
X18741491Y-16423722D02*
X18751015Y-16442769D01*
X18751015Y-16442769D02*
X18751015Y-16490388D01*
X18751015Y-16490388D02*
X18741491Y-16509436D01*
X18741491Y-16509436D02*
X18731968Y-16518960D01*
X18731968Y-16518960D02*
X18712920Y-16528484D01*
X18712920Y-16528484D02*
X18655777Y-16528484D01*
X18655777Y-16528484D02*
X18636730Y-16518960D01*
X18636730Y-16518960D02*
X18627206Y-16509436D01*
X18989111Y-16528484D02*
X18989111Y-16328484D01*
X19074825Y-16528484D02*
X19074825Y-16423722D01*
X19074825Y-16423722D02*
X19065301Y-16404674D01*
X19065301Y-16404674D02*
X19046253Y-16395150D01*
X19046253Y-16395150D02*
X19017682Y-16395150D01*
X19017682Y-16395150D02*
X18998634Y-16404674D01*
X18998634Y-16404674D02*
X18989111Y-16414198D01*
X19198634Y-16528484D02*
X19179587Y-16518960D01*
X19179587Y-16518960D02*
X19170063Y-16509436D01*
X19170063Y-16509436D02*
X19160539Y-16490388D01*
X19160539Y-16490388D02*
X19160539Y-16433246D01*
X19160539Y-16433246D02*
X19170063Y-16414198D01*
X19170063Y-16414198D02*
X19179587Y-16404674D01*
X19179587Y-16404674D02*
X19198634Y-16395150D01*
X19198634Y-16395150D02*
X19227206Y-16395150D01*
X19227206Y-16395150D02*
X19246253Y-16404674D01*
X19246253Y-16404674D02*
X19255777Y-16414198D01*
X19255777Y-16414198D02*
X19265301Y-16433246D01*
X19265301Y-16433246D02*
X19265301Y-16490388D01*
X19265301Y-16490388D02*
X19255777Y-16509436D01*
X19255777Y-16509436D02*
X19246253Y-16518960D01*
X19246253Y-16518960D02*
X19227206Y-16528484D01*
X19227206Y-16528484D02*
X19198634Y-16528484D01*
X19379587Y-16528484D02*
X19360539Y-16518960D01*
X19360539Y-16518960D02*
X19351015Y-16499912D01*
X19351015Y-16499912D02*
X19351015Y-16328484D01*
X19531968Y-16518960D02*
X19512920Y-16528484D01*
X19512920Y-16528484D02*
X19474825Y-16528484D01*
X19474825Y-16528484D02*
X19455777Y-16518960D01*
X19455777Y-16518960D02*
X19446253Y-16499912D01*
X19446253Y-16499912D02*
X19446253Y-16423722D01*
X19446253Y-16423722D02*
X19455777Y-16404674D01*
X19455777Y-16404674D02*
X19474825Y-16395150D01*
X19474825Y-16395150D02*
X19512920Y-16395150D01*
X19512920Y-16395150D02*
X19531968Y-16404674D01*
X19531968Y-16404674D02*
X19541492Y-16423722D01*
X19541492Y-16423722D02*
X19541492Y-16442769D01*
X19541492Y-16442769D02*
X19446253Y-16461817D01*
X19617682Y-16518960D02*
X19636730Y-16528484D01*
X19636730Y-16528484D02*
X19674825Y-16528484D01*
X19674825Y-16528484D02*
X19693873Y-16518960D01*
X19693873Y-16518960D02*
X19703396Y-16499912D01*
X19703396Y-16499912D02*
X19703396Y-16490388D01*
X19703396Y-16490388D02*
X19693873Y-16471341D01*
X19693873Y-16471341D02*
X19674825Y-16461817D01*
X19674825Y-16461817D02*
X19646253Y-16461817D01*
X19646253Y-16461817D02*
X19627206Y-16452293D01*
X19627206Y-16452293D02*
X19617682Y-16433246D01*
X19617682Y-16433246D02*
X19617682Y-16423722D01*
X19617682Y-16423722D02*
X19627206Y-16404674D01*
X19627206Y-16404674D02*
X19646253Y-16395150D01*
X19646253Y-16395150D02*
X19674825Y-16395150D01*
X19674825Y-16395150D02*
X19693873Y-16404674D01*
X19770063Y-16604674D02*
X19779587Y-16595150D01*
X19779587Y-16595150D02*
X19798634Y-16566579D01*
X19798634Y-16566579D02*
X19808158Y-16547531D01*
X19808158Y-16547531D02*
X19817682Y-16518960D01*
X19817682Y-16518960D02*
X19827206Y-16471341D01*
X19827206Y-16471341D02*
X19827206Y-16433246D01*
X19827206Y-16433246D02*
X19817682Y-16385627D01*
X19817682Y-16385627D02*
X19808158Y-16357055D01*
X19808158Y-16357055D02*
X19798634Y-16338008D01*
X19798634Y-16338008D02*
X19779587Y-16309436D01*
X19779587Y-16309436D02*
X19770063Y-16299912D01*
D15*
X14935000Y-16761000D02*
X14995000Y-16701000D01*
X14935000Y-16641000D01*
X14875000Y-16701000D01*
X14935000Y-16761000D01*
D11*
X15360539Y-16792484D02*
X15246253Y-16792484D01*
X15303396Y-16792484D02*
X15303396Y-16592484D01*
X15303396Y-16592484D02*
X15284348Y-16621055D01*
X15284348Y-16621055D02*
X15265301Y-16640103D01*
X15265301Y-16640103D02*
X15246253Y-16649627D01*
X15446253Y-16773436D02*
X15455777Y-16782960D01*
X15455777Y-16782960D02*
X15446253Y-16792484D01*
X15446253Y-16792484D02*
X15436729Y-16782960D01*
X15436729Y-16782960D02*
X15446253Y-16773436D01*
X15446253Y-16773436D02*
X15446253Y-16792484D01*
X15531967Y-16611531D02*
X15541491Y-16602008D01*
X15541491Y-16602008D02*
X15560539Y-16592484D01*
X15560539Y-16592484D02*
X15608158Y-16592484D01*
X15608158Y-16592484D02*
X15627205Y-16602008D01*
X15627205Y-16602008D02*
X15636729Y-16611531D01*
X15636729Y-16611531D02*
X15646253Y-16630579D01*
X15646253Y-16630579D02*
X15646253Y-16649627D01*
X15646253Y-16649627D02*
X15636729Y-16678198D01*
X15636729Y-16678198D02*
X15522443Y-16792484D01*
X15522443Y-16792484D02*
X15646253Y-16792484D01*
X15770062Y-16592484D02*
X15789110Y-16592484D01*
X15789110Y-16592484D02*
X15808158Y-16602008D01*
X15808158Y-16602008D02*
X15817682Y-16611531D01*
X15817682Y-16611531D02*
X15827205Y-16630579D01*
X15827205Y-16630579D02*
X15836729Y-16668674D01*
X15836729Y-16668674D02*
X15836729Y-16716293D01*
X15836729Y-16716293D02*
X15827205Y-16754388D01*
X15827205Y-16754388D02*
X15817682Y-16773436D01*
X15817682Y-16773436D02*
X15808158Y-16782960D01*
X15808158Y-16782960D02*
X15789110Y-16792484D01*
X15789110Y-16792484D02*
X15770062Y-16792484D01*
X15770062Y-16792484D02*
X15751015Y-16782960D01*
X15751015Y-16782960D02*
X15741491Y-16773436D01*
X15741491Y-16773436D02*
X15731967Y-16754388D01*
X15731967Y-16754388D02*
X15722443Y-16716293D01*
X15722443Y-16716293D02*
X15722443Y-16668674D01*
X15722443Y-16668674D02*
X15731967Y-16630579D01*
X15731967Y-16630579D02*
X15741491Y-16611531D01*
X15741491Y-16611531D02*
X15751015Y-16602008D01*
X15751015Y-16602008D02*
X15770062Y-16592484D01*
X15960539Y-16592484D02*
X15979586Y-16592484D01*
X15979586Y-16592484D02*
X15998634Y-16602008D01*
X15998634Y-16602008D02*
X16008158Y-16611531D01*
X16008158Y-16611531D02*
X16017682Y-16630579D01*
X16017682Y-16630579D02*
X16027205Y-16668674D01*
X16027205Y-16668674D02*
X16027205Y-16716293D01*
X16027205Y-16716293D02*
X16017682Y-16754388D01*
X16017682Y-16754388D02*
X16008158Y-16773436D01*
X16008158Y-16773436D02*
X15998634Y-16782960D01*
X15998634Y-16782960D02*
X15979586Y-16792484D01*
X15979586Y-16792484D02*
X15960539Y-16792484D01*
X15960539Y-16792484D02*
X15941491Y-16782960D01*
X15941491Y-16782960D02*
X15931967Y-16773436D01*
X15931967Y-16773436D02*
X15922443Y-16754388D01*
X15922443Y-16754388D02*
X15912920Y-16716293D01*
X15912920Y-16716293D02*
X15912920Y-16668674D01*
X15912920Y-16668674D02*
X15922443Y-16630579D01*
X15922443Y-16630579D02*
X15931967Y-16611531D01*
X15931967Y-16611531D02*
X15941491Y-16602008D01*
X15941491Y-16602008D02*
X15960539Y-16592484D01*
X16112920Y-16792484D02*
X16112920Y-16659150D01*
X16112920Y-16678198D02*
X16122443Y-16668674D01*
X16122443Y-16668674D02*
X16141491Y-16659150D01*
X16141491Y-16659150D02*
X16170063Y-16659150D01*
X16170063Y-16659150D02*
X16189110Y-16668674D01*
X16189110Y-16668674D02*
X16198634Y-16687722D01*
X16198634Y-16687722D02*
X16198634Y-16792484D01*
X16198634Y-16687722D02*
X16208158Y-16668674D01*
X16208158Y-16668674D02*
X16227205Y-16659150D01*
X16227205Y-16659150D02*
X16255777Y-16659150D01*
X16255777Y-16659150D02*
X16274824Y-16668674D01*
X16274824Y-16668674D02*
X16284348Y-16687722D01*
X16284348Y-16687722D02*
X16284348Y-16792484D01*
X16379586Y-16792484D02*
X16379586Y-16659150D01*
X16379586Y-16678198D02*
X16389110Y-16668674D01*
X16389110Y-16668674D02*
X16408158Y-16659150D01*
X16408158Y-16659150D02*
X16436729Y-16659150D01*
X16436729Y-16659150D02*
X16455777Y-16668674D01*
X16455777Y-16668674D02*
X16465301Y-16687722D01*
X16465301Y-16687722D02*
X16465301Y-16792484D01*
X16465301Y-16687722D02*
X16474824Y-16668674D01*
X16474824Y-16668674D02*
X16493872Y-16659150D01*
X16493872Y-16659150D02*
X16522443Y-16659150D01*
X16522443Y-16659150D02*
X16541491Y-16668674D01*
X16541491Y-16668674D02*
X16551015Y-16687722D01*
X16551015Y-16687722D02*
X16551015Y-16792484D01*
X16941491Y-16582960D02*
X16770063Y-16840103D01*
X17198634Y-16592484D02*
X17217682Y-16592484D01*
X17217682Y-16592484D02*
X17236729Y-16602008D01*
X17236729Y-16602008D02*
X17246253Y-16611531D01*
X17246253Y-16611531D02*
X17255777Y-16630579D01*
X17255777Y-16630579D02*
X17265301Y-16668674D01*
X17265301Y-16668674D02*
X17265301Y-16716293D01*
X17265301Y-16716293D02*
X17255777Y-16754388D01*
X17255777Y-16754388D02*
X17246253Y-16773436D01*
X17246253Y-16773436D02*
X17236729Y-16782960D01*
X17236729Y-16782960D02*
X17217682Y-16792484D01*
X17217682Y-16792484D02*
X17198634Y-16792484D01*
X17198634Y-16792484D02*
X17179587Y-16782960D01*
X17179587Y-16782960D02*
X17170063Y-16773436D01*
X17170063Y-16773436D02*
X17160539Y-16754388D01*
X17160539Y-16754388D02*
X17151015Y-16716293D01*
X17151015Y-16716293D02*
X17151015Y-16668674D01*
X17151015Y-16668674D02*
X17160539Y-16630579D01*
X17160539Y-16630579D02*
X17170063Y-16611531D01*
X17170063Y-16611531D02*
X17179587Y-16602008D01*
X17179587Y-16602008D02*
X17198634Y-16592484D01*
X17351015Y-16773436D02*
X17360539Y-16782960D01*
X17360539Y-16782960D02*
X17351015Y-16792484D01*
X17351015Y-16792484D02*
X17341491Y-16782960D01*
X17341491Y-16782960D02*
X17351015Y-16773436D01*
X17351015Y-16773436D02*
X17351015Y-16792484D01*
X17484348Y-16592484D02*
X17503396Y-16592484D01*
X17503396Y-16592484D02*
X17522444Y-16602008D01*
X17522444Y-16602008D02*
X17531968Y-16611531D01*
X17531968Y-16611531D02*
X17541491Y-16630579D01*
X17541491Y-16630579D02*
X17551015Y-16668674D01*
X17551015Y-16668674D02*
X17551015Y-16716293D01*
X17551015Y-16716293D02*
X17541491Y-16754388D01*
X17541491Y-16754388D02*
X17531968Y-16773436D01*
X17531968Y-16773436D02*
X17522444Y-16782960D01*
X17522444Y-16782960D02*
X17503396Y-16792484D01*
X17503396Y-16792484D02*
X17484348Y-16792484D01*
X17484348Y-16792484D02*
X17465301Y-16782960D01*
X17465301Y-16782960D02*
X17455777Y-16773436D01*
X17455777Y-16773436D02*
X17446253Y-16754388D01*
X17446253Y-16754388D02*
X17436729Y-16716293D01*
X17436729Y-16716293D02*
X17436729Y-16668674D01*
X17436729Y-16668674D02*
X17446253Y-16630579D01*
X17446253Y-16630579D02*
X17455777Y-16611531D01*
X17455777Y-16611531D02*
X17465301Y-16602008D01*
X17465301Y-16602008D02*
X17484348Y-16592484D01*
X17722444Y-16659150D02*
X17722444Y-16792484D01*
X17674825Y-16582960D02*
X17627206Y-16725817D01*
X17627206Y-16725817D02*
X17751015Y-16725817D01*
X17808158Y-16592484D02*
X17941491Y-16592484D01*
X17941491Y-16592484D02*
X17855777Y-16792484D01*
X18008158Y-16611531D02*
X18017682Y-16602008D01*
X18017682Y-16602008D02*
X18036729Y-16592484D01*
X18036729Y-16592484D02*
X18084349Y-16592484D01*
X18084349Y-16592484D02*
X18103396Y-16602008D01*
X18103396Y-16602008D02*
X18112920Y-16611531D01*
X18112920Y-16611531D02*
X18122444Y-16630579D01*
X18122444Y-16630579D02*
X18122444Y-16649627D01*
X18122444Y-16649627D02*
X18112920Y-16678198D01*
X18112920Y-16678198D02*
X17998634Y-16792484D01*
X17998634Y-16792484D02*
X18122444Y-16792484D01*
X18198634Y-16592484D02*
X18198634Y-16630579D01*
X18274825Y-16592484D02*
X18274825Y-16630579D01*
X18570063Y-16868674D02*
X18560539Y-16859150D01*
X18560539Y-16859150D02*
X18541491Y-16830579D01*
X18541491Y-16830579D02*
X18531968Y-16811531D01*
X18531968Y-16811531D02*
X18522444Y-16782960D01*
X18522444Y-16782960D02*
X18512920Y-16735341D01*
X18512920Y-16735341D02*
X18512920Y-16697246D01*
X18512920Y-16697246D02*
X18522444Y-16649627D01*
X18522444Y-16649627D02*
X18531968Y-16621055D01*
X18531968Y-16621055D02*
X18541491Y-16602008D01*
X18541491Y-16602008D02*
X18560539Y-16573436D01*
X18560539Y-16573436D02*
X18570063Y-16563912D01*
X18636730Y-16611531D02*
X18646253Y-16602008D01*
X18646253Y-16602008D02*
X18665301Y-16592484D01*
X18665301Y-16592484D02*
X18712920Y-16592484D01*
X18712920Y-16592484D02*
X18731968Y-16602008D01*
X18731968Y-16602008D02*
X18741491Y-16611531D01*
X18741491Y-16611531D02*
X18751015Y-16630579D01*
X18751015Y-16630579D02*
X18751015Y-16649627D01*
X18751015Y-16649627D02*
X18741491Y-16678198D01*
X18741491Y-16678198D02*
X18627206Y-16792484D01*
X18627206Y-16792484D02*
X18751015Y-16792484D01*
X18941491Y-16792484D02*
X18827206Y-16792484D01*
X18884349Y-16792484D02*
X18884349Y-16592484D01*
X18884349Y-16592484D02*
X18865301Y-16621055D01*
X18865301Y-16621055D02*
X18846253Y-16640103D01*
X18846253Y-16640103D02*
X18827206Y-16649627D01*
X19179587Y-16792484D02*
X19179587Y-16592484D01*
X19265301Y-16792484D02*
X19265301Y-16687722D01*
X19265301Y-16687722D02*
X19255777Y-16668674D01*
X19255777Y-16668674D02*
X19236730Y-16659150D01*
X19236730Y-16659150D02*
X19208158Y-16659150D01*
X19208158Y-16659150D02*
X19189111Y-16668674D01*
X19189111Y-16668674D02*
X19179587Y-16678198D01*
X19389111Y-16792484D02*
X19370063Y-16782960D01*
X19370063Y-16782960D02*
X19360539Y-16773436D01*
X19360539Y-16773436D02*
X19351015Y-16754388D01*
X19351015Y-16754388D02*
X19351015Y-16697246D01*
X19351015Y-16697246D02*
X19360539Y-16678198D01*
X19360539Y-16678198D02*
X19370063Y-16668674D01*
X19370063Y-16668674D02*
X19389111Y-16659150D01*
X19389111Y-16659150D02*
X19417682Y-16659150D01*
X19417682Y-16659150D02*
X19436730Y-16668674D01*
X19436730Y-16668674D02*
X19446253Y-16678198D01*
X19446253Y-16678198D02*
X19455777Y-16697246D01*
X19455777Y-16697246D02*
X19455777Y-16754388D01*
X19455777Y-16754388D02*
X19446253Y-16773436D01*
X19446253Y-16773436D02*
X19436730Y-16782960D01*
X19436730Y-16782960D02*
X19417682Y-16792484D01*
X19417682Y-16792484D02*
X19389111Y-16792484D01*
X19570063Y-16792484D02*
X19551015Y-16782960D01*
X19551015Y-16782960D02*
X19541492Y-16763912D01*
X19541492Y-16763912D02*
X19541492Y-16592484D01*
X19722444Y-16782960D02*
X19703396Y-16792484D01*
X19703396Y-16792484D02*
X19665301Y-16792484D01*
X19665301Y-16792484D02*
X19646253Y-16782960D01*
X19646253Y-16782960D02*
X19636730Y-16763912D01*
X19636730Y-16763912D02*
X19636730Y-16687722D01*
X19636730Y-16687722D02*
X19646253Y-16668674D01*
X19646253Y-16668674D02*
X19665301Y-16659150D01*
X19665301Y-16659150D02*
X19703396Y-16659150D01*
X19703396Y-16659150D02*
X19722444Y-16668674D01*
X19722444Y-16668674D02*
X19731968Y-16687722D01*
X19731968Y-16687722D02*
X19731968Y-16706769D01*
X19731968Y-16706769D02*
X19636730Y-16725817D01*
X19808158Y-16782960D02*
X19827206Y-16792484D01*
X19827206Y-16792484D02*
X19865301Y-16792484D01*
X19865301Y-16792484D02*
X19884349Y-16782960D01*
X19884349Y-16782960D02*
X19893873Y-16763912D01*
X19893873Y-16763912D02*
X19893873Y-16754388D01*
X19893873Y-16754388D02*
X19884349Y-16735341D01*
X19884349Y-16735341D02*
X19865301Y-16725817D01*
X19865301Y-16725817D02*
X19836730Y-16725817D01*
X19836730Y-16725817D02*
X19817682Y-16716293D01*
X19817682Y-16716293D02*
X19808158Y-16697246D01*
X19808158Y-16697246D02*
X19808158Y-16687722D01*
X19808158Y-16687722D02*
X19817682Y-16668674D01*
X19817682Y-16668674D02*
X19836730Y-16659150D01*
X19836730Y-16659150D02*
X19865301Y-16659150D01*
X19865301Y-16659150D02*
X19884349Y-16668674D01*
X19960539Y-16868674D02*
X19970063Y-16859150D01*
X19970063Y-16859150D02*
X19989111Y-16830579D01*
X19989111Y-16830579D02*
X19998634Y-16811531D01*
X19998634Y-16811531D02*
X20008158Y-16782960D01*
X20008158Y-16782960D02*
X20017682Y-16735341D01*
X20017682Y-16735341D02*
X20017682Y-16697246D01*
X20017682Y-16697246D02*
X20008158Y-16649627D01*
X20008158Y-16649627D02*
X19998634Y-16621055D01*
X19998634Y-16621055D02*
X19989111Y-16602008D01*
X19989111Y-16602008D02*
X19970063Y-16573436D01*
X19970063Y-16573436D02*
X19960539Y-16563912D01*
D16*
X14865000Y-16900000D02*
X14995000Y-17030000D01*
X14995000Y-16900000D02*
X14865000Y-17030000D01*
X14995000Y-16965000D02*
G75*
G03*
X14995000Y-16965000I-65000J0D01*
G01*
D11*
X15360539Y-17056484D02*
X15246253Y-17056484D01*
X15303396Y-17056484D02*
X15303396Y-16856484D01*
X15303396Y-16856484D02*
X15284348Y-16885055D01*
X15284348Y-16885055D02*
X15265301Y-16904103D01*
X15265301Y-16904103D02*
X15246253Y-16913627D01*
X15446253Y-17037436D02*
X15455777Y-17046960D01*
X15455777Y-17046960D02*
X15446253Y-17056484D01*
X15446253Y-17056484D02*
X15436729Y-17046960D01*
X15436729Y-17046960D02*
X15446253Y-17037436D01*
X15446253Y-17037436D02*
X15446253Y-17056484D01*
X15522443Y-16856484D02*
X15646253Y-16856484D01*
X15646253Y-16856484D02*
X15579586Y-16932674D01*
X15579586Y-16932674D02*
X15608158Y-16932674D01*
X15608158Y-16932674D02*
X15627205Y-16942198D01*
X15627205Y-16942198D02*
X15636729Y-16951722D01*
X15636729Y-16951722D02*
X15646253Y-16970770D01*
X15646253Y-16970770D02*
X15646253Y-17018389D01*
X15646253Y-17018389D02*
X15636729Y-17037436D01*
X15636729Y-17037436D02*
X15627205Y-17046960D01*
X15627205Y-17046960D02*
X15608158Y-17056484D01*
X15608158Y-17056484D02*
X15551015Y-17056484D01*
X15551015Y-17056484D02*
X15531967Y-17046960D01*
X15531967Y-17046960D02*
X15522443Y-17037436D01*
X15770062Y-16856484D02*
X15789110Y-16856484D01*
X15789110Y-16856484D02*
X15808158Y-16866008D01*
X15808158Y-16866008D02*
X15817682Y-16875531D01*
X15817682Y-16875531D02*
X15827205Y-16894579D01*
X15827205Y-16894579D02*
X15836729Y-16932674D01*
X15836729Y-16932674D02*
X15836729Y-16980293D01*
X15836729Y-16980293D02*
X15827205Y-17018389D01*
X15827205Y-17018389D02*
X15817682Y-17037436D01*
X15817682Y-17037436D02*
X15808158Y-17046960D01*
X15808158Y-17046960D02*
X15789110Y-17056484D01*
X15789110Y-17056484D02*
X15770062Y-17056484D01*
X15770062Y-17056484D02*
X15751015Y-17046960D01*
X15751015Y-17046960D02*
X15741491Y-17037436D01*
X15741491Y-17037436D02*
X15731967Y-17018389D01*
X15731967Y-17018389D02*
X15722443Y-16980293D01*
X15722443Y-16980293D02*
X15722443Y-16932674D01*
X15722443Y-16932674D02*
X15731967Y-16894579D01*
X15731967Y-16894579D02*
X15741491Y-16875531D01*
X15741491Y-16875531D02*
X15751015Y-16866008D01*
X15751015Y-16866008D02*
X15770062Y-16856484D01*
X15960539Y-16856484D02*
X15979586Y-16856484D01*
X15979586Y-16856484D02*
X15998634Y-16866008D01*
X15998634Y-16866008D02*
X16008158Y-16875531D01*
X16008158Y-16875531D02*
X16017682Y-16894579D01*
X16017682Y-16894579D02*
X16027205Y-16932674D01*
X16027205Y-16932674D02*
X16027205Y-16980293D01*
X16027205Y-16980293D02*
X16017682Y-17018389D01*
X16017682Y-17018389D02*
X16008158Y-17037436D01*
X16008158Y-17037436D02*
X15998634Y-17046960D01*
X15998634Y-17046960D02*
X15979586Y-17056484D01*
X15979586Y-17056484D02*
X15960539Y-17056484D01*
X15960539Y-17056484D02*
X15941491Y-17046960D01*
X15941491Y-17046960D02*
X15931967Y-17037436D01*
X15931967Y-17037436D02*
X15922443Y-17018389D01*
X15922443Y-17018389D02*
X15912920Y-16980293D01*
X15912920Y-16980293D02*
X15912920Y-16932674D01*
X15912920Y-16932674D02*
X15922443Y-16894579D01*
X15922443Y-16894579D02*
X15931967Y-16875531D01*
X15931967Y-16875531D02*
X15941491Y-16866008D01*
X15941491Y-16866008D02*
X15960539Y-16856484D01*
X16112920Y-17056484D02*
X16112920Y-16923150D01*
X16112920Y-16942198D02*
X16122443Y-16932674D01*
X16122443Y-16932674D02*
X16141491Y-16923150D01*
X16141491Y-16923150D02*
X16170063Y-16923150D01*
X16170063Y-16923150D02*
X16189110Y-16932674D01*
X16189110Y-16932674D02*
X16198634Y-16951722D01*
X16198634Y-16951722D02*
X16198634Y-17056484D01*
X16198634Y-16951722D02*
X16208158Y-16932674D01*
X16208158Y-16932674D02*
X16227205Y-16923150D01*
X16227205Y-16923150D02*
X16255777Y-16923150D01*
X16255777Y-16923150D02*
X16274824Y-16932674D01*
X16274824Y-16932674D02*
X16284348Y-16951722D01*
X16284348Y-16951722D02*
X16284348Y-17056484D01*
X16379586Y-17056484D02*
X16379586Y-16923150D01*
X16379586Y-16942198D02*
X16389110Y-16932674D01*
X16389110Y-16932674D02*
X16408158Y-16923150D01*
X16408158Y-16923150D02*
X16436729Y-16923150D01*
X16436729Y-16923150D02*
X16455777Y-16932674D01*
X16455777Y-16932674D02*
X16465301Y-16951722D01*
X16465301Y-16951722D02*
X16465301Y-17056484D01*
X16465301Y-16951722D02*
X16474824Y-16932674D01*
X16474824Y-16932674D02*
X16493872Y-16923150D01*
X16493872Y-16923150D02*
X16522443Y-16923150D01*
X16522443Y-16923150D02*
X16541491Y-16932674D01*
X16541491Y-16932674D02*
X16551015Y-16951722D01*
X16551015Y-16951722D02*
X16551015Y-17056484D01*
X16941491Y-16846960D02*
X16770063Y-17104103D01*
X17198634Y-16856484D02*
X17217682Y-16856484D01*
X17217682Y-16856484D02*
X17236729Y-16866008D01*
X17236729Y-16866008D02*
X17246253Y-16875531D01*
X17246253Y-16875531D02*
X17255777Y-16894579D01*
X17255777Y-16894579D02*
X17265301Y-16932674D01*
X17265301Y-16932674D02*
X17265301Y-16980293D01*
X17265301Y-16980293D02*
X17255777Y-17018389D01*
X17255777Y-17018389D02*
X17246253Y-17037436D01*
X17246253Y-17037436D02*
X17236729Y-17046960D01*
X17236729Y-17046960D02*
X17217682Y-17056484D01*
X17217682Y-17056484D02*
X17198634Y-17056484D01*
X17198634Y-17056484D02*
X17179587Y-17046960D01*
X17179587Y-17046960D02*
X17170063Y-17037436D01*
X17170063Y-17037436D02*
X17160539Y-17018389D01*
X17160539Y-17018389D02*
X17151015Y-16980293D01*
X17151015Y-16980293D02*
X17151015Y-16932674D01*
X17151015Y-16932674D02*
X17160539Y-16894579D01*
X17160539Y-16894579D02*
X17170063Y-16875531D01*
X17170063Y-16875531D02*
X17179587Y-16866008D01*
X17179587Y-16866008D02*
X17198634Y-16856484D01*
X17351015Y-17037436D02*
X17360539Y-17046960D01*
X17360539Y-17046960D02*
X17351015Y-17056484D01*
X17351015Y-17056484D02*
X17341491Y-17046960D01*
X17341491Y-17046960D02*
X17351015Y-17037436D01*
X17351015Y-17037436D02*
X17351015Y-17056484D01*
X17484348Y-16856484D02*
X17503396Y-16856484D01*
X17503396Y-16856484D02*
X17522444Y-16866008D01*
X17522444Y-16866008D02*
X17531968Y-16875531D01*
X17531968Y-16875531D02*
X17541491Y-16894579D01*
X17541491Y-16894579D02*
X17551015Y-16932674D01*
X17551015Y-16932674D02*
X17551015Y-16980293D01*
X17551015Y-16980293D02*
X17541491Y-17018389D01*
X17541491Y-17018389D02*
X17531968Y-17037436D01*
X17531968Y-17037436D02*
X17522444Y-17046960D01*
X17522444Y-17046960D02*
X17503396Y-17056484D01*
X17503396Y-17056484D02*
X17484348Y-17056484D01*
X17484348Y-17056484D02*
X17465301Y-17046960D01*
X17465301Y-17046960D02*
X17455777Y-17037436D01*
X17455777Y-17037436D02*
X17446253Y-17018389D01*
X17446253Y-17018389D02*
X17436729Y-16980293D01*
X17436729Y-16980293D02*
X17436729Y-16932674D01*
X17436729Y-16932674D02*
X17446253Y-16894579D01*
X17446253Y-16894579D02*
X17455777Y-16875531D01*
X17455777Y-16875531D02*
X17465301Y-16866008D01*
X17465301Y-16866008D02*
X17484348Y-16856484D01*
X17731968Y-16856484D02*
X17636729Y-16856484D01*
X17636729Y-16856484D02*
X17627206Y-16951722D01*
X17627206Y-16951722D02*
X17636729Y-16942198D01*
X17636729Y-16942198D02*
X17655777Y-16932674D01*
X17655777Y-16932674D02*
X17703396Y-16932674D01*
X17703396Y-16932674D02*
X17722444Y-16942198D01*
X17722444Y-16942198D02*
X17731968Y-16951722D01*
X17731968Y-16951722D02*
X17741491Y-16970770D01*
X17741491Y-16970770D02*
X17741491Y-17018389D01*
X17741491Y-17018389D02*
X17731968Y-17037436D01*
X17731968Y-17037436D02*
X17722444Y-17046960D01*
X17722444Y-17046960D02*
X17703396Y-17056484D01*
X17703396Y-17056484D02*
X17655777Y-17056484D01*
X17655777Y-17056484D02*
X17636729Y-17046960D01*
X17636729Y-17046960D02*
X17627206Y-17037436D01*
X17931968Y-17056484D02*
X17817682Y-17056484D01*
X17874825Y-17056484D02*
X17874825Y-16856484D01*
X17874825Y-16856484D02*
X17855777Y-16885055D01*
X17855777Y-16885055D02*
X17836729Y-16904103D01*
X17836729Y-16904103D02*
X17817682Y-16913627D01*
X18008158Y-16875531D02*
X18017682Y-16866008D01*
X18017682Y-16866008D02*
X18036729Y-16856484D01*
X18036729Y-16856484D02*
X18084349Y-16856484D01*
X18084349Y-16856484D02*
X18103396Y-16866008D01*
X18103396Y-16866008D02*
X18112920Y-16875531D01*
X18112920Y-16875531D02*
X18122444Y-16894579D01*
X18122444Y-16894579D02*
X18122444Y-16913627D01*
X18122444Y-16913627D02*
X18112920Y-16942198D01*
X18112920Y-16942198D02*
X17998634Y-17056484D01*
X17998634Y-17056484D02*
X18122444Y-17056484D01*
X18198634Y-16856484D02*
X18198634Y-16894579D01*
X18274825Y-16856484D02*
X18274825Y-16894579D01*
X18570063Y-17132674D02*
X18560539Y-17123150D01*
X18560539Y-17123150D02*
X18541491Y-17094579D01*
X18541491Y-17094579D02*
X18531968Y-17075531D01*
X18531968Y-17075531D02*
X18522444Y-17046960D01*
X18522444Y-17046960D02*
X18512920Y-16999341D01*
X18512920Y-16999341D02*
X18512920Y-16961246D01*
X18512920Y-16961246D02*
X18522444Y-16913627D01*
X18522444Y-16913627D02*
X18531968Y-16885055D01*
X18531968Y-16885055D02*
X18541491Y-16866008D01*
X18541491Y-16866008D02*
X18560539Y-16837436D01*
X18560539Y-16837436D02*
X18570063Y-16827912D01*
X18751015Y-17056484D02*
X18636730Y-17056484D01*
X18693872Y-17056484D02*
X18693872Y-16856484D01*
X18693872Y-16856484D02*
X18674825Y-16885055D01*
X18674825Y-16885055D02*
X18655777Y-16904103D01*
X18655777Y-16904103D02*
X18636730Y-16913627D01*
X18874825Y-16856484D02*
X18893872Y-16856484D01*
X18893872Y-16856484D02*
X18912920Y-16866008D01*
X18912920Y-16866008D02*
X18922444Y-16875531D01*
X18922444Y-16875531D02*
X18931968Y-16894579D01*
X18931968Y-16894579D02*
X18941491Y-16932674D01*
X18941491Y-16932674D02*
X18941491Y-16980293D01*
X18941491Y-16980293D02*
X18931968Y-17018389D01*
X18931968Y-17018389D02*
X18922444Y-17037436D01*
X18922444Y-17037436D02*
X18912920Y-17046960D01*
X18912920Y-17046960D02*
X18893872Y-17056484D01*
X18893872Y-17056484D02*
X18874825Y-17056484D01*
X18874825Y-17056484D02*
X18855777Y-17046960D01*
X18855777Y-17046960D02*
X18846253Y-17037436D01*
X18846253Y-17037436D02*
X18836730Y-17018389D01*
X18836730Y-17018389D02*
X18827206Y-16980293D01*
X18827206Y-16980293D02*
X18827206Y-16932674D01*
X18827206Y-16932674D02*
X18836730Y-16894579D01*
X18836730Y-16894579D02*
X18846253Y-16875531D01*
X18846253Y-16875531D02*
X18855777Y-16866008D01*
X18855777Y-16866008D02*
X18874825Y-16856484D01*
X19179587Y-17056484D02*
X19179587Y-16856484D01*
X19265301Y-17056484D02*
X19265301Y-16951722D01*
X19265301Y-16951722D02*
X19255777Y-16932674D01*
X19255777Y-16932674D02*
X19236730Y-16923150D01*
X19236730Y-16923150D02*
X19208158Y-16923150D01*
X19208158Y-16923150D02*
X19189111Y-16932674D01*
X19189111Y-16932674D02*
X19179587Y-16942198D01*
X19389111Y-17056484D02*
X19370063Y-17046960D01*
X19370063Y-17046960D02*
X19360539Y-17037436D01*
X19360539Y-17037436D02*
X19351015Y-17018389D01*
X19351015Y-17018389D02*
X19351015Y-16961246D01*
X19351015Y-16961246D02*
X19360539Y-16942198D01*
X19360539Y-16942198D02*
X19370063Y-16932674D01*
X19370063Y-16932674D02*
X19389111Y-16923150D01*
X19389111Y-16923150D02*
X19417682Y-16923150D01*
X19417682Y-16923150D02*
X19436730Y-16932674D01*
X19436730Y-16932674D02*
X19446253Y-16942198D01*
X19446253Y-16942198D02*
X19455777Y-16961246D01*
X19455777Y-16961246D02*
X19455777Y-17018389D01*
X19455777Y-17018389D02*
X19446253Y-17037436D01*
X19446253Y-17037436D02*
X19436730Y-17046960D01*
X19436730Y-17046960D02*
X19417682Y-17056484D01*
X19417682Y-17056484D02*
X19389111Y-17056484D01*
X19570063Y-17056484D02*
X19551015Y-17046960D01*
X19551015Y-17046960D02*
X19541492Y-17027912D01*
X19541492Y-17027912D02*
X19541492Y-16856484D01*
X19722444Y-17046960D02*
X19703396Y-17056484D01*
X19703396Y-17056484D02*
X19665301Y-17056484D01*
X19665301Y-17056484D02*
X19646253Y-17046960D01*
X19646253Y-17046960D02*
X19636730Y-17027912D01*
X19636730Y-17027912D02*
X19636730Y-16951722D01*
X19636730Y-16951722D02*
X19646253Y-16932674D01*
X19646253Y-16932674D02*
X19665301Y-16923150D01*
X19665301Y-16923150D02*
X19703396Y-16923150D01*
X19703396Y-16923150D02*
X19722444Y-16932674D01*
X19722444Y-16932674D02*
X19731968Y-16951722D01*
X19731968Y-16951722D02*
X19731968Y-16970770D01*
X19731968Y-16970770D02*
X19636730Y-16989817D01*
X19808158Y-17046960D02*
X19827206Y-17056484D01*
X19827206Y-17056484D02*
X19865301Y-17056484D01*
X19865301Y-17056484D02*
X19884349Y-17046960D01*
X19884349Y-17046960D02*
X19893873Y-17027912D01*
X19893873Y-17027912D02*
X19893873Y-17018389D01*
X19893873Y-17018389D02*
X19884349Y-16999341D01*
X19884349Y-16999341D02*
X19865301Y-16989817D01*
X19865301Y-16989817D02*
X19836730Y-16989817D01*
X19836730Y-16989817D02*
X19817682Y-16980293D01*
X19817682Y-16980293D02*
X19808158Y-16961246D01*
X19808158Y-16961246D02*
X19808158Y-16951722D01*
X19808158Y-16951722D02*
X19817682Y-16932674D01*
X19817682Y-16932674D02*
X19836730Y-16923150D01*
X19836730Y-16923150D02*
X19865301Y-16923150D01*
X19865301Y-16923150D02*
X19884349Y-16932674D01*
X19960539Y-17132674D02*
X19970063Y-17123150D01*
X19970063Y-17123150D02*
X19989111Y-17094579D01*
X19989111Y-17094579D02*
X19998634Y-17075531D01*
X19998634Y-17075531D02*
X20008158Y-17046960D01*
X20008158Y-17046960D02*
X20017682Y-16999341D01*
X20017682Y-16999341D02*
X20017682Y-16961246D01*
X20017682Y-16961246D02*
X20008158Y-16913627D01*
X20008158Y-16913627D02*
X19998634Y-16885055D01*
X19998634Y-16885055D02*
X19989111Y-16866008D01*
X19989111Y-16866008D02*
X19970063Y-16837436D01*
X19970063Y-16837436D02*
X19960539Y-16827912D01*
D17*
X14835000Y-17149000D02*
X14995000Y-17309000D01*
X14995000Y-17149000D02*
X14835000Y-17309000D01*
X14915000Y-17149000D02*
X14915000Y-17309000D01*
X14835000Y-17229000D02*
X14995000Y-17229000D01*
D11*
X15360539Y-17320484D02*
X15246253Y-17320484D01*
X15303396Y-17320484D02*
X15303396Y-17120484D01*
X15303396Y-17120484D02*
X15284348Y-17149055D01*
X15284348Y-17149055D02*
X15265301Y-17168103D01*
X15265301Y-17168103D02*
X15246253Y-17177627D01*
X15446253Y-17301436D02*
X15455777Y-17310960D01*
X15455777Y-17310960D02*
X15446253Y-17320484D01*
X15446253Y-17320484D02*
X15436729Y-17310960D01*
X15436729Y-17310960D02*
X15446253Y-17301436D01*
X15446253Y-17301436D02*
X15446253Y-17320484D01*
X15627205Y-17120484D02*
X15589110Y-17120484D01*
X15589110Y-17120484D02*
X15570062Y-17130008D01*
X15570062Y-17130008D02*
X15560539Y-17139531D01*
X15560539Y-17139531D02*
X15541491Y-17168103D01*
X15541491Y-17168103D02*
X15531967Y-17206198D01*
X15531967Y-17206198D02*
X15531967Y-17282389D01*
X15531967Y-17282389D02*
X15541491Y-17301436D01*
X15541491Y-17301436D02*
X15551015Y-17310960D01*
X15551015Y-17310960D02*
X15570062Y-17320484D01*
X15570062Y-17320484D02*
X15608158Y-17320484D01*
X15608158Y-17320484D02*
X15627205Y-17310960D01*
X15627205Y-17310960D02*
X15636729Y-17301436D01*
X15636729Y-17301436D02*
X15646253Y-17282389D01*
X15646253Y-17282389D02*
X15646253Y-17234770D01*
X15646253Y-17234770D02*
X15636729Y-17215722D01*
X15636729Y-17215722D02*
X15627205Y-17206198D01*
X15627205Y-17206198D02*
X15608158Y-17196674D01*
X15608158Y-17196674D02*
X15570062Y-17196674D01*
X15570062Y-17196674D02*
X15551015Y-17206198D01*
X15551015Y-17206198D02*
X15541491Y-17215722D01*
X15541491Y-17215722D02*
X15531967Y-17234770D01*
X15770062Y-17120484D02*
X15789110Y-17120484D01*
X15789110Y-17120484D02*
X15808158Y-17130008D01*
X15808158Y-17130008D02*
X15817682Y-17139531D01*
X15817682Y-17139531D02*
X15827205Y-17158579D01*
X15827205Y-17158579D02*
X15836729Y-17196674D01*
X15836729Y-17196674D02*
X15836729Y-17244293D01*
X15836729Y-17244293D02*
X15827205Y-17282389D01*
X15827205Y-17282389D02*
X15817682Y-17301436D01*
X15817682Y-17301436D02*
X15808158Y-17310960D01*
X15808158Y-17310960D02*
X15789110Y-17320484D01*
X15789110Y-17320484D02*
X15770062Y-17320484D01*
X15770062Y-17320484D02*
X15751015Y-17310960D01*
X15751015Y-17310960D02*
X15741491Y-17301436D01*
X15741491Y-17301436D02*
X15731967Y-17282389D01*
X15731967Y-17282389D02*
X15722443Y-17244293D01*
X15722443Y-17244293D02*
X15722443Y-17196674D01*
X15722443Y-17196674D02*
X15731967Y-17158579D01*
X15731967Y-17158579D02*
X15741491Y-17139531D01*
X15741491Y-17139531D02*
X15751015Y-17130008D01*
X15751015Y-17130008D02*
X15770062Y-17120484D01*
X15960539Y-17120484D02*
X15979586Y-17120484D01*
X15979586Y-17120484D02*
X15998634Y-17130008D01*
X15998634Y-17130008D02*
X16008158Y-17139531D01*
X16008158Y-17139531D02*
X16017682Y-17158579D01*
X16017682Y-17158579D02*
X16027205Y-17196674D01*
X16027205Y-17196674D02*
X16027205Y-17244293D01*
X16027205Y-17244293D02*
X16017682Y-17282389D01*
X16017682Y-17282389D02*
X16008158Y-17301436D01*
X16008158Y-17301436D02*
X15998634Y-17310960D01*
X15998634Y-17310960D02*
X15979586Y-17320484D01*
X15979586Y-17320484D02*
X15960539Y-17320484D01*
X15960539Y-17320484D02*
X15941491Y-17310960D01*
X15941491Y-17310960D02*
X15931967Y-17301436D01*
X15931967Y-17301436D02*
X15922443Y-17282389D01*
X15922443Y-17282389D02*
X15912920Y-17244293D01*
X15912920Y-17244293D02*
X15912920Y-17196674D01*
X15912920Y-17196674D02*
X15922443Y-17158579D01*
X15922443Y-17158579D02*
X15931967Y-17139531D01*
X15931967Y-17139531D02*
X15941491Y-17130008D01*
X15941491Y-17130008D02*
X15960539Y-17120484D01*
X16112920Y-17320484D02*
X16112920Y-17187150D01*
X16112920Y-17206198D02*
X16122443Y-17196674D01*
X16122443Y-17196674D02*
X16141491Y-17187150D01*
X16141491Y-17187150D02*
X16170063Y-17187150D01*
X16170063Y-17187150D02*
X16189110Y-17196674D01*
X16189110Y-17196674D02*
X16198634Y-17215722D01*
X16198634Y-17215722D02*
X16198634Y-17320484D01*
X16198634Y-17215722D02*
X16208158Y-17196674D01*
X16208158Y-17196674D02*
X16227205Y-17187150D01*
X16227205Y-17187150D02*
X16255777Y-17187150D01*
X16255777Y-17187150D02*
X16274824Y-17196674D01*
X16274824Y-17196674D02*
X16284348Y-17215722D01*
X16284348Y-17215722D02*
X16284348Y-17320484D01*
X16379586Y-17320484D02*
X16379586Y-17187150D01*
X16379586Y-17206198D02*
X16389110Y-17196674D01*
X16389110Y-17196674D02*
X16408158Y-17187150D01*
X16408158Y-17187150D02*
X16436729Y-17187150D01*
X16436729Y-17187150D02*
X16455777Y-17196674D01*
X16455777Y-17196674D02*
X16465301Y-17215722D01*
X16465301Y-17215722D02*
X16465301Y-17320484D01*
X16465301Y-17215722D02*
X16474824Y-17196674D01*
X16474824Y-17196674D02*
X16493872Y-17187150D01*
X16493872Y-17187150D02*
X16522443Y-17187150D01*
X16522443Y-17187150D02*
X16541491Y-17196674D01*
X16541491Y-17196674D02*
X16551015Y-17215722D01*
X16551015Y-17215722D02*
X16551015Y-17320484D01*
X16941491Y-17110960D02*
X16770063Y-17368103D01*
X17198634Y-17120484D02*
X17217682Y-17120484D01*
X17217682Y-17120484D02*
X17236729Y-17130008D01*
X17236729Y-17130008D02*
X17246253Y-17139531D01*
X17246253Y-17139531D02*
X17255777Y-17158579D01*
X17255777Y-17158579D02*
X17265301Y-17196674D01*
X17265301Y-17196674D02*
X17265301Y-17244293D01*
X17265301Y-17244293D02*
X17255777Y-17282389D01*
X17255777Y-17282389D02*
X17246253Y-17301436D01*
X17246253Y-17301436D02*
X17236729Y-17310960D01*
X17236729Y-17310960D02*
X17217682Y-17320484D01*
X17217682Y-17320484D02*
X17198634Y-17320484D01*
X17198634Y-17320484D02*
X17179587Y-17310960D01*
X17179587Y-17310960D02*
X17170063Y-17301436D01*
X17170063Y-17301436D02*
X17160539Y-17282389D01*
X17160539Y-17282389D02*
X17151015Y-17244293D01*
X17151015Y-17244293D02*
X17151015Y-17196674D01*
X17151015Y-17196674D02*
X17160539Y-17158579D01*
X17160539Y-17158579D02*
X17170063Y-17139531D01*
X17170063Y-17139531D02*
X17179587Y-17130008D01*
X17179587Y-17130008D02*
X17198634Y-17120484D01*
X17351015Y-17301436D02*
X17360539Y-17310960D01*
X17360539Y-17310960D02*
X17351015Y-17320484D01*
X17351015Y-17320484D02*
X17341491Y-17310960D01*
X17341491Y-17310960D02*
X17351015Y-17301436D01*
X17351015Y-17301436D02*
X17351015Y-17320484D01*
X17484348Y-17120484D02*
X17503396Y-17120484D01*
X17503396Y-17120484D02*
X17522444Y-17130008D01*
X17522444Y-17130008D02*
X17531968Y-17139531D01*
X17531968Y-17139531D02*
X17541491Y-17158579D01*
X17541491Y-17158579D02*
X17551015Y-17196674D01*
X17551015Y-17196674D02*
X17551015Y-17244293D01*
X17551015Y-17244293D02*
X17541491Y-17282389D01*
X17541491Y-17282389D02*
X17531968Y-17301436D01*
X17531968Y-17301436D02*
X17522444Y-17310960D01*
X17522444Y-17310960D02*
X17503396Y-17320484D01*
X17503396Y-17320484D02*
X17484348Y-17320484D01*
X17484348Y-17320484D02*
X17465301Y-17310960D01*
X17465301Y-17310960D02*
X17455777Y-17301436D01*
X17455777Y-17301436D02*
X17446253Y-17282389D01*
X17446253Y-17282389D02*
X17436729Y-17244293D01*
X17436729Y-17244293D02*
X17436729Y-17196674D01*
X17436729Y-17196674D02*
X17446253Y-17158579D01*
X17446253Y-17158579D02*
X17455777Y-17139531D01*
X17455777Y-17139531D02*
X17465301Y-17130008D01*
X17465301Y-17130008D02*
X17484348Y-17120484D01*
X17722444Y-17120484D02*
X17684348Y-17120484D01*
X17684348Y-17120484D02*
X17665301Y-17130008D01*
X17665301Y-17130008D02*
X17655777Y-17139531D01*
X17655777Y-17139531D02*
X17636729Y-17168103D01*
X17636729Y-17168103D02*
X17627206Y-17206198D01*
X17627206Y-17206198D02*
X17627206Y-17282389D01*
X17627206Y-17282389D02*
X17636729Y-17301436D01*
X17636729Y-17301436D02*
X17646253Y-17310960D01*
X17646253Y-17310960D02*
X17665301Y-17320484D01*
X17665301Y-17320484D02*
X17703396Y-17320484D01*
X17703396Y-17320484D02*
X17722444Y-17310960D01*
X17722444Y-17310960D02*
X17731968Y-17301436D01*
X17731968Y-17301436D02*
X17741491Y-17282389D01*
X17741491Y-17282389D02*
X17741491Y-17234770D01*
X17741491Y-17234770D02*
X17731968Y-17215722D01*
X17731968Y-17215722D02*
X17722444Y-17206198D01*
X17722444Y-17206198D02*
X17703396Y-17196674D01*
X17703396Y-17196674D02*
X17665301Y-17196674D01*
X17665301Y-17196674D02*
X17646253Y-17206198D01*
X17646253Y-17206198D02*
X17636729Y-17215722D01*
X17636729Y-17215722D02*
X17627206Y-17234770D01*
X17808158Y-17120484D02*
X17931968Y-17120484D01*
X17931968Y-17120484D02*
X17865301Y-17196674D01*
X17865301Y-17196674D02*
X17893872Y-17196674D01*
X17893872Y-17196674D02*
X17912920Y-17206198D01*
X17912920Y-17206198D02*
X17922444Y-17215722D01*
X17922444Y-17215722D02*
X17931968Y-17234770D01*
X17931968Y-17234770D02*
X17931968Y-17282389D01*
X17931968Y-17282389D02*
X17922444Y-17301436D01*
X17922444Y-17301436D02*
X17912920Y-17310960D01*
X17912920Y-17310960D02*
X17893872Y-17320484D01*
X17893872Y-17320484D02*
X17836729Y-17320484D01*
X17836729Y-17320484D02*
X17817682Y-17310960D01*
X17817682Y-17310960D02*
X17808158Y-17301436D01*
X18055777Y-17120484D02*
X18074825Y-17120484D01*
X18074825Y-17120484D02*
X18093872Y-17130008D01*
X18093872Y-17130008D02*
X18103396Y-17139531D01*
X18103396Y-17139531D02*
X18112920Y-17158579D01*
X18112920Y-17158579D02*
X18122444Y-17196674D01*
X18122444Y-17196674D02*
X18122444Y-17244293D01*
X18122444Y-17244293D02*
X18112920Y-17282389D01*
X18112920Y-17282389D02*
X18103396Y-17301436D01*
X18103396Y-17301436D02*
X18093872Y-17310960D01*
X18093872Y-17310960D02*
X18074825Y-17320484D01*
X18074825Y-17320484D02*
X18055777Y-17320484D01*
X18055777Y-17320484D02*
X18036729Y-17310960D01*
X18036729Y-17310960D02*
X18027206Y-17301436D01*
X18027206Y-17301436D02*
X18017682Y-17282389D01*
X18017682Y-17282389D02*
X18008158Y-17244293D01*
X18008158Y-17244293D02*
X18008158Y-17196674D01*
X18008158Y-17196674D02*
X18017682Y-17158579D01*
X18017682Y-17158579D02*
X18027206Y-17139531D01*
X18027206Y-17139531D02*
X18036729Y-17130008D01*
X18036729Y-17130008D02*
X18055777Y-17120484D01*
X18198634Y-17120484D02*
X18198634Y-17158579D01*
X18274825Y-17120484D02*
X18274825Y-17158579D01*
X18570063Y-17396674D02*
X18560539Y-17387150D01*
X18560539Y-17387150D02*
X18541491Y-17358579D01*
X18541491Y-17358579D02*
X18531968Y-17339531D01*
X18531968Y-17339531D02*
X18522444Y-17310960D01*
X18522444Y-17310960D02*
X18512920Y-17263341D01*
X18512920Y-17263341D02*
X18512920Y-17225246D01*
X18512920Y-17225246D02*
X18522444Y-17177627D01*
X18522444Y-17177627D02*
X18531968Y-17149055D01*
X18531968Y-17149055D02*
X18541491Y-17130008D01*
X18541491Y-17130008D02*
X18560539Y-17101436D01*
X18560539Y-17101436D02*
X18570063Y-17091912D01*
X18636730Y-17139531D02*
X18646253Y-17130008D01*
X18646253Y-17130008D02*
X18665301Y-17120484D01*
X18665301Y-17120484D02*
X18712920Y-17120484D01*
X18712920Y-17120484D02*
X18731968Y-17130008D01*
X18731968Y-17130008D02*
X18741491Y-17139531D01*
X18741491Y-17139531D02*
X18751015Y-17158579D01*
X18751015Y-17158579D02*
X18751015Y-17177627D01*
X18751015Y-17177627D02*
X18741491Y-17206198D01*
X18741491Y-17206198D02*
X18627206Y-17320484D01*
X18627206Y-17320484D02*
X18751015Y-17320484D01*
X18989111Y-17320484D02*
X18989111Y-17120484D01*
X19074825Y-17320484D02*
X19074825Y-17215722D01*
X19074825Y-17215722D02*
X19065301Y-17196674D01*
X19065301Y-17196674D02*
X19046253Y-17187150D01*
X19046253Y-17187150D02*
X19017682Y-17187150D01*
X19017682Y-17187150D02*
X18998634Y-17196674D01*
X18998634Y-17196674D02*
X18989111Y-17206198D01*
X19198634Y-17320484D02*
X19179587Y-17310960D01*
X19179587Y-17310960D02*
X19170063Y-17301436D01*
X19170063Y-17301436D02*
X19160539Y-17282389D01*
X19160539Y-17282389D02*
X19160539Y-17225246D01*
X19160539Y-17225246D02*
X19170063Y-17206198D01*
X19170063Y-17206198D02*
X19179587Y-17196674D01*
X19179587Y-17196674D02*
X19198634Y-17187150D01*
X19198634Y-17187150D02*
X19227206Y-17187150D01*
X19227206Y-17187150D02*
X19246253Y-17196674D01*
X19246253Y-17196674D02*
X19255777Y-17206198D01*
X19255777Y-17206198D02*
X19265301Y-17225246D01*
X19265301Y-17225246D02*
X19265301Y-17282389D01*
X19265301Y-17282389D02*
X19255777Y-17301436D01*
X19255777Y-17301436D02*
X19246253Y-17310960D01*
X19246253Y-17310960D02*
X19227206Y-17320484D01*
X19227206Y-17320484D02*
X19198634Y-17320484D01*
X19379587Y-17320484D02*
X19360539Y-17310960D01*
X19360539Y-17310960D02*
X19351015Y-17291912D01*
X19351015Y-17291912D02*
X19351015Y-17120484D01*
X19531968Y-17310960D02*
X19512920Y-17320484D01*
X19512920Y-17320484D02*
X19474825Y-17320484D01*
X19474825Y-17320484D02*
X19455777Y-17310960D01*
X19455777Y-17310960D02*
X19446253Y-17291912D01*
X19446253Y-17291912D02*
X19446253Y-17215722D01*
X19446253Y-17215722D02*
X19455777Y-17196674D01*
X19455777Y-17196674D02*
X19474825Y-17187150D01*
X19474825Y-17187150D02*
X19512920Y-17187150D01*
X19512920Y-17187150D02*
X19531968Y-17196674D01*
X19531968Y-17196674D02*
X19541492Y-17215722D01*
X19541492Y-17215722D02*
X19541492Y-17234770D01*
X19541492Y-17234770D02*
X19446253Y-17253817D01*
X19617682Y-17310960D02*
X19636730Y-17320484D01*
X19636730Y-17320484D02*
X19674825Y-17320484D01*
X19674825Y-17320484D02*
X19693873Y-17310960D01*
X19693873Y-17310960D02*
X19703396Y-17291912D01*
X19703396Y-17291912D02*
X19703396Y-17282389D01*
X19703396Y-17282389D02*
X19693873Y-17263341D01*
X19693873Y-17263341D02*
X19674825Y-17253817D01*
X19674825Y-17253817D02*
X19646253Y-17253817D01*
X19646253Y-17253817D02*
X19627206Y-17244293D01*
X19627206Y-17244293D02*
X19617682Y-17225246D01*
X19617682Y-17225246D02*
X19617682Y-17215722D01*
X19617682Y-17215722D02*
X19627206Y-17196674D01*
X19627206Y-17196674D02*
X19646253Y-17187150D01*
X19646253Y-17187150D02*
X19674825Y-17187150D01*
X19674825Y-17187150D02*
X19693873Y-17196674D01*
X19770063Y-17396674D02*
X19779587Y-17387150D01*
X19779587Y-17387150D02*
X19798634Y-17358579D01*
X19798634Y-17358579D02*
X19808158Y-17339531D01*
X19808158Y-17339531D02*
X19817682Y-17310960D01*
X19817682Y-17310960D02*
X19827206Y-17263341D01*
X19827206Y-17263341D02*
X19827206Y-17225246D01*
X19827206Y-17225246D02*
X19817682Y-17177627D01*
X19817682Y-17177627D02*
X19808158Y-17149055D01*
X19808158Y-17149055D02*
X19798634Y-17130008D01*
X19798634Y-17130008D02*
X19779587Y-17101436D01*
X19779587Y-17101436D02*
X19770063Y-17091912D01*
X14795000Y-17409000D02*
X14995000Y-17609000D01*
X14995000Y-17409000D02*
X14795000Y-17609000D01*
X14965711Y-17579711D02*
X14965711Y-17438289D01*
X14824289Y-17438289D01*
X14824289Y-17579711D01*
X14965711Y-17579711D01*
X15236729Y-17400484D02*
X15360539Y-17400484D01*
X15360539Y-17400484D02*
X15293872Y-17476674D01*
X15293872Y-17476674D02*
X15322443Y-17476674D01*
X15322443Y-17476674D02*
X15341491Y-17486198D01*
X15341491Y-17486198D02*
X15351015Y-17495722D01*
X15351015Y-17495722D02*
X15360539Y-17514770D01*
X15360539Y-17514770D02*
X15360539Y-17562389D01*
X15360539Y-17562389D02*
X15351015Y-17581436D01*
X15351015Y-17581436D02*
X15341491Y-17590960D01*
X15341491Y-17590960D02*
X15322443Y-17600484D01*
X15322443Y-17600484D02*
X15265301Y-17600484D01*
X15265301Y-17600484D02*
X15246253Y-17590960D01*
X15246253Y-17590960D02*
X15236729Y-17581436D01*
X15446253Y-17581436D02*
X15455777Y-17590960D01*
X15455777Y-17590960D02*
X15446253Y-17600484D01*
X15446253Y-17600484D02*
X15436729Y-17590960D01*
X15436729Y-17590960D02*
X15446253Y-17581436D01*
X15446253Y-17581436D02*
X15446253Y-17600484D01*
X15531967Y-17419531D02*
X15541491Y-17410008D01*
X15541491Y-17410008D02*
X15560539Y-17400484D01*
X15560539Y-17400484D02*
X15608158Y-17400484D01*
X15608158Y-17400484D02*
X15627205Y-17410008D01*
X15627205Y-17410008D02*
X15636729Y-17419531D01*
X15636729Y-17419531D02*
X15646253Y-17438579D01*
X15646253Y-17438579D02*
X15646253Y-17457627D01*
X15646253Y-17457627D02*
X15636729Y-17486198D01*
X15636729Y-17486198D02*
X15522443Y-17600484D01*
X15522443Y-17600484D02*
X15646253Y-17600484D01*
X15770062Y-17400484D02*
X15789110Y-17400484D01*
X15789110Y-17400484D02*
X15808158Y-17410008D01*
X15808158Y-17410008D02*
X15817682Y-17419531D01*
X15817682Y-17419531D02*
X15827205Y-17438579D01*
X15827205Y-17438579D02*
X15836729Y-17476674D01*
X15836729Y-17476674D02*
X15836729Y-17524293D01*
X15836729Y-17524293D02*
X15827205Y-17562389D01*
X15827205Y-17562389D02*
X15817682Y-17581436D01*
X15817682Y-17581436D02*
X15808158Y-17590960D01*
X15808158Y-17590960D02*
X15789110Y-17600484D01*
X15789110Y-17600484D02*
X15770062Y-17600484D01*
X15770062Y-17600484D02*
X15751015Y-17590960D01*
X15751015Y-17590960D02*
X15741491Y-17581436D01*
X15741491Y-17581436D02*
X15731967Y-17562389D01*
X15731967Y-17562389D02*
X15722443Y-17524293D01*
X15722443Y-17524293D02*
X15722443Y-17476674D01*
X15722443Y-17476674D02*
X15731967Y-17438579D01*
X15731967Y-17438579D02*
X15741491Y-17419531D01*
X15741491Y-17419531D02*
X15751015Y-17410008D01*
X15751015Y-17410008D02*
X15770062Y-17400484D01*
X15960539Y-17400484D02*
X15979586Y-17400484D01*
X15979586Y-17400484D02*
X15998634Y-17410008D01*
X15998634Y-17410008D02*
X16008158Y-17419531D01*
X16008158Y-17419531D02*
X16017682Y-17438579D01*
X16017682Y-17438579D02*
X16027205Y-17476674D01*
X16027205Y-17476674D02*
X16027205Y-17524293D01*
X16027205Y-17524293D02*
X16017682Y-17562389D01*
X16017682Y-17562389D02*
X16008158Y-17581436D01*
X16008158Y-17581436D02*
X15998634Y-17590960D01*
X15998634Y-17590960D02*
X15979586Y-17600484D01*
X15979586Y-17600484D02*
X15960539Y-17600484D01*
X15960539Y-17600484D02*
X15941491Y-17590960D01*
X15941491Y-17590960D02*
X15931967Y-17581436D01*
X15931967Y-17581436D02*
X15922443Y-17562389D01*
X15922443Y-17562389D02*
X15912920Y-17524293D01*
X15912920Y-17524293D02*
X15912920Y-17476674D01*
X15912920Y-17476674D02*
X15922443Y-17438579D01*
X15922443Y-17438579D02*
X15931967Y-17419531D01*
X15931967Y-17419531D02*
X15941491Y-17410008D01*
X15941491Y-17410008D02*
X15960539Y-17400484D01*
X16112920Y-17600484D02*
X16112920Y-17467150D01*
X16112920Y-17486198D02*
X16122443Y-17476674D01*
X16122443Y-17476674D02*
X16141491Y-17467150D01*
X16141491Y-17467150D02*
X16170063Y-17467150D01*
X16170063Y-17467150D02*
X16189110Y-17476674D01*
X16189110Y-17476674D02*
X16198634Y-17495722D01*
X16198634Y-17495722D02*
X16198634Y-17600484D01*
X16198634Y-17495722D02*
X16208158Y-17476674D01*
X16208158Y-17476674D02*
X16227205Y-17467150D01*
X16227205Y-17467150D02*
X16255777Y-17467150D01*
X16255777Y-17467150D02*
X16274824Y-17476674D01*
X16274824Y-17476674D02*
X16284348Y-17495722D01*
X16284348Y-17495722D02*
X16284348Y-17600484D01*
X16379586Y-17600484D02*
X16379586Y-17467150D01*
X16379586Y-17486198D02*
X16389110Y-17476674D01*
X16389110Y-17476674D02*
X16408158Y-17467150D01*
X16408158Y-17467150D02*
X16436729Y-17467150D01*
X16436729Y-17467150D02*
X16455777Y-17476674D01*
X16455777Y-17476674D02*
X16465301Y-17495722D01*
X16465301Y-17495722D02*
X16465301Y-17600484D01*
X16465301Y-17495722D02*
X16474824Y-17476674D01*
X16474824Y-17476674D02*
X16493872Y-17467150D01*
X16493872Y-17467150D02*
X16522443Y-17467150D01*
X16522443Y-17467150D02*
X16541491Y-17476674D01*
X16541491Y-17476674D02*
X16551015Y-17495722D01*
X16551015Y-17495722D02*
X16551015Y-17600484D01*
X16941491Y-17390960D02*
X16770063Y-17648103D01*
X17198634Y-17400484D02*
X17217682Y-17400484D01*
X17217682Y-17400484D02*
X17236729Y-17410008D01*
X17236729Y-17410008D02*
X17246253Y-17419531D01*
X17246253Y-17419531D02*
X17255777Y-17438579D01*
X17255777Y-17438579D02*
X17265301Y-17476674D01*
X17265301Y-17476674D02*
X17265301Y-17524293D01*
X17265301Y-17524293D02*
X17255777Y-17562389D01*
X17255777Y-17562389D02*
X17246253Y-17581436D01*
X17246253Y-17581436D02*
X17236729Y-17590960D01*
X17236729Y-17590960D02*
X17217682Y-17600484D01*
X17217682Y-17600484D02*
X17198634Y-17600484D01*
X17198634Y-17600484D02*
X17179587Y-17590960D01*
X17179587Y-17590960D02*
X17170063Y-17581436D01*
X17170063Y-17581436D02*
X17160539Y-17562389D01*
X17160539Y-17562389D02*
X17151015Y-17524293D01*
X17151015Y-17524293D02*
X17151015Y-17476674D01*
X17151015Y-17476674D02*
X17160539Y-17438579D01*
X17160539Y-17438579D02*
X17170063Y-17419531D01*
X17170063Y-17419531D02*
X17179587Y-17410008D01*
X17179587Y-17410008D02*
X17198634Y-17400484D01*
X17351015Y-17581436D02*
X17360539Y-17590960D01*
X17360539Y-17590960D02*
X17351015Y-17600484D01*
X17351015Y-17600484D02*
X17341491Y-17590960D01*
X17341491Y-17590960D02*
X17351015Y-17581436D01*
X17351015Y-17581436D02*
X17351015Y-17600484D01*
X17551015Y-17600484D02*
X17436729Y-17600484D01*
X17493872Y-17600484D02*
X17493872Y-17400484D01*
X17493872Y-17400484D02*
X17474825Y-17429055D01*
X17474825Y-17429055D02*
X17455777Y-17448103D01*
X17455777Y-17448103D02*
X17436729Y-17457627D01*
X17627206Y-17419531D02*
X17636729Y-17410008D01*
X17636729Y-17410008D02*
X17655777Y-17400484D01*
X17655777Y-17400484D02*
X17703396Y-17400484D01*
X17703396Y-17400484D02*
X17722444Y-17410008D01*
X17722444Y-17410008D02*
X17731968Y-17419531D01*
X17731968Y-17419531D02*
X17741491Y-17438579D01*
X17741491Y-17438579D02*
X17741491Y-17457627D01*
X17741491Y-17457627D02*
X17731968Y-17486198D01*
X17731968Y-17486198D02*
X17617682Y-17600484D01*
X17617682Y-17600484D02*
X17741491Y-17600484D01*
X17912920Y-17400484D02*
X17874825Y-17400484D01*
X17874825Y-17400484D02*
X17855777Y-17410008D01*
X17855777Y-17410008D02*
X17846253Y-17419531D01*
X17846253Y-17419531D02*
X17827206Y-17448103D01*
X17827206Y-17448103D02*
X17817682Y-17486198D01*
X17817682Y-17486198D02*
X17817682Y-17562389D01*
X17817682Y-17562389D02*
X17827206Y-17581436D01*
X17827206Y-17581436D02*
X17836729Y-17590960D01*
X17836729Y-17590960D02*
X17855777Y-17600484D01*
X17855777Y-17600484D02*
X17893872Y-17600484D01*
X17893872Y-17600484D02*
X17912920Y-17590960D01*
X17912920Y-17590960D02*
X17922444Y-17581436D01*
X17922444Y-17581436D02*
X17931968Y-17562389D01*
X17931968Y-17562389D02*
X17931968Y-17514770D01*
X17931968Y-17514770D02*
X17922444Y-17495722D01*
X17922444Y-17495722D02*
X17912920Y-17486198D01*
X17912920Y-17486198D02*
X17893872Y-17476674D01*
X17893872Y-17476674D02*
X17855777Y-17476674D01*
X17855777Y-17476674D02*
X17836729Y-17486198D01*
X17836729Y-17486198D02*
X17827206Y-17495722D01*
X17827206Y-17495722D02*
X17817682Y-17514770D01*
X18055777Y-17400484D02*
X18074825Y-17400484D01*
X18074825Y-17400484D02*
X18093872Y-17410008D01*
X18093872Y-17410008D02*
X18103396Y-17419531D01*
X18103396Y-17419531D02*
X18112920Y-17438579D01*
X18112920Y-17438579D02*
X18122444Y-17476674D01*
X18122444Y-17476674D02*
X18122444Y-17524293D01*
X18122444Y-17524293D02*
X18112920Y-17562389D01*
X18112920Y-17562389D02*
X18103396Y-17581436D01*
X18103396Y-17581436D02*
X18093872Y-17590960D01*
X18093872Y-17590960D02*
X18074825Y-17600484D01*
X18074825Y-17600484D02*
X18055777Y-17600484D01*
X18055777Y-17600484D02*
X18036729Y-17590960D01*
X18036729Y-17590960D02*
X18027206Y-17581436D01*
X18027206Y-17581436D02*
X18017682Y-17562389D01*
X18017682Y-17562389D02*
X18008158Y-17524293D01*
X18008158Y-17524293D02*
X18008158Y-17476674D01*
X18008158Y-17476674D02*
X18017682Y-17438579D01*
X18017682Y-17438579D02*
X18027206Y-17419531D01*
X18027206Y-17419531D02*
X18036729Y-17410008D01*
X18036729Y-17410008D02*
X18055777Y-17400484D01*
X18198634Y-17400484D02*
X18198634Y-17438579D01*
X18274825Y-17400484D02*
X18274825Y-17438579D01*
X18570063Y-17676674D02*
X18560539Y-17667150D01*
X18560539Y-17667150D02*
X18541491Y-17638579D01*
X18541491Y-17638579D02*
X18531968Y-17619531D01*
X18531968Y-17619531D02*
X18522444Y-17590960D01*
X18522444Y-17590960D02*
X18512920Y-17543341D01*
X18512920Y-17543341D02*
X18512920Y-17505246D01*
X18512920Y-17505246D02*
X18522444Y-17457627D01*
X18522444Y-17457627D02*
X18531968Y-17429055D01*
X18531968Y-17429055D02*
X18541491Y-17410008D01*
X18541491Y-17410008D02*
X18560539Y-17381436D01*
X18560539Y-17381436D02*
X18570063Y-17371912D01*
X18731968Y-17400484D02*
X18693872Y-17400484D01*
X18693872Y-17400484D02*
X18674825Y-17410008D01*
X18674825Y-17410008D02*
X18665301Y-17419531D01*
X18665301Y-17419531D02*
X18646253Y-17448103D01*
X18646253Y-17448103D02*
X18636730Y-17486198D01*
X18636730Y-17486198D02*
X18636730Y-17562389D01*
X18636730Y-17562389D02*
X18646253Y-17581436D01*
X18646253Y-17581436D02*
X18655777Y-17590960D01*
X18655777Y-17590960D02*
X18674825Y-17600484D01*
X18674825Y-17600484D02*
X18712920Y-17600484D01*
X18712920Y-17600484D02*
X18731968Y-17590960D01*
X18731968Y-17590960D02*
X18741491Y-17581436D01*
X18741491Y-17581436D02*
X18751015Y-17562389D01*
X18751015Y-17562389D02*
X18751015Y-17514770D01*
X18751015Y-17514770D02*
X18741491Y-17495722D01*
X18741491Y-17495722D02*
X18731968Y-17486198D01*
X18731968Y-17486198D02*
X18712920Y-17476674D01*
X18712920Y-17476674D02*
X18674825Y-17476674D01*
X18674825Y-17476674D02*
X18655777Y-17486198D01*
X18655777Y-17486198D02*
X18646253Y-17495722D01*
X18646253Y-17495722D02*
X18636730Y-17514770D01*
X18989111Y-17600484D02*
X18989111Y-17400484D01*
X19074825Y-17600484D02*
X19074825Y-17495722D01*
X19074825Y-17495722D02*
X19065301Y-17476674D01*
X19065301Y-17476674D02*
X19046253Y-17467150D01*
X19046253Y-17467150D02*
X19017682Y-17467150D01*
X19017682Y-17467150D02*
X18998634Y-17476674D01*
X18998634Y-17476674D02*
X18989111Y-17486198D01*
X19198634Y-17600484D02*
X19179587Y-17590960D01*
X19179587Y-17590960D02*
X19170063Y-17581436D01*
X19170063Y-17581436D02*
X19160539Y-17562389D01*
X19160539Y-17562389D02*
X19160539Y-17505246D01*
X19160539Y-17505246D02*
X19170063Y-17486198D01*
X19170063Y-17486198D02*
X19179587Y-17476674D01*
X19179587Y-17476674D02*
X19198634Y-17467150D01*
X19198634Y-17467150D02*
X19227206Y-17467150D01*
X19227206Y-17467150D02*
X19246253Y-17476674D01*
X19246253Y-17476674D02*
X19255777Y-17486198D01*
X19255777Y-17486198D02*
X19265301Y-17505246D01*
X19265301Y-17505246D02*
X19265301Y-17562389D01*
X19265301Y-17562389D02*
X19255777Y-17581436D01*
X19255777Y-17581436D02*
X19246253Y-17590960D01*
X19246253Y-17590960D02*
X19227206Y-17600484D01*
X19227206Y-17600484D02*
X19198634Y-17600484D01*
X19379587Y-17600484D02*
X19360539Y-17590960D01*
X19360539Y-17590960D02*
X19351015Y-17571912D01*
X19351015Y-17571912D02*
X19351015Y-17400484D01*
X19531968Y-17590960D02*
X19512920Y-17600484D01*
X19512920Y-17600484D02*
X19474825Y-17600484D01*
X19474825Y-17600484D02*
X19455777Y-17590960D01*
X19455777Y-17590960D02*
X19446253Y-17571912D01*
X19446253Y-17571912D02*
X19446253Y-17495722D01*
X19446253Y-17495722D02*
X19455777Y-17476674D01*
X19455777Y-17476674D02*
X19474825Y-17467150D01*
X19474825Y-17467150D02*
X19512920Y-17467150D01*
X19512920Y-17467150D02*
X19531968Y-17476674D01*
X19531968Y-17476674D02*
X19541492Y-17495722D01*
X19541492Y-17495722D02*
X19541492Y-17514770D01*
X19541492Y-17514770D02*
X19446253Y-17533817D01*
X19617682Y-17590960D02*
X19636730Y-17600484D01*
X19636730Y-17600484D02*
X19674825Y-17600484D01*
X19674825Y-17600484D02*
X19693873Y-17590960D01*
X19693873Y-17590960D02*
X19703396Y-17571912D01*
X19703396Y-17571912D02*
X19703396Y-17562389D01*
X19703396Y-17562389D02*
X19693873Y-17543341D01*
X19693873Y-17543341D02*
X19674825Y-17533817D01*
X19674825Y-17533817D02*
X19646253Y-17533817D01*
X19646253Y-17533817D02*
X19627206Y-17524293D01*
X19627206Y-17524293D02*
X19617682Y-17505246D01*
X19617682Y-17505246D02*
X19617682Y-17495722D01*
X19617682Y-17495722D02*
X19627206Y-17476674D01*
X19627206Y-17476674D02*
X19646253Y-17467150D01*
X19646253Y-17467150D02*
X19674825Y-17467150D01*
X19674825Y-17467150D02*
X19693873Y-17476674D01*
X19770063Y-17676674D02*
X19779587Y-17667150D01*
X19779587Y-17667150D02*
X19798634Y-17638579D01*
X19798634Y-17638579D02*
X19808158Y-17619531D01*
X19808158Y-17619531D02*
X19817682Y-17590960D01*
X19817682Y-17590960D02*
X19827206Y-17543341D01*
X19827206Y-17543341D02*
X19827206Y-17505246D01*
X19827206Y-17505246D02*
X19817682Y-17457627D01*
X19817682Y-17457627D02*
X19808158Y-17429055D01*
X19808158Y-17429055D02*
X19798634Y-17410008D01*
X19798634Y-17410008D02*
X19779587Y-17381436D01*
X19779587Y-17381436D02*
X19770063Y-17371912D01*
M02*
