G04 #@! TF.GenerationSoftware,KiCad,Pcbnew,7.0.7*
G04 #@! TF.CreationDate,2023-11-18T21:36:32+01:00*
G04 #@! TF.ProjectId,Mod2Arinc,4d6f6432-4172-4696-9e63-2e6b69636164,rev?*
G04 #@! TF.SameCoordinates,Original*
G04 #@! TF.FileFunction,Soldermask,Top*
G04 #@! TF.FilePolarity,Negative*
%FSLAX46Y46*%
G04 Gerber Fmt 4.6, Leading zero omitted, Abs format (unit mm)*
G04 Created by KiCad (PCBNEW 7.0.7) date 2023-11-18 21:36:32*
%MOMM*%
%LPD*%
G01*
G04 APERTURE LIST*
G04 Aperture macros list*
%AMRoundRect*
0 Rectangle with rounded corners*
0 $1 Rounding radius*
0 $2 $3 $4 $5 $6 $7 $8 $9 X,Y pos of 4 corners*
0 Add a 4 corners polygon primitive as box body*
4,1,4,$2,$3,$4,$5,$6,$7,$8,$9,$2,$3,0*
0 Add four circle primitives for the rounded corners*
1,1,$1+$1,$2,$3*
1,1,$1+$1,$4,$5*
1,1,$1+$1,$6,$7*
1,1,$1+$1,$8,$9*
0 Add four rect primitives between the rounded corners*
20,1,$1+$1,$2,$3,$4,$5,0*
20,1,$1+$1,$4,$5,$6,$7,0*
20,1,$1+$1,$6,$7,$8,$9,0*
20,1,$1+$1,$8,$9,$2,$3,0*%
G04 Aperture macros list end*
%ADD10R,1.500000X1.500000*%
%ADD11C,1.500000*%
%ADD12C,1.600000*%
%ADD13C,3.600000*%
%ADD14C,6.400000*%
%ADD15O,1.600000X1.600000*%
%ADD16R,1.600000X1.600000*%
%ADD17C,2.700000*%
%ADD18C,3.000000*%
%ADD19C,2.000000*%
%ADD20R,1.700000X2.500000*%
%ADD21O,1.700000X2.500000*%
%ADD22R,1.500000X3.000000*%
%ADD23O,1.500000X3.000000*%
%ADD24R,1.700000X1.700000*%
%ADD25O,1.700000X1.700000*%
%ADD26O,3.500000X3.500000*%
%ADD27R,2.000000X1.905000*%
%ADD28O,2.000000X1.905000*%
%ADD29R,3.200000X3.200000*%
%ADD30O,3.200000X3.200000*%
%ADD31R,2.300000X2.300000*%
%ADD32C,2.300000*%
%ADD33C,2.600000*%
%ADD34O,3.600000X1.800000*%
%ADD35RoundRect,0.250000X-1.550000X0.650000X-1.550000X-0.650000X1.550000X-0.650000X1.550000X0.650000X0*%
%ADD36R,1.800000X1.800000*%
%ADD37C,1.800000*%
%ADD38RoundRect,0.250000X1.550000X-0.650000X1.550000X0.650000X-1.550000X0.650000X-1.550000X-0.650000X0*%
G04 APERTURE END LIST*
D10*
X166980000Y-117770000D03*
D11*
X166980000Y-120310000D03*
X166980000Y-122850000D03*
D12*
X206350000Y-86030000D03*
X206350000Y-91030000D03*
D13*
X155000000Y-55000000D03*
D14*
X155000000Y-55000000D03*
D12*
X189840000Y-100000000D03*
D15*
X189840000Y-110160000D03*
D12*
X211430000Y-79680000D03*
X211430000Y-82180000D03*
D10*
X201270000Y-86030000D03*
D11*
X201270000Y-88570000D03*
X201270000Y-91110000D03*
D12*
X220320000Y-94920000D03*
D15*
X220320000Y-105080000D03*
D12*
X174600000Y-100000000D03*
D15*
X174600000Y-110160000D03*
D16*
X196190000Y-136830000D03*
D15*
X196190000Y-126670000D03*
D12*
X182220000Y-84760000D03*
D15*
X182220000Y-94920000D03*
D12*
X174600000Y-84760000D03*
D15*
X174600000Y-94920000D03*
D12*
X201270000Y-94920000D03*
D15*
X201270000Y-105080000D03*
D12*
X197460000Y-63170000D03*
D15*
X197460000Y-73330000D03*
D12*
X163170000Y-100000000D03*
D15*
X163170000Y-110160000D03*
D12*
X216510000Y-73330000D03*
X216510000Y-68330000D03*
D17*
X174420000Y-144450000D03*
D18*
X163170000Y-144450000D03*
X185670000Y-144450000D03*
D17*
X174420000Y-55550000D03*
D18*
X163170000Y-55550000D03*
X185670000Y-55550000D03*
D13*
X245000000Y-55000000D03*
D14*
X245000000Y-55000000D03*
D12*
X220320000Y-63170000D03*
D15*
X220320000Y-73330000D03*
D16*
X215240000Y-87300000D03*
D15*
X217780000Y-87300000D03*
X220320000Y-87300000D03*
X222860000Y-87300000D03*
X222860000Y-79680000D03*
X220320000Y-79680000D03*
X217780000Y-79680000D03*
X215240000Y-79680000D03*
D12*
X235560000Y-94920000D03*
D15*
X235560000Y-105080000D03*
D12*
X226670000Y-84760000D03*
X226670000Y-87260000D03*
D10*
X196190000Y-77140000D03*
D11*
X196190000Y-79680000D03*
X196190000Y-82220000D03*
D13*
X155000000Y-145000000D03*
D14*
X155000000Y-145000000D03*
D10*
X177140000Y-117780000D03*
D11*
X177140000Y-120320000D03*
X177140000Y-122860000D03*
D12*
X211430000Y-126710000D03*
X211430000Y-129210000D03*
D13*
X155000000Y-100000000D03*
D14*
X155000000Y-100000000D03*
D12*
X233020000Y-145720000D03*
X233020000Y-143220000D03*
X192380000Y-126670000D03*
D15*
X192380000Y-136830000D03*
D19*
X246990000Y-61900000D03*
D12*
X235560000Y-111430000D03*
D15*
X235560000Y-121590000D03*
D12*
X197460000Y-105080000D03*
D15*
X197460000Y-94920000D03*
D16*
X168250000Y-74600000D03*
D12*
X168250000Y-78400000D03*
X178410000Y-84760000D03*
D15*
X178410000Y-94920000D03*
D10*
X187300000Y-117780000D03*
D11*
X187300000Y-120320000D03*
X187300000Y-122860000D03*
D12*
X186030000Y-84760000D03*
D15*
X186030000Y-94920000D03*
D10*
X182220000Y-117780000D03*
D11*
X182220000Y-120320000D03*
X182220000Y-122860000D03*
D13*
X245000000Y-100000000D03*
D14*
X245000000Y-100000000D03*
D12*
X170790000Y-84760000D03*
D15*
X170790000Y-94920000D03*
D12*
X227940000Y-105080000D03*
D15*
X227940000Y-94920000D03*
D12*
X189840000Y-84760000D03*
D15*
X189840000Y-94920000D03*
D12*
X170790000Y-100000000D03*
D15*
X170790000Y-110160000D03*
D12*
X233020000Y-140600000D03*
X233020000Y-138100000D03*
D19*
X153010000Y-138100000D03*
D12*
X215240000Y-130480000D03*
D15*
X225400000Y-130480000D03*
D12*
X203810000Y-126670000D03*
D15*
X203810000Y-136830000D03*
D12*
X186030000Y-100000000D03*
D15*
X186030000Y-110160000D03*
D12*
X200000000Y-136830000D03*
D15*
X200000000Y-126670000D03*
D12*
X205080000Y-63170000D03*
D15*
X205080000Y-73330000D03*
D12*
X224130000Y-63170000D03*
D15*
X224130000Y-73330000D03*
D12*
X224130000Y-105080000D03*
D15*
X224130000Y-94920000D03*
D12*
X164440000Y-64520000D03*
X164440000Y-69520000D03*
X163170000Y-84760000D03*
D15*
X163170000Y-94920000D03*
D12*
X174600000Y-74600000D03*
X174600000Y-77100000D03*
X207620000Y-53010000D03*
X207620000Y-58010000D03*
D16*
X180950000Y-78410000D03*
D12*
X180950000Y-74610000D03*
D20*
X226670000Y-53010000D03*
D21*
X229210000Y-53010000D03*
X231750000Y-53010000D03*
D12*
X231750000Y-63170000D03*
D15*
X231750000Y-73330000D03*
D22*
X169520000Y-64440000D03*
D23*
X172060000Y-64440000D03*
X174600000Y-64440000D03*
X179680000Y-64440000D03*
X182220000Y-64440000D03*
X184760000Y-64440000D03*
X187300000Y-64440000D03*
D12*
X212700000Y-105080000D03*
D15*
X212700000Y-94920000D03*
D10*
X161900000Y-117780000D03*
D11*
X161900000Y-120320000D03*
X161900000Y-122860000D03*
D13*
X245000000Y-145000000D03*
D14*
X245000000Y-145000000D03*
D12*
X207620000Y-129210000D03*
X207620000Y-126710000D03*
X215200000Y-134290000D03*
X210200000Y-134290000D03*
D16*
X198730000Y-120320000D03*
D15*
X201270000Y-120320000D03*
X203810000Y-120320000D03*
X206350000Y-120320000D03*
X208890000Y-120320000D03*
X211430000Y-120320000D03*
X213970000Y-120320000D03*
X216510000Y-120320000D03*
X219050000Y-120320000D03*
X221590000Y-120320000D03*
X224130000Y-120320000D03*
X226670000Y-120320000D03*
X229210000Y-120320000D03*
X231750000Y-120320000D03*
X231750000Y-112700000D03*
X229210000Y-112700000D03*
X226670000Y-112700000D03*
X224130000Y-112700000D03*
X221590000Y-112700000D03*
X219050000Y-112700000D03*
X216510000Y-112700000D03*
X213970000Y-112700000D03*
X211430000Y-112700000D03*
X208890000Y-112700000D03*
X206350000Y-112700000D03*
X203810000Y-112700000D03*
X201270000Y-112700000D03*
X198730000Y-112700000D03*
D24*
X193650000Y-146990000D03*
D25*
X196190000Y-146990000D03*
X198730000Y-146990000D03*
X201270000Y-146990000D03*
X203810000Y-146990000D03*
X206350000Y-146990000D03*
D12*
X227940000Y-63170000D03*
D15*
X227940000Y-73330000D03*
D12*
X216510000Y-94920000D03*
X216510000Y-99920000D03*
X216510000Y-105040000D03*
X216510000Y-102540000D03*
X205080000Y-105080000D03*
D15*
X205080000Y-94920000D03*
D12*
X178410000Y-100000000D03*
D15*
X178410000Y-110160000D03*
D12*
X208890000Y-105080000D03*
D15*
X208890000Y-94920000D03*
D12*
X182220000Y-100000000D03*
D15*
X182220000Y-110160000D03*
D16*
X184760000Y-136830000D03*
D15*
X184760000Y-126670000D03*
D12*
X201270000Y-63170000D03*
D15*
X201270000Y-73330000D03*
D12*
X235560000Y-63170000D03*
D15*
X235560000Y-73330000D03*
D12*
X166980000Y-100000000D03*
D15*
X166980000Y-110160000D03*
D10*
X172060000Y-117780000D03*
D11*
X172060000Y-120320000D03*
X172060000Y-122860000D03*
D12*
X239370000Y-111430000D03*
D15*
X239370000Y-121590000D03*
D26*
X212550000Y-143180000D03*
D27*
X229210000Y-145720000D03*
D28*
X229210000Y-143180000D03*
X229210000Y-140640000D03*
D29*
X202540000Y-55550000D03*
D30*
X189840000Y-55550000D03*
D12*
X225360000Y-134290000D03*
X220360000Y-134290000D03*
D11*
X217870000Y-125400000D03*
X222770000Y-125400000D03*
D12*
X226670000Y-77140000D03*
X226670000Y-82140000D03*
D10*
X188120000Y-126660000D03*
D11*
X188120000Y-129200000D03*
X188120000Y-131740000D03*
D12*
X231750000Y-105080000D03*
D15*
X231750000Y-94920000D03*
D12*
X206350000Y-77220000D03*
X206350000Y-82220000D03*
X238100000Y-58010000D03*
X238100000Y-53010000D03*
D10*
X196190000Y-86030000D03*
D11*
X196190000Y-88570000D03*
X196190000Y-91110000D03*
D31*
X180950000Y-127940000D03*
D32*
X170790000Y-127940000D03*
X163170000Y-127940000D03*
X180950000Y-135560000D03*
D12*
X220320000Y-53010000D03*
X220320000Y-58010000D03*
D10*
X192380000Y-117780000D03*
D11*
X192380000Y-120320000D03*
X192380000Y-122860000D03*
D12*
X193650000Y-73330000D03*
D15*
X193650000Y-63170000D03*
D12*
X212700000Y-63170000D03*
D15*
X212700000Y-73330000D03*
D12*
X208890000Y-63170000D03*
D15*
X208890000Y-73330000D03*
D12*
X187300000Y-77100000D03*
X187300000Y-74600000D03*
D10*
X201270000Y-77140000D03*
D11*
X201270000Y-79680000D03*
X201270000Y-82220000D03*
D12*
X166980000Y-84760000D03*
D15*
X166980000Y-94920000D03*
D33*
X212075837Y-55557712D03*
X215575837Y-55557712D03*
D34*
X155550000Y-131750000D03*
X155550000Y-127940000D03*
X155550000Y-124130000D03*
X155550000Y-120320000D03*
X155550000Y-116510000D03*
D35*
X155550000Y-112700000D03*
D36*
X234290000Y-80950000D03*
D37*
X234290000Y-78410000D03*
D24*
X246990000Y-121590000D03*
D25*
X244450000Y-121590000D03*
X246990000Y-119050000D03*
X244450000Y-119050000D03*
X246990000Y-116510000D03*
X244450000Y-116510000D03*
X246990000Y-113970000D03*
X244450000Y-113970000D03*
X246990000Y-111430000D03*
X244450000Y-111430000D03*
D35*
X155550000Y-68250000D03*
D34*
X155550000Y-72060000D03*
X155550000Y-75870000D03*
X155550000Y-79680000D03*
X155550000Y-83490000D03*
X155550000Y-87300000D03*
D38*
X244450000Y-87300000D03*
D34*
X244450000Y-83490000D03*
X244450000Y-79680000D03*
X244450000Y-75870000D03*
X244450000Y-72060000D03*
X244450000Y-68250000D03*
D36*
X234290000Y-86030000D03*
D37*
X234290000Y-88570000D03*
M02*
