M48
; DRILL file {KiCad 7.0.7} date Sat Nov 18 21:36:41 2023
; FORMAT={-:-/ absolute / metric / decimal}
; #@! TF.CreationDate,2023-11-18T21:36:41+01:00
; #@! TF.GenerationSoftware,Kicad,Pcbnew,7.0.7
; #@! TF.FileFunction,Plated,1,2,PTH
FMAT,2
METRIC
; #@! TA.AperFunction,Plated,PTH,ComponentDrill
T1C0.800
; #@! TA.AperFunction,Plated,PTH,ComponentDrill
T2C0.900
; #@! TA.AperFunction,Plated,PTH,ComponentDrill
T3C1.000
; #@! TA.AperFunction,Plated,PTH,ComponentDrill
T4C1.100
; #@! TA.AperFunction,Plated,PTH,ComponentDrill
T5C1.200
; #@! TA.AperFunction,Plated,PTH,ComponentDrill
T6C1.300
; #@! TA.AperFunction,Plated,PTH,ComponentDrill
T7C1.600
; #@! TA.AperFunction,Plated,PTH,ComponentDrill
T8C3.200
%
G90
G05
T1
X161.9Y-117.78
X161.9Y-120.32
X161.9Y-122.86
X163.17Y-84.76
X163.17Y-94.92
X163.17Y-100.0
X163.17Y-110.16
X164.44Y-64.52
X164.44Y-69.52
X166.98Y-84.76
X166.98Y-94.92
X166.98Y-100.0
X166.98Y-110.16
X166.98Y-117.77
X166.98Y-120.31
X166.98Y-122.85
X168.25Y-74.6
X168.25Y-78.4
X170.79Y-84.76
X170.79Y-94.92
X170.79Y-100.0
X170.79Y-110.16
X172.06Y-117.78
X172.06Y-120.32
X172.06Y-122.86
X174.6Y-74.6
X174.6Y-77.1
X174.6Y-84.76
X174.6Y-94.92
X174.6Y-100.0
X174.6Y-110.16
X177.14Y-117.78
X177.14Y-120.32
X177.14Y-122.86
X178.41Y-84.76
X178.41Y-94.92
X178.41Y-100.0
X178.41Y-110.16
X180.95Y-74.61
X180.95Y-78.41
X182.22Y-84.76
X182.22Y-94.92
X182.22Y-100.0
X182.22Y-110.16
X182.22Y-117.78
X182.22Y-120.32
X182.22Y-122.86
X184.76Y-126.67
X184.76Y-136.83
X186.03Y-84.76
X186.03Y-94.92
X186.03Y-100.0
X186.03Y-110.16
X187.3Y-74.6
X187.3Y-77.1
X187.3Y-117.78
X187.3Y-120.32
X187.3Y-122.86
X188.12Y-126.66
X188.12Y-129.2
X188.12Y-131.74
X189.84Y-84.76
X189.84Y-94.92
X189.84Y-100.0
X189.84Y-110.16
X192.38Y-117.78
X192.38Y-120.32
X192.38Y-122.86
X192.38Y-126.67
X192.38Y-136.83
X193.65Y-63.17
X193.65Y-73.33
X196.19Y-77.14
X196.19Y-79.68
X196.19Y-82.22
X196.19Y-86.03
X196.19Y-88.57
X196.19Y-91.11
X196.19Y-126.67
X196.19Y-136.83
X197.46Y-63.17
X197.46Y-73.33
X197.46Y-94.92
X197.46Y-105.08
X198.73Y-112.7
X198.73Y-120.32
X200.0Y-126.67
X200.0Y-136.83
X201.27Y-63.17
X201.27Y-73.33
X201.27Y-77.14
X201.27Y-79.68
X201.27Y-82.22
X201.27Y-86.03
X201.27Y-88.57
X201.27Y-91.11
X201.27Y-94.92
X201.27Y-105.08
X201.27Y-112.7
X201.27Y-120.32
X203.81Y-112.7
X203.81Y-120.32
X203.81Y-126.67
X203.81Y-136.83
X205.08Y-63.17
X205.08Y-73.33
X205.08Y-94.92
X205.08Y-105.08
X206.35Y-77.22
X206.35Y-82.22
X206.35Y-86.03
X206.35Y-91.03
X206.35Y-112.7
X206.35Y-120.32
X207.62Y-53.01
X207.62Y-58.01
X207.62Y-126.71
X207.62Y-129.21
X208.89Y-63.17
X208.89Y-73.33
X208.89Y-94.92
X208.89Y-105.08
X208.89Y-112.7
X208.89Y-120.32
X210.2Y-134.29
X211.43Y-79.68
X211.43Y-82.18
X211.43Y-112.7
X211.43Y-120.32
X211.43Y-126.71
X211.43Y-129.21
X212.7Y-63.17
X212.7Y-73.33
X212.7Y-94.92
X212.7Y-105.08
X213.97Y-112.7
X213.97Y-120.32
X215.2Y-134.29
X215.24Y-79.68
X215.24Y-87.3
X215.24Y-130.48
X216.51Y-68.33
X216.51Y-73.33
X216.51Y-94.92
X216.51Y-99.92
X216.51Y-102.54
X216.51Y-105.04
X216.51Y-112.7
X216.51Y-120.32
X217.78Y-79.68
X217.78Y-87.3
X217.87Y-125.4
X219.05Y-112.7
X219.05Y-120.32
X220.32Y-53.01
X220.32Y-58.01
X220.32Y-63.17
X220.32Y-73.33
X220.32Y-79.68
X220.32Y-87.3
X220.32Y-94.92
X220.32Y-105.08
X220.36Y-134.29
X221.59Y-112.7
X221.59Y-120.32
X222.77Y-125.4
X222.86Y-79.68
X222.86Y-87.3
X224.13Y-63.17
X224.13Y-73.33
X224.13Y-94.92
X224.13Y-105.08
X224.13Y-112.7
X224.13Y-120.32
X225.36Y-134.29
X225.4Y-130.48
X226.67Y-77.14
X226.67Y-82.14
X226.67Y-84.76
X226.67Y-87.26
X226.67Y-112.7
X226.67Y-120.32
X227.94Y-63.17
X227.94Y-73.33
X227.94Y-94.92
X227.94Y-105.08
X229.21Y-112.7
X229.21Y-120.32
X231.75Y-63.17
X231.75Y-73.33
X231.75Y-94.92
X231.75Y-105.08
X231.75Y-112.7
X231.75Y-120.32
X233.02Y-138.1
X233.02Y-140.6
X233.02Y-143.22
X233.02Y-145.72
X235.56Y-63.17
X235.56Y-73.33
X235.56Y-94.92
X235.56Y-105.08
X235.56Y-111.43
X235.56Y-121.59
X238.1Y-53.01
X238.1Y-58.01
X239.37Y-111.43
X239.37Y-121.59
T2
X234.29Y-78.41
X234.29Y-80.95
X234.29Y-86.03
X234.29Y-88.57
T3
X169.52Y-64.44
X172.06Y-64.44
X174.6Y-64.44
X179.68Y-64.44
X182.22Y-64.44
X184.76Y-64.44
X187.3Y-64.44
X193.65Y-146.99
X196.19Y-146.99
X198.73Y-146.99
X201.27Y-146.99
X203.81Y-146.99
X206.35Y-146.99
X244.45Y-111.43
X244.45Y-113.97
X244.45Y-116.51
X244.45Y-119.05
X244.45Y-121.59
X246.99Y-111.43
X246.99Y-113.97
X246.99Y-116.51
X246.99Y-119.05
X246.99Y-121.59
T4
X229.21Y-140.64
X229.21Y-143.18
X229.21Y-145.72
T5
X155.55Y-68.25
X155.55Y-72.06
X155.55Y-75.87
X155.55Y-79.68
X155.55Y-83.49
X155.55Y-87.3
X155.55Y-112.7
X155.55Y-116.51
X155.55Y-120.32
X155.55Y-124.13
X155.55Y-127.94
X155.55Y-131.75
X226.67Y-53.01
X229.21Y-53.01
X231.75Y-53.01
X244.45Y-68.25
X244.45Y-72.06
X244.45Y-75.87
X244.45Y-79.68
X244.45Y-83.49
X244.45Y-87.3
T6
X163.17Y-55.55
X163.17Y-127.94
X163.17Y-144.45
X170.79Y-127.94
X180.95Y-127.94
X180.95Y-135.56
X185.67Y-55.55
X185.67Y-144.45
X212.076Y-55.558
X215.576Y-55.558
T7
X189.84Y-55.55
X202.54Y-55.55
T8
X155.0Y-55.0
X155.0Y-100.0
X155.0Y-145.0
X245.0Y-55.0
X245.0Y-100.0
X245.0Y-145.0
T0
M30
